STARTFONT 2.1
COMMENT
COMMENT Converted from OpenType font "DejaVuSans.ttf" by "otf2bdf 3.0".
COMMENT
FONT -FreeType-DejaVu Sans-Medium-R-Normal--29-300-70-70-P-163-ISO10646-1
SIZE 30 70 70
FONTBOUNDINGBOX 79 43 -30 -12
STARTPROPERTIES 19
FOUNDRY "FreeType"
FAMILY_NAME "DejaVu Sans"
WEIGHT_NAME "Medium"
SLANT "R"
SETWIDTH_NAME "Normal"
ADD_STYLE_NAME ""
PIXEL_SIZE 29
POINT_SIZE 300
RESOLUTION_X 70
RESOLUTION_Y 70
SPACING "P"
AVERAGE_WIDTH 163
CHARSET_REGISTRY "ISO10646"
CHARSET_ENCODING "1"
FONT_ASCENT 26
FONT_DESCENT 6
COPYRIGHT "Copyright (c) 2003 by Bitstream, Inc. All Rights Reserved.  Copyright (c) 2006 by Tavmjong Bah. All Rights Reserved.  DejaVu changes are in public domain  "
_OTF_FONTFILE "DejaVuSans.ttf"
_OTF_PSNAME "DejaVuSans"
ENDPROPERTIES
CHARS 5370
STARTCHAR 0020
ENCODING 32
SWIDTH 308 0
DWIDTH 9 0
BBX 0 0 0 0
BITMAP
ENDCHAR
STARTCHAR 0021
ENCODING 33
SWIDTH 411 0
DWIDTH 12 0
BBX 3 21 4 0
BITMAP
E0
E0
E0
E0
E0
E0
E0
E0
E0
E0
E0
60
60
60
00
00
00
E0
E0
E0
E0
ENDCHAR
STARTCHAR 0022
ENCODING 34
SWIDTH 445 0
DWIDTH 13 0
BBX 8 8 3 13
BITMAP
C7
C7
C7
C7
C7
C7
C7
C7
ENDCHAR
STARTCHAR 0023
ENCODING 35
SWIDTH 822 0
DWIDTH 24 0
BBX 20 22 2 0
BITMAP
00E180
00C380
00C380
00C300
01C300
018700
3FFFF0
3FFFF0
3FFFF0
038600
030E00
030C00
070C00
FFFFC0
FFFFC0
FFFFC0
061800
0E1800
0C3800
0C3800
0C3000
1C3000
ENDCHAR
STARTCHAR 0024
ENCODING 36
SWIDTH 617 0
DWIDTH 18 0
BBX 14 26 2 -4
BITMAP
0300
0300
0300
0FE0
3FF8
7FF8
7318
E300
E300
6300
7300
3F00
1FE0
03F8
033C
031C
031C
031C
C33C
FFF8
FFF0
3FC0
0300
0300
0300
0300
ENDCHAR
STARTCHAR 0025
ENCODING 37
SWIDTH 960 0
DWIDTH 28 0
BBX 24 21 2 0
BITMAP
3E0060
7F00E0
E380C0
C18180
C18380
C18300
C18600
C18600
C18C00
E39C78
7F18FE
3E31CE
007187
006383
00C303
01C303
018383
038187
0301CE
0600FE
0E0078
ENDCHAR
STARTCHAR 0026
ENCODING 38
SWIDTH 788 0
DWIDTH 23 0
BBX 19 21 2 0
BITMAP
07E000
0FF800
1FF800
3C1800
380000
380000
380000
1C0000
0E0000
3F0000
7380E0
61C0C0
E0F0C0
E079C0
E03F80
E01F00
F00700
781F80
7FF9C0
3FF1E0
0FC0E0
ENDCHAR
STARTCHAR 0027
ENCODING 39
SWIDTH 274 0
DWIDTH 8 0
BBX 2 8 3 13
BITMAP
C0
C0
C0
C0
C0
C0
C0
C0
ENDCHAR
STARTCHAR 0028
ENCODING 40
SWIDTH 377 0
DWIDTH 11 0
BBX 7 26 2 -4
BITMAP
0E
0C
1C
18
38
30
30
70
70
70
60
60
E0
60
60
60
60
70
70
30
30
38
18
1C
0C
0E
ENDCHAR
STARTCHAR 0029
ENCODING 41
SWIDTH 377 0
DWIDTH 11 0
BBX 6 26 3 -4
BITMAP
C0
C0
60
70
70
30
38
38
18
1C
1C
1C
1C
1C
1C
1C
1C
18
38
38
30
70
70
60
E0
C0
ENDCHAR
STARTCHAR 002A
ENCODING 42
SWIDTH 514 0
DWIDTH 15 0
BBX 12 14 1 7
BITMAP
0600
0600
0600
C610
E670
3EC0
0F80
0F80
3EC0
E670
C610
0600
0600
0600
ENDCHAR
STARTCHAR 002B
ENCODING 43
SWIDTH 822 0
DWIDTH 24 0
BBX 18 18 3 0
BITMAP
00C000
00C000
00C000
00C000
00C000
00C000
00C000
00C000
FFFFC0
FFFFC0
00C000
00C000
00C000
00C000
00C000
00C000
00C000
00C000
ENDCHAR
STARTCHAR 002C
ENCODING 44
SWIDTH 308 0
DWIDTH 9 0
BBX 4 7 2 -3
BITMAP
70
70
70
70
60
60
C0
ENDCHAR
STARTCHAR 002D
ENCODING 45
SWIDTH 342 0
DWIDTH 10 0
BBX 8 2 1 7
BITMAP
FF
FF
ENDCHAR
STARTCHAR 002E
ENCODING 46
SWIDTH 308 0
DWIDTH 9 0
BBX 3 4 3 0
BITMAP
E0
E0
E0
E0
ENDCHAR
STARTCHAR 002F
ENCODING 47
SWIDTH 342 0
DWIDTH 10 0
BBX 10 24 0 -3
BITMAP
01C0
0180
0180
0380
0300
0300
0700
0600
0600
0E00
0E00
0C00
0C00
1C00
1800
1800
3800
3000
3000
7000
6000
6000
E000
E000
ENDCHAR
STARTCHAR 0030
ENCODING 48
SWIDTH 617 0
DWIDTH 18 0
BBX 15 21 2 0
BITMAP
0FC0
1FF0
3FF8
7878
703C
F01C
E01C
E01C
E00C
E00E
E00E
E00E
E00C
E01C
E01C
F01C
703C
7878
3FF8
1FF0
0FC0
ENDCHAR
STARTCHAR 0031
ENCODING 49
SWIDTH 617 0
DWIDTH 18 0
BBX 13 21 3 0
BITMAP
1F00
FF00
FF00
E700
0700
0700
0700
0700
0700
0700
0700
0700
0700
0700
0700
0700
0700
0700
7FF8
7FF8
7FF8
ENDCHAR
STARTCHAR 0032
ENCODING 50
SWIDTH 617 0
DWIDTH 18 0
BBX 14 21 2 0
BITMAP
3FC0
FFE0
FFF0
C078
0038
0038
0018
0038
0038
0070
00E0
01C0
0380
0700
0E00
1C00
3800
7000
FFFC
FFFC
FFFC
ENDCHAR
STARTCHAR 0033
ENCODING 51
SWIDTH 617 0
DWIDTH 18 0
BBX 14 21 2 0
BITMAP
1FC0
7FF0
7FF8
6078
003C
001C
001C
0038
0078
0FF0
0FC0
0FF0
0078
001C
001C
001C
001C
C07C
FFF8
FFF0
3FC0
ENDCHAR
STARTCHAR 0034
ENCODING 52
SWIDTH 617 0
DWIDTH 18 0
BBX 16 21 1 0
BITMAP
0078
00F8
00F8
01B8
03B8
0338
0638
0638
0C38
1C38
1838
3038
7038
6038
FFFF
FFFF
FFFF
0038
0038
0038
0038
ENDCHAR
STARTCHAR 0035
ENCODING 53
SWIDTH 617 0
DWIDTH 18 0
BBX 14 21 2 0
BITMAP
7FF0
7FF0
7FF0
7000
7000
7000
7000
7F80
7FE0
7FF0
6078
003C
001C
001C
001C
001C
003C
C078
FFF0
FFE0
3F80
ENDCHAR
STARTCHAR 0036
ENCODING 54
SWIDTH 617 0
DWIDTH 18 0
BBX 15 21 2 0
BITMAP
03F0
0FF8
1FF8
3C08
7800
7000
7000
E000
E3E0
EFF0
FFF8
F83C
F01C
F00E
E00E
700E
701C
783C
3FF8
1FF0
07E0
ENDCHAR
STARTCHAR 0037
ENCODING 55
SWIDTH 617 0
DWIDTH 18 0
BBX 14 21 2 0
BITMAP
FFFC
FFFC
FFF8
0038
0038
0030
0070
0070
00E0
00E0
00C0
01C0
01C0
0380
0380
0300
0700
0700
0E00
0E00
0E00
ENDCHAR
STARTCHAR 0038
ENCODING 56
SWIDTH 617 0
DWIDTH 18 0
BBX 14 21 2 0
BITMAP
0FC0
3FF0
7FF8
783C
701C
E01C
601C
701C
7838
3FF0
0FE0
3FF8
783C
E01C
E00C
E00C
E01C
F83C
7FFC
3FF8
0FE0
ENDCHAR
STARTCHAR 0039
ENCODING 57
SWIDTH 617 0
DWIDTH 18 0
BBX 14 21 2 0
BITMAP
0FC0
3FE0
7FF0
F878
E038
E01C
E01C
E01C
E03C
F87C
7FFC
3FDC
0F9C
001C
001C
003C
0078
60F8
7FF0
7FE0
1F80
ENDCHAR
STARTCHAR 003A
ENCODING 58
SWIDTH 342 0
DWIDTH 10 0
BBX 3 15 3 0
BITMAP
E0
E0
E0
E0
00
00
00
00
00
00
00
E0
E0
E0
E0
ENDCHAR
STARTCHAR 003B
ENCODING 59
SWIDTH 342 0
DWIDTH 10 0
BBX 4 18 2 -3
BITMAP
70
70
70
70
00
00
00
00
00
00
00
70
70
70
70
60
60
C0
ENDCHAR
STARTCHAR 003C
ENCODING 60
SWIDTH 822 0
DWIDTH 24 0
BBX 18 16 3 1
BITMAP
000040
0003C0
000FC0
007F00
03F800
1FC000
7F0000
F80000
F80000
7F0000
1FC000
03F800
007F00
001FC0
0003C0
000040
ENDCHAR
STARTCHAR 003D
ENCODING 61
SWIDTH 822 0
DWIDTH 24 0
BBX 18 7 3 5
BITMAP
FFFFC0
FFFFC0
000000
000000
000000
FFFFC0
FFFFC0
ENDCHAR
STARTCHAR 003E
ENCODING 62
SWIDTH 822 0
DWIDTH 24 0
BBX 18 16 3 1
BITMAP
800000
F00000
FE0000
3F8000
07F000
00FE00
001FC0
0007C0
0007C0
001F80
00FE00
07F000
3F8000
FE0000
F00000
800000
ENDCHAR
STARTCHAR 003F
ENCODING 63
SWIDTH 514 0
DWIDTH 15 0
BBX 11 21 2 0
BITMAP
1F00
7FC0
FFE0
E1E0
80E0
00E0
00E0
00E0
01C0
0780
0F00
0E00
0C00
0C00
0C00
0000
0000
0C00
0C00
0C00
0C00
ENDCHAR
STARTCHAR 0040
ENCODING 64
SWIDTH 994 0
DWIDTH 29 0
BBX 25 25 2 -5
BITMAP
007F8000
01FFE000
07FFF800
0F807C00
1E001E00
38000700
70000300
603CE300
60FEE180
C1FFE180
C1C1E180
C180E180
C180E380
C180E300
C1C1EF00
C1FFFE00
E0FEFC00
607CF000
70000000
38000000
1E001000
0F80F000
07FFF000
03FFE000
007F0000
ENDCHAR
STARTCHAR 0041
ENCODING 65
SWIDTH 685 0
DWIDTH 20 0
BBX 19 21 0 0
BITMAP
00F000
00F000
01F800
01F800
019800
039C00
039C00
070C00
070E00
060E00
0E0700
0E0700
1C0300
1FFF80
1FFF80
3FFF80
3801C0
3801C0
7000E0
7000E0
E000E0
ENDCHAR
STARTCHAR 0042
ENCODING 66
SWIDTH 685 0
DWIDTH 20 0
BBX 15 21 3 0
BITMAP
FFC0
FFF0
FFF8
E03C
E01C
E01C
E01C
E01C
E038
FFF0
FFE0
FFF8
E03C
E01E
E00E
E00E
E01E
E03C
FFFC
FFF8
FFE0
ENDCHAR
STARTCHAR 0043
ENCODING 67
SWIDTH 685 0
DWIDTH 20 0
BBX 17 21 2 0
BITMAP
03FC00
0FFF00
1FFF80
3E0380
780080
700000
E00000
E00000
E00000
E00000
E00000
E00000
E00000
E00000
E00000
700000
780080
3E0380
1FFF80
0FFF00
03F800
ENDCHAR
STARTCHAR 0044
ENCODING 68
SWIDTH 754 0
DWIDTH 22 0
BBX 18 21 3 0
BITMAP
FFE000
FFF800
FFFE00
E03F00
E00F00
E00780
E00380
E00380
E003C0
E001C0
E001C0
E001C0
E003C0
E00380
E00380
E00780
E00F00
E03F00
FFFE00
FFF800
FFC000
ENDCHAR
STARTCHAR 0045
ENCODING 69
SWIDTH 617 0
DWIDTH 18 0
BBX 13 21 3 0
BITMAP
FFF8
FFF8
FFF8
E000
E000
E000
E000
E000
E000
FFF8
FFF8
FFF8
E000
E000
E000
E000
E000
E000
FFF8
FFF8
FFF8
ENDCHAR
STARTCHAR 0046
ENCODING 70
SWIDTH 582 0
DWIDTH 17 0
BBX 12 21 3 0
BITMAP
FFF0
FFF0
FFF0
E000
E000
E000
E000
E000
FFE0
FFE0
FFE0
E000
E000
E000
E000
E000
E000
E000
E000
E000
E000
ENDCHAR
STARTCHAR 0047
ENCODING 71
SWIDTH 754 0
DWIDTH 22 0
BBX 18 21 2 0
BITMAP
03FC00
0FFF80
1FFFC0
3E03C0
780040
700000
E00000
E00000
E00000
E01FC0
E01FC0
E01FC0
E001C0
E001C0
E001C0
7001C0
7801C0
3E03C0
1FFF80
0FFF00
03FC00
ENDCHAR
STARTCHAR 0048
ENCODING 72
SWIDTH 754 0
DWIDTH 22 0
BBX 16 21 3 0
BITMAP
E007
E007
E007
E007
E007
E007
E007
E007
E007
FFFF
FFFF
FFFF
E007
E007
E007
E007
E007
E007
E007
E007
E007
ENDCHAR
STARTCHAR 0049
ENCODING 73
SWIDTH 308 0
DWIDTH 9 0
BBX 3 21 3 0
BITMAP
E0
E0
E0
E0
E0
E0
E0
E0
E0
E0
E0
E0
E0
E0
E0
E0
E0
E0
E0
E0
E0
ENDCHAR
STARTCHAR 004A
ENCODING 74
SWIDTH 308 0
DWIDTH 9 0
BBX 8 27 -2 -6
BITMAP
07
07
07
07
07
07
07
07
07
07
07
07
07
07
07
07
07
07
07
07
07
07
0E
1E
FE
FC
F0
ENDCHAR
STARTCHAR 004B
ENCODING 75
SWIDTH 651 0
DWIDTH 19 0
BBX 16 21 3 0
BITMAP
E00E
E01C
E038
E0F0
E1E0
E3C0
E780
EF00
FE00
FC00
FC00
FE00
EF00
E780
E3C0
E1E0
E0F0
E078
E03C
E01E
E00F
ENDCHAR
STARTCHAR 004C
ENCODING 76
SWIDTH 548 0
DWIDTH 16 0
BBX 13 21 3 0
BITMAP
E000
E000
E000
E000
E000
E000
E000
E000
E000
E000
E000
E000
E000
E000
E000
E000
E000
E000
FFF8
FFF8
FFF8
ENDCHAR
STARTCHAR 004D
ENCODING 77
SWIDTH 857 0
DWIDTH 25 0
BBX 19 21 3 0
BITMAP
F001E0
F803E0
F803E0
F803E0
FC07E0
EC06E0
EE0EE0
EE0EE0
E60CE0
E71CE0
E318E0
E318E0
E3B8E0
E1B0E0
E1F0E0
E0F0E0
E0E0E0
E000E0
E000E0
E000E0
E000E0
ENDCHAR
STARTCHAR 004E
ENCODING 78
SWIDTH 754 0
DWIDTH 22 0
BBX 16 21 3 0
BITMAP
F007
F807
F807
FC07
FC07
EE07
EE07
E707
E707
E387
E387
E1C7
E1C7
E0E7
E067
E077
E03F
E03F
E01F
E01F
E00F
ENDCHAR
STARTCHAR 004F
ENCODING 79
SWIDTH 788 0
DWIDTH 23 0
BBX 19 21 2 0
BITMAP
03F800
0FFE00
1FFF00
3E0F80
7803C0
7001C0
F001E0
E000E0
E000E0
E000E0
E000E0
E000E0
E000E0
E000E0
E001E0
7001C0
7803C0
3E0F80
1FFF00
0FFE00
03F800
ENDCHAR
STARTCHAR 0050
ENCODING 80
SWIDTH 582 0
DWIDTH 17 0
BBX 14 21 3 0
BITMAP
FFC0
FFE0
FFF0
E078
E038
E038
E03C
E038
E038
E078
FFF0
FFF0
FFC0
E000
E000
E000
E000
E000
E000
E000
E000
ENDCHAR
STARTCHAR 0051
ENCODING 81
SWIDTH 788 0
DWIDTH 23 0
BBX 19 25 2 -4
BITMAP
03F800
0FFE00
1FFF00
3E0F80
7803C0
7001C0
F001E0
E000E0
E000E0
E000E0
E000E0
E000E0
E000E0
E000E0
E001E0
7001C0
7803C0
3E0F80
1FFF00
0FFC00
03FC00
001E00
000E00
000700
000780
ENDCHAR
STARTCHAR 0052
ENCODING 82
SWIDTH 685 0
DWIDTH 20 0
BBX 16 21 3 0
BITMAP
FFC0
FFF0
FFF8
E078
E038
E038
E038
E038
E078
FFF0
FFE0
FFE0
E0F0
E078
E038
E01C
E01C
E01E
E00E
E00F
E007
ENDCHAR
STARTCHAR 0053
ENCODING 83
SWIDTH 617 0
DWIDTH 18 0
BBX 15 21 2 0
BITMAP
0FF0
3FFC
7FFC
F80C
E000
E000
E000
E000
F800
7FC0
1FF0
03F8
003C
001E
000E
000E
001E
C03C
FFFC
FFF8
3FE0
ENDCHAR
STARTCHAR 0054
ENCODING 84
SWIDTH 617 0
DWIDTH 18 0
BBX 18 21 0 0
BITMAP
FFFFC0
FFFFC0
FFFFC0
01C000
01C000
01C000
01C000
01C000
01C000
01C000
01C000
01C000
01C000
01C000
01C000
01C000
01C000
01C000
01C000
01C000
01C000
ENDCHAR
STARTCHAR 0055
ENCODING 85
SWIDTH 720 0
DWIDTH 21 0
BBX 16 21 3 0
BITMAP
C007
C007
C007
C007
C007
C007
C007
C007
C007
C007
C007
C007
C007
C007
E007
E00E
F00E
783E
7FFC
3FF8
0FE0
ENDCHAR
STARTCHAR 0056
ENCODING 86
SWIDTH 685 0
DWIDTH 20 0
BBX 19 21 0 0
BITMAP
E000E0
7000E0
7000E0
3801C0
3801C0
3801C0
1C0380
1C0380
0C0700
0E0700
0E0700
070E00
070E00
071C00
039C00
039C00
01B800
01F800
01F800
00F000
00F000
ENDCHAR
STARTCHAR 0057
ENCODING 87
SWIDTH 994 0
DWIDTH 29 0
BBX 27 21 1 0
BITMAP
E00E00E0
E01E01C0
601F01C0
701B01C0
701B01C0
703B0380
30338380
38318380
38318380
38718700
1861C700
1C61C700
1C60C700
1CE0CE00
0CC0EE00
0EC0EE00
0EC06E00
0FC07C00
07807C00
07807C00
07803C00
ENDCHAR
STARTCHAR 0058
ENCODING 88
SWIDTH 685 0
DWIDTH 20 0
BBX 18 21 1 0
BITMAP
700380
380700
3C0700
1C0E00
0E1C00
0F1C00
073800
03F000
03F000
01E000
01E000
03F000
03F000
073800
0E1C00
0E1C00
1C0E00
380700
380700
700380
E001C0
ENDCHAR
STARTCHAR 0059
ENCODING 89
SWIDTH 617 0
DWIDTH 18 0
BBX 17 21 0 0
BITMAP
E00380
700380
380700
380E00
1C0E00
0E1C00
0E3800
073800
03F000
03E000
01E000
01C000
01C000
01C000
01C000
01C000
01C000
01C000
01C000
01C000
01C000
ENDCHAR
STARTCHAR 005A
ENCODING 90
SWIDTH 685 0
DWIDTH 20 0
BBX 18 21 1 0
BITMAP
7FFF80
7FFF80
7FFF80
000700
000E00
000C00
001C00
003800
007000
00E000
01C000
018000
038000
070000
0E0000
1C0000
380000
700000
7FFFC0
FFFFC0
FFFFC0
ENDCHAR
STARTCHAR 005B
ENCODING 91
SWIDTH 377 0
DWIDTH 11 0
BBX 7 26 2 -4
BITMAP
FE
FE
FE
E0
E0
E0
E0
E0
E0
E0
E0
E0
E0
E0
E0
E0
E0
E0
E0
E0
E0
E0
E0
FE
FE
FE
ENDCHAR
STARTCHAR 005C
ENCODING 92
SWIDTH 342 0
DWIDTH 10 0
BBX 10 24 0 -3
BITMAP
E000
E000
6000
6000
7000
3000
3000
3800
1800
1800
1C00
0C00
0C00
0E00
0E00
0600
0600
0700
0300
0300
0380
0180
0180
01C0
ENDCHAR
STARTCHAR 005D
ENCODING 93
SWIDTH 377 0
DWIDTH 11 0
BBX 6 26 3 -4
BITMAP
FC
FC
FC
1C
1C
1C
1C
1C
1C
1C
1C
1C
1C
1C
1C
1C
1C
1C
1C
1C
1C
1C
1C
FC
FC
FC
ENDCHAR
STARTCHAR 005E
ENCODING 94
SWIDTH 822 0
DWIDTH 24 0
BBX 17 8 4 13
BITMAP
03C000
07E000
0FF000
1E7800
3C1C00
780E00
700700
C00380
ENDCHAR
STARTCHAR 005F
ENCODING 95
SWIDTH 514 0
DWIDTH 15 0
BBX 15 3 0 -7
BITMAP
FFFE
FFFE
FFFE
ENDCHAR
STARTCHAR 0060
ENCODING 96
SWIDTH 514 0
DWIDTH 15 0
BBX 6 5 3 18
BITMAP
E0
60
30
18
0C
ENDCHAR
STARTCHAR 0061
ENCODING 97
SWIDTH 617 0
DWIDTH 18 0
BBX 13 16 2 0
BITMAP
1F80
7FE0
7FF0
4070
0038
0038
1FF8
7FF8
FFF8
F018
C038
C038
E0F8
FFD8
7F98
3F18
ENDCHAR
STARTCHAR 0062
ENCODING 98
SWIDTH 617 0
DWIDTH 18 0
BBX 14 22 3 0
BITMAP
C000
C000
C000
C000
C000
C000
C7C0
DFE0
DFF0
F878
E038
E01C
C01C
C01C
C01C
C01C
E01C
E038
F878
DFF0
DFE0
C7C0
ENDCHAR
STARTCHAR 0063
ENCODING 99
SWIDTH 548 0
DWIDTH 16 0
BBX 12 16 2 0
BITMAP
0FE0
3FF0
7FF0
7810
F000
E000
E000
C000
C000
E000
E000
F000
7810
7FF0
3FF0
0FE0
ENDCHAR
STARTCHAR 0064
ENCODING 100
SWIDTH 617 0
DWIDTH 18 0
BBX 14 22 2 0
BITMAP
001C
001C
001C
001C
001C
001C
0F9C
3FDC
7FFC
787C
E03C
E01C
C01C
C01C
C01C
E01C
E01C
E03C
787C
7FFC
3FDC
0F9C
ENDCHAR
STARTCHAR 0065
ENCODING 101
SWIDTH 617 0
DWIDTH 18 0
BBX 14 16 2 0
BITMAP
0FC0
3FF0
7FF8
783C
E01C
E00C
FFFC
FFFC
FFFC
C000
E000
E000
780C
7FFC
1FFC
0FF0
ENDCHAR
STARTCHAR 0066
ENCODING 102
SWIDTH 342 0
DWIDTH 10 0
BBX 10 22 1 0
BITMAP
0FC0
1FC0
1FC0
3800
3800
3800
FF80
FF80
FF80
3800
3800
3800
3800
3800
3800
3800
3800
3800
3800
3800
3800
3800
ENDCHAR
STARTCHAR 0067
ENCODING 103
SWIDTH 617 0
DWIDTH 18 0
BBX 14 22 2 -6
BITMAP
0F9C
3FDC
7FFC
787C
E03C
E01C
C01C
C01C
C01C
C01C
E01C
E03C
787C
7FFC
3FDC
0F9C
0018
0038
2078
3FF0
3FE0
1FC0
ENDCHAR
STARTCHAR 0068
ENCODING 104
SWIDTH 617 0
DWIDTH 18 0
BBX 13 22 3 0
BITMAP
C000
C000
C000
C000
C000
C000
C7C0
DFE0
DFF0
F070
E038
E038
C038
C038
C038
C038
C038
C038
C038
C038
C038
C038
ENDCHAR
STARTCHAR 0069
ENCODING 105
SWIDTH 274 0
DWIDTH 8 0
BBX 2 22 3 0
BITMAP
C0
C0
C0
00
00
00
C0
C0
C0
C0
C0
C0
C0
C0
C0
C0
C0
C0
C0
C0
C0
C0
ENDCHAR
STARTCHAR 006A
ENCODING 106
SWIDTH 274 0
DWIDTH 8 0
BBX 6 28 -1 -6
BITMAP
0C
0C
0C
00
00
00
0C
0C
0C
0C
0C
0C
0C
0C
0C
0C
0C
0C
0C
0C
0C
0C
0C
0C
1C
FC
F8
F0
ENDCHAR
STARTCHAR 006B
ENCODING 107
SWIDTH 582 0
DWIDTH 17 0
BBX 13 22 3 0
BITMAP
C000
C000
C000
C000
C000
C000
C078
C0F0
C1E0
C380
C700
CE00
DC00
F800
DC00
CE00
C700
C380
C1C0
C0E0
C070
C038
ENDCHAR
STARTCHAR 006C
ENCODING 108
SWIDTH 274 0
DWIDTH 8 0
BBX 2 22 3 0
BITMAP
C0
C0
C0
C0
C0
C0
C0
C0
C0
C0
C0
C0
C0
C0
C0
C0
C0
C0
C0
C0
C0
C0
ENDCHAR
STARTCHAR 006D
ENCODING 109
SWIDTH 960 0
DWIDTH 28 0
BBX 23 16 3 0
BITMAP
C7C1F0
DFE3F8
DFF7FC
F07E1C
E0780E
E0380E
C0380E
C0380E
C0380E
C0380E
C0380E
C0380E
C0380E
C0380E
C0380E
C0380E
ENDCHAR
STARTCHAR 006E
ENCODING 110
SWIDTH 617 0
DWIDTH 18 0
BBX 13 16 3 0
BITMAP
C7C0
DFE0
DFF0
F070
E038
E038
C038
C038
C038
C038
C038
C038
C038
C038
C038
C038
ENDCHAR
STARTCHAR 006F
ENCODING 111
SWIDTH 617 0
DWIDTH 18 0
BBX 14 16 2 0
BITMAP
0FC0
3FF0
7FF8
7878
E03C
E01C
C01C
C01C
C01C
C01C
E01C
E03C
7878
7FF8
3FF0
0FC0
ENDCHAR
STARTCHAR 0070
ENCODING 112
SWIDTH 617 0
DWIDTH 18 0
BBX 14 22 3 -6
BITMAP
C7C0
DFE0
DFF0
F878
E038
E01C
C01C
C01C
C01C
C01C
E01C
E038
F878
DFF0
DFE0
C7C0
C000
C000
C000
C000
C000
C000
ENDCHAR
STARTCHAR 0071
ENCODING 113
SWIDTH 617 0
DWIDTH 18 0
BBX 14 22 2 -6
BITMAP
0F9C
3FDC
7FFC
787C
E03C
E01C
C01C
C01C
C01C
E01C
E01C
E03C
787C
7FFC
3FDC
0F9C
001C
001C
001C
001C
001C
001C
ENDCHAR
STARTCHAR 0072
ENCODING 114
SWIDTH 411 0
DWIDTH 12 0
BBX 9 16 3 0
BITMAP
C780
DF80
DF80
F800
E000
E000
C000
C000
C000
C000
C000
C000
C000
C000
C000
C000
ENDCHAR
STARTCHAR 0073
ENCODING 115
SWIDTH 514 0
DWIDTH 15 0
BBX 12 16 2 0
BITMAP
3FC0
7FE0
FFE0
E060
C000
C000
F800
3F80
03E0
00E0
0070
8070
C0F0
FFE0
FFC0
3F80
ENDCHAR
STARTCHAR 0074
ENCODING 116
SWIDTH 377 0
DWIDTH 11 0
BBX 10 21 1 0
BITMAP
3000
3000
3000
3000
3000
FFC0
FFC0
FFC0
3000
3000
3000
3000
3000
3000
3000
3000
3000
3800
3FC0
1FC0
0FC0
ENDCHAR
STARTCHAR 0075
ENCODING 117
SWIDTH 617 0
DWIDTH 18 0
BBX 14 16 2 0
BITMAP
E01C
E01C
E01C
E01C
E01C
E01C
E01C
E01C
E01C
E01C
601C
703C
707C
7FFC
3FDC
1F9C
ENDCHAR
STARTCHAR 0076
ENCODING 118
SWIDTH 582 0
DWIDTH 17 0
BBX 15 16 1 0
BITMAP
E00E
E00E
700C
701C
301C
3838
3838
1838
1C70
1C70
0E60
0EE0
06E0
07C0
07C0
03C0
ENDCHAR
STARTCHAR 0077
ENCODING 119
SWIDTH 822 0
DWIDTH 24 0
BBX 21 16 1 0
BITMAP
E07818
607838
607838
70F838
70DC30
30CC70
38CC70
39CC70
398E60
1986E0
1D86E0
1F86E0
1F07C0
0F03C0
0F03C0
0F03C0
ENDCHAR
STARTCHAR 0078
ENCODING 120
SWIDTH 582 0
DWIDTH 17 0
BBX 15 16 1 0
BITMAP
701E
781C
3838
1C70
0E70
0FE0
07C0
0380
07C0
07C0
0EE0
1C70
3838
3838
701C
E00E
ENDCHAR
STARTCHAR 0079
ENCODING 121
SWIDTH 582 0
DWIDTH 17 0
BBX 15 22 1 -6
BITMAP
E00E
E00E
700C
701C
3018
3838
1838
1C30
1C70
0C60
0EE0
06E0
07C0
07C0
0380
0380
0300
0700
0700
7E00
7E00
7800
ENDCHAR
STARTCHAR 007A
ENCODING 122
SWIDTH 514 0
DWIDTH 15 0
BBX 13 16 1 0
BITMAP
7FF8
7FF8
7FF8
0030
0060
00C0
0180
0300
0600
0C00
1800
3800
7000
FFF8
FFF8
FFF8
ENDCHAR
STARTCHAR 007B
ENCODING 123
SWIDTH 617 0
DWIDTH 18 0
BBX 11 27 4 -5
BITMAP
03E0
07E0
0FE0
0E00
0E00
0E00
0E00
0E00
0E00
0E00
1C00
FC00
F000
FC00
1C00
0C00
0E00
0E00
0E00
0E00
0E00
0E00
0E00
0E00
0FE0
07E0
03E0
ENDCHAR
STARTCHAR 007C
ENCODING 124
SWIDTH 342 0
DWIDTH 10 0
BBX 2 29 4 -7
BITMAP
C0
C0
C0
C0
C0
C0
C0
C0
C0
C0
C0
C0
C0
C0
C0
C0
C0
C0
C0
C0
C0
C0
C0
C0
C0
C0
C0
C0
C0
ENDCHAR
STARTCHAR 007D
ENCODING 125
SWIDTH 617 0
DWIDTH 18 0
BBX 11 27 4 -5
BITMAP
F000
FC00
FC00
1C00
0C00
0C00
0C00
0C00
0C00
0E00
0E00
07E0
01E0
07E0
0F00
0E00
0E00
0C00
0C00
0C00
0C00
0C00
0C00
1C00
FC00
F800
F000
ENDCHAR
STARTCHAR 007E
ENCODING 126
SWIDTH 822 0
DWIDTH 24 0
BBX 18 4 3 7
BITMAP
1F0040
7FE1C0
E1FF80
803F00
ENDCHAR
STARTCHAR 00A0
ENCODING 160
SWIDTH 308 0
DWIDTH 9 0
BBX 0 0 0 0
BITMAP
ENDCHAR
STARTCHAR 00A1
ENCODING 161
SWIDTH 411 0
DWIDTH 12 0
BBX 3 21 4 -5
BITMAP
E0
E0
E0
E0
00
00
00
60
60
60
E0
E0
E0
E0
E0
E0
E0
E0
E0
E0
E0
ENDCHAR
STARTCHAR 00A2
ENCODING 162
SWIDTH 617 0
DWIDTH 18 0
BBX 13 24 2 -4
BITMAP
0080
0080
0080
0080
07F0
1FF8
3FF8
7C88
7080
7080
6080
E080
E080
6080
7080
7080
7C88
3FF8
1FF8
07F0
0080
0080
0080
0080
ENDCHAR
STARTCHAR 00A3
ENCODING 163
SWIDTH 617 0
DWIDTH 18 0
BBX 14 21 2 0
BITMAP
03F0
07FC
0FFC
0E0C
1C00
1C00
1C00
1C00
1C00
FFF0
FFF0
FFF0
1C00
1C00
1C00
1C00
1C00
1C00
FFFC
FFFC
FFFC
ENDCHAR
STARTCHAR 00A4
ENCODING 164
SWIDTH 617 0
DWIDTH 18 0
BBX 15 16 2 1
BITMAP
8004
C00E
E79E
7FFC
3FF8
3870
3018
6018
6018
3018
3870
3FF8
7FFC
E79E
C00E
8004
ENDCHAR
STARTCHAR 00A5
ENCODING 165
SWIDTH 617 0
DWIDTH 18 0
BBX 16 21 1 0
BITMAP
E007
7006
300E
380C
181C
1C18
0C38
0E70
7E7F
7FFF
03E0
03C0
01C0
7FFF
7FFF
01C0
01C0
01C0
01C0
01C0
01C0
ENDCHAR
STARTCHAR 00A6
ENCODING 166
SWIDTH 342 0
DWIDTH 10 0
BBX 2 26 4 -5
BITMAP
C0
C0
C0
C0
C0
C0
C0
C0
C0
C0
C0
00
00
00
00
C0
C0
C0
C0
C0
C0
C0
C0
C0
C0
C0
ENDCHAR
STARTCHAR 00A7
ENCODING 167
SWIDTH 514 0
DWIDTH 15 0
BBX 12 24 1 -3
BITMAP
0F80
3FE0
3860
7020
7000
7000
3800
1E00
3F80
63C0
E0E0
E070
6030
7830
3E70
0FE0
03C0
01E0
00E0
0060
40E0
70E0
7FC0
1F80
ENDCHAR
STARTCHAR 00A8
ENCODING 168
SWIDTH 514 0
DWIDTH 15 0
BBX 8 3 3 19
BITMAP
E3
E3
E3
ENDCHAR
STARTCHAR 00A9
ENCODING 169
SWIDTH 994 0
DWIDTH 29 0
BBX 21 21 4 0
BITMAP
01FC00
070700
0C0180
100040
20FC20
638230
470010
C60018
CE0018
8E0018
8E0008
8E0018
CE0018
C60018
470010
638230
20FC60
100040
0C0180
070700
01FC00
ENDCHAR
STARTCHAR 00AA
ENCODING 170
SWIDTH 480 0
DWIDTH 14 0
BBX 10 16 2 5
BITMAP
3E00
FF00
C380
0180
00C0
3FC0
FFC0
C0C0
C1C0
C3C0
FEC0
7CC0
0000
0000
FFC0
FFC0
ENDCHAR
STARTCHAR 00AB
ENCODING 171
SWIDTH 617 0
DWIDTH 18 0
BBX 13 13 2 2
BITMAP
0208
0618
0E38
1C70
38E0
71C0
E380
71C0
38E0
1C70
0E38
0618
0208
ENDCHAR
STARTCHAR 00AC
ENCODING 172
SWIDTH 822 0
DWIDTH 24 0
BBX 18 8 3 4
BITMAP
FFFFC0
FFFFC0
0000C0
0000C0
0000C0
0000C0
0000C0
0000C0
ENDCHAR
STARTCHAR 00AD
ENCODING 173
SWIDTH 342 0
DWIDTH 10 0
BBX 8 2 1 7
BITMAP
FF
FF
ENDCHAR
STARTCHAR 00AE
ENCODING 174
SWIDTH 994 0
DWIDTH 29 0
BBX 21 21 4 0
BITMAP
01FC00
070700
0C0180
100040
23F820
630E30
430610
C30618
C30618
830E18
83F808
831818
C31C18
C30C18
430E10
630630
230760
100040
0C0180
070700
01FC00
ENDCHAR
STARTCHAR 00AF
ENCODING 175
SWIDTH 514 0
DWIDTH 15 0
BBX 8 3 3 19
BITMAP
FF
FF
FF
ENDCHAR
STARTCHAR 00B0
ENCODING 176
SWIDTH 514 0
DWIDTH 15 0
BBX 9 9 3 12
BITMAP
3C00
7F00
E300
C180
C180
C180
E300
7F00
3C00
ENDCHAR
STARTCHAR 00B1
ENCODING 177
SWIDTH 822 0
DWIDTH 24 0
BBX 18 19 3 0
BITMAP
00C000
00C000
00C000
00C000
00C000
00C000
FFFFC0
FFFFC0
00C000
00C000
00C000
00C000
00C000
00C000
000000
000000
000000
FFFFC0
FFFFC0
ENDCHAR
STARTCHAR 00B2
ENCODING 178
SWIDTH 411 0
DWIDTH 12 0
BBX 9 12 1 9
BITMAP
3E00
FF00
C380
0180
0300
0300
0600
1C00
3800
6000
FF80
FF80
ENDCHAR
STARTCHAR 00B3
ENCODING 179
SWIDTH 411 0
DWIDTH 12 0
BBX 9 12 1 9
BITMAP
3E00
7F00
4380
0180
0380
1F00
1F00
0380
0180
8380
FF80
7E00
ENDCHAR
STARTCHAR 00B4
ENCODING 180
SWIDTH 514 0
DWIDTH 15 0
BBX 6 5 6 18
BITMAP
1C
38
70
E0
C0
ENDCHAR
STARTCHAR 00B5
ENCODING 181
SWIDTH 617 0
DWIDTH 18 0
BBX 16 22 2 -6
BITMAP
E01C
E01C
E01C
E01C
E01C
E01C
E01C
E01C
E01C
E01C
E01C
E01C
F03C
FFFC
EFCF
E78E
E000
E000
E000
E000
E000
E000
ENDCHAR
STARTCHAR 00B6
ENCODING 182
SWIDTH 617 0
DWIDTH 18 0
BBX 13 24 2 -3
BITMAP
0FF8
3FF8
7F98
7F98
FF98
FF98
FF98
FF98
7F98
7F98
3F98
0F98
0198
0198
0198
0198
0198
0198
0198
0198
0198
0198
0198
0198
ENDCHAR
STARTCHAR 00B7
ENCODING 183
SWIDTH 308 0
DWIDTH 9 0
BBX 3 4 3 8
BITMAP
E0
E0
E0
E0
ENDCHAR
STARTCHAR 00B8
ENCODING 184
SWIDTH 514 0
DWIDTH 15 0
BBX 6 6 4 -6
BITMAP
18
08
0C
0C
FC
F8
ENDCHAR
STARTCHAR 00B9
ENCODING 185
SWIDTH 411 0
DWIDTH 12 0
BBX 8 12 2 9
BITMAP
38
F8
D8
18
18
18
18
18
18
18
FF
FF
ENDCHAR
STARTCHAR 00BA
ENCODING 186
SWIDTH 480 0
DWIDTH 14 0
BBX 11 16 1 5
BITMAP
1F00
3FC0
70C0
60E0
E060
E060
E060
E060
60E0
70E0
3FC0
1F00
0000
0000
7FE0
7FE0
ENDCHAR
STARTCHAR 00BB
ENCODING 187
SWIDTH 617 0
DWIDTH 18 0
BBX 13 13 3 2
BITMAP
8400
8300
E380
71C0
38E0
1C70
0C38
1C70
38E0
71C0
E380
8300
8400
ENDCHAR
STARTCHAR 00BC
ENCODING 188
SWIDTH 960 0
DWIDTH 28 0
BBX 25 21 2 0
BITMAP
38006000
F8006000
D800C000
1801C000
18018000
18030000
18070000
18060000
180C0000
180C0600
FF180E00
FF381E00
00301600
00602600
00E06600
00C0C600
01808600
0381FF80
0301FF80
07000600
06000600
ENDCHAR
STARTCHAR 00BD
ENCODING 189
SWIDTH 960 0
DWIDTH 28 0
BBX 24 21 2 0
BITMAP
380060
F80060
D800C0
1801C0
180180
180300
180700
180600
180C00
180C7C
FF18FF
FF3887
003003
006003
00E006
00C00C
018018
038030
0300E0
0700FF
0600FF
ENDCHAR
STARTCHAR 00BE
ENCODING 190
SWIDTH 960 0
DWIDTH 28 0
BBX 26 21 1 0
BITMAP
3E003000
7F003000
43806000
0180E000
0380C000
1F018000
1F038000
03830000
01860000
83860300
FF8C0700
7E1C0F00
00180B00
00301300
00703300
00606300
00C04300
01C0FFC0
0180FFC0
03800300
03000300
ENDCHAR
STARTCHAR 00BF
ENCODING 191
SWIDTH 514 0
DWIDTH 15 0
BBX 11 22 2 -6
BITMAP
0700
0700
0700
0700
0000
0000
0700
0700
0700
0700
0E00
1E00
3C00
7000
7000
E000
E000
E020
F060
7FE0
3FE0
1F80
ENDCHAR
STARTCHAR 00C0
ENCODING 192
SWIDTH 685 0
DWIDTH 20 0
BBX 19 27 0 0
BITMAP
018000
00C000
00E000
007000
000000
000000
00F000
00F000
01F800
01F800
019800
039C00
039C00
070C00
070E00
060E00
0E0700
0E0700
1C0300
1FFF80
1FFF80
3FFF80
3801C0
3801C0
7000E0
7000E0
E000E0
ENDCHAR
STARTCHAR 00C1
ENCODING 193
SWIDTH 685 0
DWIDTH 20 0
BBX 19 27 0 0
BITMAP
003800
003000
006000
00C000
000000
000000
00F000
00F000
01F800
01F800
019800
039C00
039C00
070C00
070E00
060E00
0E0700
0E0700
1C0300
1FFF80
1FFF80
3FFF80
3801C0
3801C0
7000E0
7000E0
E000E0
ENDCHAR
STARTCHAR 00C2
ENCODING 194
SWIDTH 685 0
DWIDTH 20 0
BBX 19 27 0 0
BITMAP
00F000
01F000
019800
030C00
000000
000000
00F000
00F000
01F800
01F800
019800
039C00
039C00
070C00
070E00
060E00
0E0700
0E0700
1C0300
1FFF80
1FFF80
3FFF80
3801C0
3801C0
7000E0
7000E0
E000E0
ENDCHAR
STARTCHAR 00C3
ENCODING 195
SWIDTH 685 0
DWIDTH 20 0
BBX 19 26 0 0
BITMAP
03C600
07FC00
063800
000000
000000
00F000
00F000
01F800
01F800
019800
039C00
039C00
070C00
070E00
060E00
0E0700
0E0700
1C0300
1FFF80
1FFF80
3FFF80
3801C0
3801C0
7000E0
7000E0
E000E0
ENDCHAR
STARTCHAR 00C4
ENCODING 196
SWIDTH 685 0
DWIDTH 20 0
BBX 19 26 0 0
BITMAP
039C00
039C00
039C00
000000
000000
00F000
00F000
01F800
01F800
019800
039C00
039C00
070C00
070E00
060E00
0E0700
0E0700
1C0300
1FFF80
1FFF80
3FFF80
3801C0
3801C0
7000E0
7000E0
E000E0
ENDCHAR
STARTCHAR 00C5
ENCODING 197
SWIDTH 685 0
DWIDTH 20 0
BBX 19 27 0 0
BITMAP
00F000
01F800
039C00
030C00
030C00
039800
01F800
00F000
01F800
01F800
039800
039C00
031C00
070C00
070E00
060E00
0E0700
0E0700
1C0300
1FFF80
1FFF80
3FFFC0
3801C0
3801C0
7000E0
7000E0
E000E0
ENDCHAR
STARTCHAR 00C6
ENCODING 198
SWIDTH 960 0
DWIDTH 28 0
BBX 26 21 0 0
BITMAP
007FFFC0
00FFFFC0
00FFFFC0
01E70000
01C70000
01C70000
03870000
03870000
07070000
0707FFC0
0607FFC0
0E07FFC0
0E070000
1FFF0000
1FFF0000
3FFF0000
38070000
38070000
7007FFC0
7007FFC0
E007FFC0
ENDCHAR
STARTCHAR 00C7
ENCODING 199
SWIDTH 685 0
DWIDTH 20 0
BBX 17 27 2 -6
BITMAP
03FC00
0FFF00
1FFF80
3E0380
780080
700000
E00000
E00000
E00000
E00000
E00000
E00000
E00000
E00000
E00000
700000
780080
3E0380
1FFF80
0FFF00
03F800
006000
003000
003000
003000
03F000
03E000
ENDCHAR
STARTCHAR 00C8
ENCODING 200
SWIDTH 617 0
DWIDTH 18 0
BBX 13 27 3 0
BITMAP
1C00
0E00
0600
0300
0000
0000
FFF8
FFF8
FFF8
E000
E000
E000
E000
E000
E000
FFF8
FFF8
FFF8
E000
E000
E000
E000
E000
E000
FFF8
FFF8
FFF8
ENDCHAR
STARTCHAR 00C9
ENCODING 201
SWIDTH 617 0
DWIDTH 18 0
BBX 13 27 3 0
BITMAP
0180
0380
0300
0600
0000
0000
FFF8
FFF8
FFF8
E000
E000
E000
E000
E000
E000
FFF8
FFF8
FFF8
E000
E000
E000
E000
E000
E000
FFF8
FFF8
FFF8
ENDCHAR
STARTCHAR 00CA
ENCODING 202
SWIDTH 617 0
DWIDTH 18 0
BBX 13 27 3 0
BITMAP
0700
0D80
19C0
18C0
0000
0000
FFF8
FFF8
FFF8
E000
E000
E000
E000
E000
E000
FFF8
FFF8
FFF8
E000
E000
E000
E000
E000
E000
FFF8
FFF8
FFF8
ENDCHAR
STARTCHAR 00CB
ENCODING 203
SWIDTH 617 0
DWIDTH 18 0
BBX 13 26 3 0
BITMAP
38E0
38E0
38E0
0000
0000
FFF8
FFF8
FFF8
E000
E000
E000
E000
E000
E000
FFF8
FFF8
FFF8
E000
E000
E000
E000
E000
E000
FFF8
FFF8
FFF8
ENDCHAR
STARTCHAR 00CC
ENCODING 204
SWIDTH 308 0
DWIDTH 9 0
BBX 5 27 1 0
BITMAP
E0
70
30
18
00
00
38
38
38
38
38
38
38
38
38
38
38
38
38
38
38
38
38
38
38
38
38
ENDCHAR
STARTCHAR 00CD
ENCODING 205
SWIDTH 308 0
DWIDTH 9 0
BBX 4 27 3 0
BITMAP
30
60
E0
C0
00
00
E0
E0
E0
E0
E0
E0
E0
E0
E0
E0
E0
E0
E0
E0
E0
E0
E0
E0
E0
E0
E0
ENDCHAR
STARTCHAR 00CE
ENCODING 206
SWIDTH 308 0
DWIDTH 9 0
BBX 8 27 0 0
BITMAP
1C
3E
67
C3
00
00
1C
1C
1C
1C
1C
1C
1C
1C
1C
1C
1C
1C
1C
1C
1C
1C
1C
1C
1C
1C
1C
ENDCHAR
STARTCHAR 00CF
ENCODING 207
SWIDTH 308 0
DWIDTH 9 0
BBX 9 26 0 0
BITMAP
E380
E380
E380
0000
0000
1C00
1C00
1C00
1C00
1C00
1C00
1C00
1C00
1C00
1C00
1C00
1C00
1C00
1C00
1C00
1C00
1C00
1C00
1C00
1C00
1C00
ENDCHAR
STARTCHAR 00D0
ENCODING 208
SWIDTH 754 0
DWIDTH 22 0
BBX 21 21 0 0
BITMAP
1FFC00
1FFF00
1FFFC0
1C07E0
1C01E0
1C00F0
1C0070
1C0070
1C0038
FFE038
FFE038
FFE038
1C0038
1C0078
1C0070
1C00F0
1C01E0
1C07E0
1FFFC0
1FFF00
1FF800
ENDCHAR
STARTCHAR 00D1
ENCODING 209
SWIDTH 754 0
DWIDTH 22 0
BBX 16 26 3 0
BITMAP
0F10
1FF0
18E0
0000
0000
F007
F807
F807
FC07
FC07
EE07
EE07
E707
E707
E387
E387
E1C7
E1C7
E0E7
E067
E077
E03F
E03F
E01F
E01F
E00F
ENDCHAR
STARTCHAR 00D2
ENCODING 210
SWIDTH 788 0
DWIDTH 23 0
BBX 19 27 2 0
BITMAP
038000
01C000
00C000
006000
000000
000000
03F800
0FFE00
1FFF00
3E0F80
7803C0
7001C0
F001E0
E000E0
E000E0
E000E0
E000E0
E000E0
E000E0
E000E0
E001E0
7001C0
7803C0
3E0F80
1FFF00
0FFE00
03F800
ENDCHAR
STARTCHAR 00D3
ENCODING 211
SWIDTH 788 0
DWIDTH 23 0
BBX 19 27 2 0
BITMAP
003000
007000
00E000
00C000
000000
000000
03F800
0FFE00
1FFF00
3E0F80
7803C0
7001C0
F001E0
E000E0
E000E0
E000E0
E000E0
E000E0
E000E0
E000E0
E001E0
7001C0
7803C0
3E0F80
1FFF00
0FFE00
03F800
ENDCHAR
STARTCHAR 00D4
ENCODING 212
SWIDTH 788 0
DWIDTH 23 0
BBX 19 27 2 0
BITMAP
00E000
01B000
033800
071800
000000
000000
03F800
0FFE00
1FFF00
3E0F80
7803C0
7001C0
F001E0
E000E0
E000E0
E000E0
E000E0
E000E0
E000E0
E000E0
E001E0
7001C0
7803C0
3E0F80
1FFF00
0FFE00
03F800
ENDCHAR
STARTCHAR 00D5
ENCODING 213
SWIDTH 788 0
DWIDTH 23 0
BBX 19 26 2 0
BITMAP
03CC00
07FC00
067800
000000
000000
03F800
0FFE00
1FFF00
3E0F80
7803C0
7001C0
F001E0
E000E0
E000E0
E000E0
E000E0
E000E0
E000E0
E000E0
E001E0
7001C0
7803C0
3E0F80
1FFF00
0FFE00
03F800
ENDCHAR
STARTCHAR 00D6
ENCODING 214
SWIDTH 788 0
DWIDTH 23 0
BBX 19 26 2 0
BITMAP
071C00
071C00
071C00
000000
000000
03F800
0FFE00
1FFF00
3E0F80
7803C0
7001C0
F001E0
E000E0
E000E0
E000E0
E000E0
E000E0
E000E0
E000E0
E001E0
7001C0
7803C0
3E0F80
1FFF00
0FFE00
03F800
ENDCHAR
STARTCHAR 00D7
ENCODING 215
SWIDTH 822 0
DWIDTH 24 0
BBX 16 16 4 1
BITMAP
4002
E007
700E
381C
1C38
0E70
07E0
03C0
03C0
07E0
0E70
1C38
381C
700E
E007
4002
ENDCHAR
STARTCHAR 00D8
ENCODING 216
SWIDTH 788 0
DWIDTH 23 0
BBX 20 21 1 0
BITMAP
01F830
07FE70
0FFF60
1F07C0
3C01C0
7803E0
7807E0
700E70
701C70
703870
707070
70E070
71C070
738070
7700F0
3E00E0
3C01E0
3F07C0
3FFF80
63FF00
E0FC00
ENDCHAR
STARTCHAR 00D9
ENCODING 217
SWIDTH 720 0
DWIDTH 21 0
BBX 16 27 3 0
BITMAP
0600
0700
0380
0180
0000
0000
C007
C007
C007
C007
C007
C007
C007
C007
C007
C007
C007
C007
C007
C007
E007
E00E
F00E
783E
7FFC
3FF8
0FE0
ENDCHAR
STARTCHAR 00DA
ENCODING 218
SWIDTH 720 0
DWIDTH 21 0
BBX 16 27 3 0
BITMAP
00E0
01C0
0180
0300
0000
0000
C007
C007
C007
C007
C007
C007
C007
C007
C007
C007
C007
C007
C007
C007
E007
E00E
F00E
783E
7FFC
3FF8
0FE0
ENDCHAR
STARTCHAR 00DB
ENCODING 219
SWIDTH 720 0
DWIDTH 21 0
BBX 16 27 3 0
BITMAP
0380
06C0
0E60
0C30
0000
0000
C007
C007
C007
C007
C007
C007
C007
C007
C007
C007
C007
C007
C007
C007
E007
E00E
F00E
783E
7FFC
3FF8
0FE0
ENDCHAR
STARTCHAR 00DC
ENCODING 220
SWIDTH 720 0
DWIDTH 21 0
BBX 16 26 3 0
BITMAP
1C70
1C70
1C70
0000
0000
C007
C007
C007
C007
C007
C007
C007
C007
C007
C007
C007
C007
C007
C007
E007
E00E
F00E
783E
7FFC
3FF8
0FE0
ENDCHAR
STARTCHAR 00DD
ENCODING 221
SWIDTH 617 0
DWIDTH 18 0
BBX 17 27 0 0
BITMAP
007000
006000
00C000
018000
000000
000000
E00380
700380
380700
380E00
1C0E00
0E1C00
0E3800
073800
03F000
03E000
01E000
01C000
01C000
01C000
01C000
01C000
01C000
01C000
01C000
01C000
01C000
ENDCHAR
STARTCHAR 00DE
ENCODING 222
SWIDTH 617 0
DWIDTH 18 0
BBX 14 21 3 0
BITMAP
E000
E000
E000
E000
FFC0
FFF0
FFF0
E078
E038
E038
E03C
E038
E038
E078
FFF0
FFF0
FFC0
E000
E000
E000
E000
ENDCHAR
STARTCHAR 00DF
ENCODING 223
SWIDTH 617 0
DWIDTH 18 0
BBX 14 22 3 0
BITMAP
1F80
7FC0
7FE0
F0F0
E070
C030
C1F0
C380
C700
C700
C700
C380
C1E0
C0F0
C038
C01C
C01C
C01C
C83C
CFF8
CFF8
C7E0
ENDCHAR
STARTCHAR 00E0
ENCODING 224
SWIDTH 617 0
DWIDTH 18 0
BBX 13 23 2 0
BITMAP
3800
1C00
0C00
0600
0300
0000
0000
1F80
7FE0
7FF0
4070
0038
0038
1FF8
7FF8
FFF8
F018
C038
C038
E0F8
FFD8
7F98
3F18
ENDCHAR
STARTCHAR 00E1
ENCODING 225
SWIDTH 617 0
DWIDTH 18 0
BBX 13 23 2 0
BITMAP
00E0
01C0
0380
0300
0600
0000
0000
1F80
7FE0
7FF0
4070
0038
0038
1FF8
7FF8
FFF8
F018
C038
C038
E0F8
FFD8
7F98
3F18
ENDCHAR
STARTCHAR 00E2
ENCODING 226
SWIDTH 617 0
DWIDTH 18 0
BBX 13 23 2 0
BITMAP
0700
0F80
0D80
18C0
3060
0000
0000
1F80
7FE0
7FF0
4070
0038
0038
1FF8
7FF8
FFF8
F018
C038
C038
E0F8
FFD8
7F98
3F18
ENDCHAR
STARTCHAR 00E3
ENCODING 227
SWIDTH 617 0
DWIDTH 18 0
BBX 13 23 2 0
BITMAP
1C60
3E60
33E0
31C0
0000
0000
0000
1F80
7FE0
7FF0
4070
0038
0038
1FF8
7FF8
FFF8
F018
C038
C038
E0F8
FFD8
7F98
3F18
ENDCHAR
STARTCHAR 00E4
ENCODING 228
SWIDTH 617 0
DWIDTH 18 0
BBX 13 22 2 0
BITMAP
38E0
38E0
38E0
0000
0000
0000
1F80
7FE0
7FF0
4070
0038
0038
1FF8
7FF8
FFF8
F018
C038
C038
E0F8
FFD8
7F98
3F18
ENDCHAR
STARTCHAR 00E5
ENCODING 229
SWIDTH 617 0
DWIDTH 18 0
BBX 13 26 2 0
BITMAP
0700
1F80
18C0
10C0
10C0
18C0
1F80
0700
0000
0000
1F80
7FE0
7FF0
4070
0038
0038
1FF8
7FF8
FFF8
F018
C038
C038
E0F8
FFD8
7F98
3F18
ENDCHAR
STARTCHAR 00E6
ENCODING 230
SWIDTH 960 0
DWIDTH 28 0
BBX 25 16 2 0
BITMAP
1F81F800
7FE7FC00
7FFFFE00
407E0700
003C0300
00380380
1FFFFF80
7FFFFF80
FFFFFF80
F0380000
C0380000
C03C0100
E0FF0700
FFEFFF00
7FC7FF00
1F01F800
ENDCHAR
STARTCHAR 00E7
ENCODING 231
SWIDTH 548 0
DWIDTH 16 0
BBX 12 22 2 -6
BITMAP
0FE0
3FF0
7FF0
7810
F000
E000
E000
C000
C000
E000
E000
F000
7810
7FF0
3FF0
0FE0
0180
00C0
00C0
00C0
0FC0
0F80
ENDCHAR
STARTCHAR 00E8
ENCODING 232
SWIDTH 617 0
DWIDTH 18 0
BBX 14 23 2 0
BITMAP
1C00
0C00
0600
0300
0180
0000
0000
0FC0
3FF0
7FF8
783C
E01C
E00C
FFFC
FFFC
FFFC
C000
E000
E000
780C
7FFC
1FFC
0FF0
ENDCHAR
STARTCHAR 00E9
ENCODING 233
SWIDTH 617 0
DWIDTH 18 0
BBX 14 23 2 0
BITMAP
0070
00E0
01C0
0380
0300
0000
0000
0FC0
3FF0
7FF8
783C
E01C
E00C
FFFC
FFFC
FFFC
C000
E000
E000
780C
7FFC
1FFC
0FF0
ENDCHAR
STARTCHAR 00EA
ENCODING 234
SWIDTH 617 0
DWIDTH 18 0
BBX 14 23 2 0
BITMAP
0380
0780
0EC0
0C60
1860
0000
0000
0FC0
3FF0
7FF8
783C
E01C
E00C
FFFC
FFFC
FFFC
C000
E000
E000
780C
7FFC
1FFC
0FF0
ENDCHAR
STARTCHAR 00EB
ENCODING 235
SWIDTH 617 0
DWIDTH 18 0
BBX 14 22 2 0
BITMAP
1C60
1C60
1C60
0000
0000
0000
0FC0
3FF0
7FF8
783C
E01C
E00C
FFFC
FFFC
FFFC
C000
E000
E000
780C
7FFC
1FFC
0FF0
ENDCHAR
STARTCHAR 00EC
ENCODING 236
SWIDTH 274 0
DWIDTH 8 0
BBX 6 23 0 0
BITMAP
C0
60
70
38
1C
00
00
18
18
18
18
18
18
18
18
18
18
18
18
18
18
18
18
ENDCHAR
STARTCHAR 00ED
ENCODING 237
SWIDTH 274 0
DWIDTH 8 0
BBX 6 23 2 0
BITMAP
0C
18
38
70
E0
00
00
60
60
60
60
60
60
60
60
60
60
60
60
60
60
60
60
ENDCHAR
STARTCHAR 00EE
ENCODING 238
SWIDTH 274 0
DWIDTH 8 0
BBX 8 23 0 0
BITMAP
18
3C
66
67
C3
00
00
18
18
18
18
18
18
18
18
18
18
18
18
18
18
18
18
ENDCHAR
STARTCHAR 00EF
ENCODING 239
SWIDTH 274 0
DWIDTH 8 0
BBX 8 22 0 0
BITMAP
E7
E7
E7
00
00
00
18
18
18
18
18
18
18
18
18
18
18
18
18
18
18
18
ENDCHAR
STARTCHAR 00F0
ENCODING 240
SWIDTH 617 0
DWIDTH 18 0
BBX 14 22 2 0
BITMAP
1C00
0E78
07C0
3F80
71C0
00E0
0FF0
3FF0
7FF8
7838
F01C
E01C
C01C
C01C
C01C
C01C
E01C
E03C
7878
7FF0
3FE0
0FC0
ENDCHAR
STARTCHAR 00F1
ENCODING 241
SWIDTH 617 0
DWIDTH 18 0
BBX 13 23 3 0
BITMAP
1C60
3E60
33E0
31C0
0000
0000
0000
C7C0
DFE0
DFF0
F070
E038
E038
C038
C038
C038
C038
C038
C038
C038
C038
C038
C038
ENDCHAR
STARTCHAR 00F2
ENCODING 242
SWIDTH 617 0
DWIDTH 18 0
BBX 14 23 2 0
BITMAP
3800
1C00
0E00
0700
0300
0000
0000
0FC0
3FF0
7FF8
7878
E03C
E01C
C01C
C01C
C01C
C01C
E01C
E03C
7878
7FF8
3FF0
0FC0
ENDCHAR
STARTCHAR 00F3
ENCODING 243
SWIDTH 617 0
DWIDTH 18 0
BBX 14 23 2 0
BITMAP
00E0
00C0
0180
0300
0700
0000
0000
0FC0
3FF0
7FF8
7878
E03C
E01C
C01C
C01C
C01C
C01C
E01C
E03C
7878
7FF8
3FF0
0FC0
ENDCHAR
STARTCHAR 00F4
ENCODING 244
SWIDTH 617 0
DWIDTH 18 0
BBX 14 23 2 0
BITMAP
0700
0780
0DC0
1CC0
1860
0000
0000
0FC0
3FF0
7FF8
7878
E03C
E01C
C01C
C01C
C01C
C01C
E01C
E03C
7878
7FF8
3FF0
0FC0
ENDCHAR
STARTCHAR 00F5
ENCODING 245
SWIDTH 617 0
DWIDTH 18 0
BBX 14 23 2 0
BITMAP
1C30
1E60
33E0
31C0
0000
0000
0000
0FC0
3FF0
7FF8
7878
E03C
E01C
C01C
C01C
C01C
C01C
E01C
E03C
7878
7FF8
3FF0
0FC0
ENDCHAR
STARTCHAR 00F6
ENCODING 246
SWIDTH 617 0
DWIDTH 18 0
BBX 14 22 2 0
BITMAP
1CE0
1CE0
1CE0
0000
0000
0000
0FC0
3FF0
7FF8
7878
E03C
E01C
C01C
C01C
C01C
C01C
E01C
E03C
7878
7FF8
3FF0
0FC0
ENDCHAR
STARTCHAR 00F7
ENCODING 247
SWIDTH 822 0
DWIDTH 24 0
BBX 18 12 3 3
BITMAP
01E000
01E000
01E000
000000
000000
FFFFC0
FFFFC0
000000
000000
01E000
01E000
01E000
ENDCHAR
STARTCHAR 00F8
ENCODING 248
SWIDTH 617 0
DWIDTH 18 0
BBX 16 18 1 -1
BITMAP
0002
07C7
1FF6
3FFC
7C3C
703C
707E
70EE
61CE
638E
670E
7C0E
781E
3C3C
3FFC
6FF8
C7E0
4000
ENDCHAR
STARTCHAR 00F9
ENCODING 249
SWIDTH 617 0
DWIDTH 18 0
BBX 14 23 2 0
BITMAP
1800
0C00
0E00
0700
0380
0000
0000
E01C
E01C
E01C
E01C
E01C
E01C
E01C
E01C
E01C
E01C
601C
703C
707C
7FFC
3FDC
1F9C
ENDCHAR
STARTCHAR 00FA
ENCODING 250
SWIDTH 617 0
DWIDTH 18 0
BBX 14 23 2 0
BITMAP
0060
00C0
0180
0380
0700
0000
0000
E01C
E01C
E01C
E01C
E01C
E01C
E01C
E01C
E01C
E01C
601C
703C
707C
7FFC
3FDC
1F9C
ENDCHAR
STARTCHAR 00FB
ENCODING 251
SWIDTH 617 0
DWIDTH 18 0
BBX 14 23 2 0
BITMAP
0300
0780
0CC0
1CC0
1860
0000
0000
E01C
E01C
E01C
E01C
E01C
E01C
E01C
E01C
E01C
E01C
601C
703C
707C
7FFC
3FDC
1F9C
ENDCHAR
STARTCHAR 00FC
ENCODING 252
SWIDTH 617 0
DWIDTH 18 0
BBX 14 22 2 0
BITMAP
1CE0
1CE0
1CE0
0000
0000
0000
E01C
E01C
E01C
E01C
E01C
E01C
E01C
E01C
E01C
E01C
601C
703C
707C
7FFC
3FDC
1F9C
ENDCHAR
STARTCHAR 00FD
ENCODING 253
SWIDTH 582 0
DWIDTH 17 0
BBX 15 29 1 -6
BITMAP
0070
00E0
00C0
0180
0300
0000
0000
E00E
E00E
700C
701C
3018
3838
1838
1C30
1C70
0C60
0EE0
06E0
07C0
07C0
0380
0380
0300
0700
0700
7E00
7E00
7800
ENDCHAR
STARTCHAR 00FE
ENCODING 254
SWIDTH 617 0
DWIDTH 18 0
BBX 14 28 3 -6
BITMAP
C000
C000
C000
C000
C000
C000
C7C0
DFE0
DFF0
F878
E038
E01C
C01C
C01C
C01C
C01C
E01C
E038
F878
DFF0
DFE0
C7C0
C000
C000
C000
C000
C000
C000
ENDCHAR
STARTCHAR 00FF
ENCODING 255
SWIDTH 582 0
DWIDTH 17 0
BBX 15 28 1 -6
BITMAP
1C70
1C70
1C70
0000
0000
0000
E00E
E00E
700C
701C
3018
3838
1838
1C30
1C70
0C60
0EE0
06E0
07C0
07C0
0380
0380
0300
0700
0700
7E00
7E00
7800
ENDCHAR
STARTCHAR 0100
ENCODING 256
SWIDTH 685 0
DWIDTH 20 0
BBX 19 26 0 0
BITMAP
03FC00
03FC00
03FC00
000000
000000
00F000
00F000
01F800
01F800
019800
039C00
039C00
070C00
070E00
060E00
0E0700
0E0700
1C0300
1FFF80
1FFF80
3FFF80
3801C0
3801C0
7000E0
7000E0
E000E0
ENDCHAR
STARTCHAR 0101
ENCODING 257
SWIDTH 617 0
DWIDTH 18 0
BBX 13 22 2 0
BITMAP
3FE0
3FE0
3FE0
0000
0000
0000
1F80
7FE0
7FF0
4070
0038
0038
1FF8
7FF8
FFF8
F018
C038
C038
E0F8
FFD8
7F98
3F18
ENDCHAR
STARTCHAR 0102
ENCODING 258
SWIDTH 685 0
DWIDTH 20 0
BBX 19 28 0 0
BITMAP
030600
030C00
01FC00
00F800
000000
000000
000000
00F000
00F000
01F800
01F800
019800
039C00
039C00
070C00
070E00
060E00
0E0700
0E0700
1C0300
1FFF80
1FFF80
3FFF80
3801C0
3801C0
7000E0
7000E0
E000E0
ENDCHAR
STARTCHAR 0103
ENCODING 259
SWIDTH 617 0
DWIDTH 18 0
BBX 13 22 2 0
BITMAP
3060
30E0
1FC0
0F80
0000
0000
1F80
7FE0
7FF0
4070
0038
0038
1FF8
7FF8
FFF8
F018
C038
C038
E0F8
FFD8
7F98
3F18
ENDCHAR
STARTCHAR 0104
ENCODING 260
SWIDTH 685 0
DWIDTH 20 0
BBX 20 27 0 -6
BITMAP
00F000
00F000
01F800
01F800
019800
039C00
039C00
070C00
070E00
060E00
0E0700
0E0700
1C0300
1FFF80
1FFF80
3FFF80
3801C0
3801C0
7000E0
7000E0
E000E0
0000C0
000080
000180
000180
0001F0
0000F0
ENDCHAR
STARTCHAR 0105
ENCODING 261
SWIDTH 617 0
DWIDTH 18 0
BBX 14 22 2 -6
BITMAP
1F80
7FE0
7FF0
4070
0038
0038
1FF8
7FF8
FFF8
F018
C038
C038
E0F8
FFD8
7F98
3F18
0030
0020
0060
0060
007C
003C
ENDCHAR
STARTCHAR 0106
ENCODING 262
SWIDTH 685 0
DWIDTH 20 0
BBX 17 27 2 0
BITMAP
003800
007000
006000
00C000
000000
000000
03FC00
0FFF00
1FFF80
3E0380
780080
700000
E00000
E00000
E00000
E00000
E00000
E00000
E00000
E00000
E00000
700000
780080
3E0380
1FFF80
0FFF00
03F800
ENDCHAR
STARTCHAR 0107
ENCODING 263
SWIDTH 548 0
DWIDTH 16 0
BBX 12 23 2 0
BITMAP
0070
00E0
01C0
0380
0300
0000
0000
0FE0
3FF0
7FF0
7810
F000
E000
E000
C000
C000
E000
E000
F000
7810
7FF0
3FF0
0FE0
ENDCHAR
STARTCHAR 0108
ENCODING 264
SWIDTH 685 0
DWIDTH 20 0
BBX 17 27 2 0
BITMAP
00F000
01F000
019800
030C00
000000
000000
03FC00
0FFF00
1FFF80
3E0380
780080
700000
E00000
E00000
E00000
E00000
E00000
E00000
E00000
E00000
E00000
700000
780080
3E0380
1FFF80
0FFF00
03F800
ENDCHAR
STARTCHAR 0109
ENCODING 265
SWIDTH 548 0
DWIDTH 16 0
BBX 12 23 2 0
BITMAP
0380
07C0
06C0
0C60
1830
0000
0000
0FE0
3FF0
7FF0
7810
F000
E000
E000
C000
C000
E000
E000
F000
7810
7FF0
3FF0
0FE0
ENDCHAR
STARTCHAR 010A
ENCODING 266
SWIDTH 685 0
DWIDTH 20 0
BBX 17 26 2 0
BITMAP
006000
006000
006000
000000
000000
03FC00
0FFF00
1FFF80
3E0380
780080
700000
E00000
E00000
E00000
E00000
E00000
E00000
E00000
E00000
E00000
700000
780080
3E0380
1FFF80
0FFF00
03F800
ENDCHAR
STARTCHAR 010B
ENCODING 267
SWIDTH 548 0
DWIDTH 16 0
BBX 12 22 2 0
BITMAP
0380
0380
0380
0000
0000
0000
0FE0
3FF0
7FF0
7810
F000
E000
E000
C000
C000
E000
E000
F000
7810
7FF0
3FF0
0FE0
ENDCHAR
STARTCHAR 010C
ENCODING 268
SWIDTH 685 0
DWIDTH 20 0
BBX 17 27 2 0
BITMAP
031800
039800
01B000
00E000
000000
000000
03FC00
0FFF00
1FFF80
3E0380
780080
700000
E00000
E00000
E00000
E00000
E00000
E00000
E00000
E00000
E00000
700000
780080
3E0380
1FFF80
0FFF00
03F800
ENDCHAR
STARTCHAR 010D
ENCODING 269
SWIDTH 548 0
DWIDTH 16 0
BBX 12 23 2 0
BITMAP
1860
0C60
0EC0
0780
0380
0000
0000
0FE0
3FF0
7FF0
7810
F000
E000
E000
C000
C000
E000
E000
F000
7810
7FF0
3FF0
0FE0
ENDCHAR
STARTCHAR 010E
ENCODING 270
SWIDTH 754 0
DWIDTH 22 0
BBX 18 27 3 0
BITMAP
0C7000
0E6000
06C000
038000
000000
000000
FFE000
FFF800
FFFE00
E03F00
E00F00
E00780
E00380
E00380
E003C0
E001C0
E001C0
E001C0
E003C0
E00380
E00380
E00780
E00F00
E03F00
FFFE00
FFF800
FFC000
ENDCHAR
STARTCHAR 010F
ENCODING 271
SWIDTH 617 0
DWIDTH 18 0
BBX 19 22 2 0
BITMAP
001CE0
001CE0
001CC0
001CC0
001DC0
001C00
0F9C00
3FDC00
7FFC00
787C00
E03C00
E01C00
C01C00
C01C00
C01C00
E01C00
E01C00
E03C00
787C00
7FFC00
3FDC00
0F9C00
ENDCHAR
STARTCHAR 0110
ENCODING 272
SWIDTH 754 0
DWIDTH 22 0
BBX 21 21 0 0
BITMAP
1FFC00
1FFF00
1FFFC0
1C07E0
1C01E0
1C00F0
1C0070
1C0070
1C0038
FFE038
FFE038
FFE038
1C0038
1C0078
1C0070
1C00F0
1C01E0
1C07E0
1FFFC0
1FFF00
1FF800
ENDCHAR
STARTCHAR 0111
ENCODING 273
SWIDTH 617 0
DWIDTH 18 0
BBX 16 22 2 0
BITMAP
001C
001C
001C
01FF
01FF
001C
0F9C
3FDC
7FFC
787C
E03C
E01C
C01C
C01C
C01C
E01C
E01C
E03C
787C
7FFC
3FDC
0F9C
ENDCHAR
STARTCHAR 0112
ENCODING 274
SWIDTH 617 0
DWIDTH 18 0
BBX 13 26 3 0
BITMAP
3FE0
3FE0
3FE0
0000
0000
FFF8
FFF8
FFF8
E000
E000
E000
E000
E000
E000
FFF8
FFF8
FFF8
E000
E000
E000
E000
E000
E000
FFF8
FFF8
FFF8
ENDCHAR
STARTCHAR 0113
ENCODING 275
SWIDTH 617 0
DWIDTH 18 0
BBX 14 22 2 0
BITMAP
1FF0
1FF0
1FF0
0000
0000
0000
0FC0
3FF0
7FF8
783C
E01C
E00C
FFFC
FFFC
FFFC
C000
E000
E000
780C
7FFC
1FFC
0FF0
ENDCHAR
STARTCHAR 0114
ENCODING 276
SWIDTH 617 0
DWIDTH 18 0
BBX 13 27 3 0
BITMAP
3060
38E0
1FC0
0F80
0000
0000
FFF8
FFF8
FFF8
E000
E000
E000
E000
E000
E000
FFF8
FFF8
FFF8
E000
E000
E000
E000
E000
E000
FFF8
FFF8
FFF8
ENDCHAR
STARTCHAR 0115
ENCODING 277
SWIDTH 617 0
DWIDTH 18 0
BBX 14 23 2 0
BITMAP
1830
1870
0FE0
07C0
0000
0000
0000
0FC0
3FF0
7FF8
783C
E01C
E00C
FFFC
FFFC
FFFC
C000
E000
E000
780C
7FFC
1FFC
0FF0
ENDCHAR
STARTCHAR 0116
ENCODING 278
SWIDTH 617 0
DWIDTH 18 0
BBX 13 26 3 0
BITMAP
0700
0700
0700
0000
0000
FFF8
FFF8
FFF8
E000
E000
E000
E000
E000
E000
FFF8
FFF8
FFF8
E000
E000
E000
E000
E000
E000
FFF8
FFF8
FFF8
ENDCHAR
STARTCHAR 0117
ENCODING 279
SWIDTH 617 0
DWIDTH 18 0
BBX 14 22 2 0
BITMAP
0380
0380
0380
0000
0000
0000
0FC0
3FF0
7FF8
783C
E01C
E00C
FFFC
FFFC
FFFC
C000
E000
E000
780C
7FFC
1FFC
0FF0
ENDCHAR
STARTCHAR 0118
ENCODING 280
SWIDTH 617 0
DWIDTH 18 0
BBX 14 27 3 -6
BITMAP
FFF8
FFF8
FFF8
E000
E000
E000
E000
E000
E000
FFF8
FFF8
FFF8
E000
E000
E000
E000
E000
E000
FFF8
FFF8
FFF8
0060
0060
00C0
00C0
00FC
007C
ENDCHAR
STARTCHAR 0119
ENCODING 281
SWIDTH 617 0
DWIDTH 18 0
BBX 14 22 2 -6
BITMAP
0FC0
3FF0
7FF8
783C
E01C
E00C
FFFC
FFFC
FFFC
C000
E000
E000
780C
7FFC
1FFC
0FF0
0060
0040
00C0
00C0
00F8
0078
ENDCHAR
STARTCHAR 011A
ENCODING 282
SWIDTH 617 0
DWIDTH 18 0
BBX 13 27 3 0
BITMAP
18E0
1CC0
0D80
0700
0000
0000
FFF8
FFF8
FFF8
E000
E000
E000
E000
E000
E000
FFF8
FFF8
FFF8
E000
E000
E000
E000
E000
E000
FFF8
FFF8
FFF8
ENDCHAR
STARTCHAR 011B
ENCODING 283
SWIDTH 617 0
DWIDTH 18 0
BBX 14 23 2 0
BITMAP
1870
0C60
06C0
0780
0380
0000
0000
0FC0
3FF0
7FF8
783C
E01C
E00C
FFFC
FFFC
FFFC
C000
E000
E000
780C
7FFC
1FFC
0FF0
ENDCHAR
STARTCHAR 011C
ENCODING 284
SWIDTH 754 0
DWIDTH 22 0
BBX 18 27 2 0
BITMAP
00F000
00F800
019800
030C00
000000
000000
03FC00
0FFF80
1FFFC0
3E03C0
780040
700000
E00000
E00000
E00000
E01FC0
E01FC0
E01FC0
E001C0
E001C0
E001C0
7001C0
7801C0
3E03C0
1FFF80
0FFF00
03FC00
ENDCHAR
STARTCHAR 011D
ENCODING 285
SWIDTH 617 0
DWIDTH 18 0
BBX 14 29 2 -6
BITMAP
0700
0780
0DC0
18C0
1860
0000
0000
0F9C
3FDC
7FFC
787C
E03C
E01C
C01C
C01C
C01C
C01C
E01C
E03C
787C
7FFC
3FDC
0F9C
0018
0038
2078
3FF0
3FE0
1FC0
ENDCHAR
STARTCHAR 011E
ENCODING 286
SWIDTH 754 0
DWIDTH 22 0
BBX 18 27 2 0
BITMAP
060C00
061800
03F800
01F000
000000
000000
03FC00
0FFF80
1FFFC0
3E03C0
780040
700000
E00000
E00000
E00000
E01FC0
E01FC0
E01FC0
E001C0
E001C0
E001C0
7001C0
7801C0
3E03C0
1FFF80
0FFF00
03FC00
ENDCHAR
STARTCHAR 011F
ENCODING 287
SWIDTH 617 0
DWIDTH 18 0
BBX 14 29 2 -6
BITMAP
1830
1860
0FE0
07C0
0000
0000
0000
0F9C
3FDC
7FFC
787C
E03C
E01C
C01C
C01C
C01C
C01C
E01C
E03C
787C
7FFC
3FDC
0F9C
0018
0038
2078
3FF0
3FE0
1FC0
ENDCHAR
STARTCHAR 0120
ENCODING 288
SWIDTH 754 0
DWIDTH 22 0
BBX 18 26 2 0
BITMAP
007000
007000
007000
000000
000000
03FC00
0FFF80
1FFFC0
3E03C0
780040
700000
E00000
E00000
E00000
E01FC0
E01FC0
E01FC0
E001C0
E001C0
E001C0
7001C0
7801C0
3E03C0
1FFF80
0FFF00
03FC00
ENDCHAR
STARTCHAR 0121
ENCODING 289
SWIDTH 617 0
DWIDTH 18 0
BBX 14 28 2 -6
BITMAP
0700
0700
0700
0000
0000
0000
0F9C
3FDC
7FFC
787C
E03C
E01C
C01C
C01C
C01C
C01C
E01C
E03C
787C
7FFC
3FDC
0F9C
0018
0038
2078
3FF0
3FE0
1FC0
ENDCHAR
STARTCHAR 0122
ENCODING 290
SWIDTH 754 0
DWIDTH 22 0
BBX 18 28 2 -7
BITMAP
03FC00
0FFF80
1FFFC0
3E03C0
780040
700000
E00000
E00000
E00000
E01FC0
E01FC0
E01FC0
E001C0
E001C0
E001C0
7001C0
7801C0
3E03C0
1FFF80
0FFF00
03FC00
000000
000000
007000
007000
006000
00E000
00C000
ENDCHAR
STARTCHAR 0123
ENCODING 291
SWIDTH 617 0
DWIDTH 18 0
BBX 14 29 2 -6
BITMAP
0180
0180
0380
0380
0700
0000
0000
0F9C
3FDC
7FFC
787C
E03C
E01C
C01C
C01C
C01C
C01C
E01C
E03C
787C
7FFC
3FDC
0F9C
0018
0038
2078
3FF0
3FE0
1FC0
ENDCHAR
STARTCHAR 0124
ENCODING 292
SWIDTH 754 0
DWIDTH 22 0
BBX 16 27 3 0
BITMAP
03C0
07C0
0660
0C30
0000
0000
E007
E007
E007
E007
E007
E007
E007
E007
E007
FFFF
FFFF
FFFF
E007
E007
E007
E007
E007
E007
E007
E007
E007
ENDCHAR
STARTCHAR 0125
ENCODING 293
SWIDTH 617 0
DWIDTH 18 0
BBX 16 27 0 0
BITMAP
3C00
7C00
6600
C300
0000
1800
1800
1800
1800
1800
1800
18F8
1BFC
1BFE
1E0E
1C07
1C07
1807
1807
1807
1807
1807
1807
1807
1807
1807
1807
ENDCHAR
STARTCHAR 0126
ENCODING 294
SWIDTH 925 0
DWIDTH 27 0
BBX 21 21 3 0
BITMAP
3801C0
3801C0
3801C0
FFFFF8
FFFFF8
FFFFF8
3801C0
3801C0
3801C0
3FFFC0
3FFFC0
3FFFC0
3801C0
3801C0
3801C0
3801C0
3801C0
3801C0
3801C0
3801C0
3801C0
ENDCHAR
STARTCHAR 0127
ENCODING 295
SWIDTH 685 0
DWIDTH 20 0
BBX 15 22 2 0
BITMAP
7000
FF80
FF80
FF80
7000
7000
71F0
77F8
7FFC
7C1C
780E
700E
700E
700E
700E
700E
700E
700E
700E
700E
700E
700E
ENDCHAR
STARTCHAR 0128
ENCODING 296
SWIDTH 308 0
DWIDTH 9 0
BBX 9 26 0 0
BITMAP
7980
FF80
8F00
0000
0000
1C00
1C00
1C00
1C00
1C00
1C00
1C00
1C00
1C00
1C00
1C00
1C00
1C00
1C00
1C00
1C00
1C00
1C00
1C00
1C00
1C00
ENDCHAR
STARTCHAR 0129
ENCODING 297
SWIDTH 274 0
DWIDTH 8 0
BBX 10 23 -1 0
BITMAP
38C0
7CC0
4F80
C700
0000
0000
0000
0C00
0C00
0C00
0C00
0C00
0C00
0C00
0C00
0C00
0C00
0C00
0C00
0C00
0C00
0C00
0C00
ENDCHAR
STARTCHAR 012A
ENCODING 298
SWIDTH 308 0
DWIDTH 9 0
BBX 9 26 0 0
BITMAP
FF80
FF80
FF80
0000
0000
1C00
1C00
1C00
1C00
1C00
1C00
1C00
1C00
1C00
1C00
1C00
1C00
1C00
1C00
1C00
1C00
1C00
1C00
1C00
1C00
1C00
ENDCHAR
STARTCHAR 012B
ENCODING 299
SWIDTH 274 0
DWIDTH 8 0
BBX 8 22 0 0
BITMAP
FF
FF
FF
00
00
00
18
18
18
18
18
18
18
18
18
18
18
18
18
18
18
18
ENDCHAR
STARTCHAR 012C
ENCODING 300
SWIDTH 308 0
DWIDTH 9 0
BBX 9 27 0 0
BITMAP
C180
C300
7F00
3E00
0000
0000
1C00
1C00
1C00
1C00
1C00
1C00
1C00
1C00
1C00
1C00
1C00
1C00
1C00
1C00
1C00
1C00
1C00
1C00
1C00
1C00
1C00
ENDCHAR
STARTCHAR 012D
ENCODING 301
SWIDTH 274 0
DWIDTH 8 0
BBX 8 23 0 0
BITMAP
81
C3
FF
3C
00
00
00
18
18
18
18
18
18
18
18
18
18
18
18
18
18
18
18
ENDCHAR
STARTCHAR 012E
ENCODING 302
SWIDTH 308 0
DWIDTH 9 0
BBX 6 27 2 -6
BITMAP
70
70
70
70
70
70
70
70
70
70
70
70
70
70
70
70
70
70
70
70
70
20
60
40
E0
7C
3C
ENDCHAR
STARTCHAR 012F
ENCODING 303
SWIDTH 274 0
DWIDTH 8 0
BBX 5 28 2 -6
BITMAP
60
60
60
00
00
00
60
60
60
60
60
60
60
60
60
60
60
60
60
60
60
60
60
40
C0
C0
F8
78
ENDCHAR
STARTCHAR 0130
ENCODING 304
SWIDTH 308 0
DWIDTH 9 0
BBX 3 26 3 0
BITMAP
E0
E0
E0
00
00
E0
E0
E0
E0
E0
E0
E0
E0
E0
E0
E0
E0
E0
E0
E0
E0
E0
E0
E0
E0
E0
ENDCHAR
STARTCHAR 0131
ENCODING 305
SWIDTH 274 0
DWIDTH 8 0
BBX 2 16 3 0
BITMAP
C0
C0
C0
C0
C0
C0
C0
C0
C0
C0
C0
C0
C0
C0
C0
C0
ENDCHAR
STARTCHAR 0132
ENCODING 306
SWIDTH 582 0
DWIDTH 17 0
BBX 11 27 3 -6
BITMAP
E0E0
E0E0
E0E0
E0E0
E0E0
E0E0
E0E0
E0E0
E0E0
E0E0
E0E0
E0E0
E0E0
E0E0
E0E0
E0E0
E0E0
E0E0
E0E0
E0E0
E0E0
00E0
00E0
01E0
0FC0
0FC0
0F00
ENDCHAR
STARTCHAR 0133
ENCODING 307
SWIDTH 548 0
DWIDTH 16 0
BBX 10 28 3 -6
BITMAP
C0C0
C0C0
C0C0
0000
0000
0000
C0C0
C0C0
C0C0
C0C0
C0C0
C0C0
C0C0
C0C0
C0C0
C0C0
C0C0
C0C0
C0C0
C0C0
C0C0
C0C0
00C0
00C0
01C0
07C0
0780
0700
ENDCHAR
STARTCHAR 0134
ENCODING 308
SWIDTH 308 0
DWIDTH 9 0
BBX 10 33 -2 -6
BITMAP
0700
0F80
1980
30C0
0000
0000
0700
0700
0700
0700
0700
0700
0700
0700
0700
0700
0700
0700
0700
0700
0700
0700
0700
0700
0700
0700
0700
0700
0E00
1E00
FE00
FC00
F000
ENDCHAR
STARTCHAR 0135
ENCODING 309
SWIDTH 274 0
DWIDTH 8 0
BBX 9 29 -1 -6
BITMAP
0C00
1E00
3300
3380
6180
0000
0000
0C00
0C00
0C00
0C00
0C00
0C00
0C00
0C00
0C00
0C00
0C00
0C00
0C00
0C00
0C00
0C00
0C00
0C00
1C00
FC00
F800
F000
ENDCHAR
STARTCHAR 0136
ENCODING 310
SWIDTH 651 0
DWIDTH 19 0
BBX 16 28 3 -7
BITMAP
E00E
E01C
E038
E0F0
E1E0
E3C0
E780
EF00
FE00
FC00
FC00
FE00
EF00
E780
E3C0
E1E0
E0F0
E078
E03C
E01E
E00F
0000
0000
01C0
01C0
0180
0380
0300
ENDCHAR
STARTCHAR 0137
ENCODING 311
SWIDTH 582 0
DWIDTH 17 0
BBX 13 29 3 -7
BITMAP
C000
C000
C000
C000
C000
C000
C078
C0F0
C1E0
C380
C700
CE00
DC00
F800
DC00
CE00
C700
C380
C1C0
C0E0
C070
C038
0000
0000
0300
0700
0700
0600
0600
ENDCHAR
STARTCHAR 0138
ENCODING 312
SWIDTH 582 0
DWIDTH 17 0
BBX 13 16 3 0
BITMAP
C078
C0F0
C1E0
C380
C700
CE00
DC00
F800
DC00
CE00
C700
C380
C1C0
C0E0
C070
C038
ENDCHAR
STARTCHAR 0139
ENCODING 313
SWIDTH 548 0
DWIDTH 16 0
BBX 13 27 3 0
BITMAP
1800
3000
7000
6000
0000
0000
E000
E000
E000
E000
E000
E000
E000
E000
E000
E000
E000
E000
E000
E000
E000
E000
E000
E000
FFF8
FFF8
FFF8
ENDCHAR
STARTCHAR 013A
ENCODING 314
SWIDTH 274 0
DWIDTH 8 0
BBX 5 27 3 0
BITMAP
38
30
60
C0
00
C0
C0
C0
C0
C0
C0
C0
C0
C0
C0
C0
C0
C0
C0
C0
C0
C0
C0
C0
C0
C0
C0
ENDCHAR
STARTCHAR 013B
ENCODING 315
SWIDTH 548 0
DWIDTH 16 0
BBX 13 28 3 -7
BITMAP
E000
E000
E000
E000
E000
E000
E000
E000
E000
E000
E000
E000
E000
E000
E000
E000
E000
E000
FFF8
FFF8
FFF8
0000
0000
0700
0700
0600
0600
0C00
ENDCHAR
STARTCHAR 013C
ENCODING 316
SWIDTH 274 0
DWIDTH 8 0
BBX 4 29 2 -7
BITMAP
60
60
60
60
60
60
60
60
60
60
60
60
60
60
60
60
60
60
60
60
60
60
00
00
70
60
E0
C0
C0
ENDCHAR
STARTCHAR 013D
ENCODING 317
SWIDTH 548 0
DWIDTH 16 0
BBX 13 21 3 0
BITMAP
E380
E380
E300
E300
E300
E000
E000
E000
E000
E000
E000
E000
E000
E000
E000
E000
E000
E000
FFF8
FFF8
FFF8
ENDCHAR
STARTCHAR 013E
ENCODING 318
SWIDTH 377 0
DWIDTH 11 0
BBX 8 22 3 0
BITMAP
C7
C6
C6
CE
CC
C0
C0
C0
C0
C0
C0
C0
C0
C0
C0
C0
C0
C0
C0
C0
C0
C0
ENDCHAR
STARTCHAR 013F
ENCODING 319
SWIDTH 548 0
DWIDTH 16 0
BBX 13 21 3 0
BITMAP
E000
E000
E000
E000
E000
E000
E000
E0E0
E0E0
E0E0
E0E0
E000
E000
E000
E000
E000
E000
E000
FFF8
FFF8
FFF8
ENDCHAR
STARTCHAR 0140
ENCODING 320
SWIDTH 342 0
DWIDTH 10 0
BBX 6 22 3 0
BITMAP
C0
C0
C0
C0
C0
C0
C0
C0
DC
DC
DC
DC
C0
C0
C0
C0
C0
C0
C0
C0
C0
C0
ENDCHAR
STARTCHAR 0141
ENCODING 321
SWIDTH 548 0
DWIDTH 16 0
BBX 16 21 0 0
BITMAP
1C00
1C00
1C00
1C00
1C00
1C00
1C60
1DE0
1F80
1F00
1C00
7C00
FC00
5C00
1C00
1C00
1C00
1C00
1FFF
1FFF
1FFF
ENDCHAR
STARTCHAR 0142
ENCODING 322
SWIDTH 274 0
DWIDTH 8 0
BBX 8 22 0 0
BITMAP
18
18
18
18
18
18
18
18
1F
1E
1C
78
F8
58
18
18
18
18
18
18
18
18
ENDCHAR
STARTCHAR 0143
ENCODING 323
SWIDTH 754 0
DWIDTH 22 0
BBX 16 27 3 0
BITMAP
01C0
0180
0300
0700
0000
0000
F007
F807
F807
FC07
FC07
EE07
EE07
E707
E707
E387
E387
E1C7
E1C7
E0E7
E067
E077
E03F
E03F
E01F
E01F
E00F
ENDCHAR
STARTCHAR 0144
ENCODING 324
SWIDTH 617 0
DWIDTH 18 0
BBX 13 23 3 0
BITMAP
01C0
0380
0700
0E00
0C00
0000
0000
C7C0
DFE0
DFF0
F070
E038
E038
C038
C038
C038
C038
C038
C038
C038
C038
C038
C038
ENDCHAR
STARTCHAR 0145
ENCODING 325
SWIDTH 754 0
DWIDTH 22 0
BBX 16 28 3 -7
BITMAP
F007
F807
F807
FC07
FC07
EE07
EE07
E707
E707
E387
E387
E1C7
E1C7
E0E7
E067
E077
E03F
E03F
E01F
E01F
E00F
0000
0000
01C0
0180
0380
0300
0300
ENDCHAR
STARTCHAR 0146
ENCODING 326
SWIDTH 617 0
DWIDTH 18 0
BBX 13 23 3 -7
BITMAP
C7C0
DFE0
DFF0
F070
E038
E038
C038
C038
C038
C038
C038
C038
C038
C038
C038
C038
0000
0000
0700
0700
0600
0E00
0C00
ENDCHAR
STARTCHAR 0147
ENCODING 327
SWIDTH 754 0
DWIDTH 22 0
BBX 16 27 3 0
BITMAP
0C30
0660
07C0
0380
0000
0000
F007
F807
F807
FC07
FC07
EE07
EE07
E707
E707
E387
E387
E1C7
E1C7
E0E7
E067
E077
E03F
E03F
E01F
E01F
E00F
ENDCHAR
STARTCHAR 0148
ENCODING 328
SWIDTH 617 0
DWIDTH 18 0
BBX 13 23 3 0
BITMAP
30C0
18C0
1D80
0F00
0700
0000
0000
C7C0
DFE0
DFF0
F070
E038
E038
C038
C038
C038
C038
C038
C038
C038
C038
C038
C038
ENDCHAR
STARTCHAR 0149
ENCODING 329
SWIDTH 822 0
DWIDTH 24 0
BBX 18 21 3 0
BITMAP
700000
700000
700000
600000
E00000
CE3E00
CEFF00
0FFF80
0F8380
0F01C0
0E01C0
0E01C0
0E01C0
0E01C0
0E01C0
0E01C0
0E01C0
0E01C0
0E01C0
0E01C0
0E01C0
ENDCHAR
STARTCHAR 014A
ENCODING 330
SWIDTH 754 0
DWIDTH 22 0
BBX 15 27 3 -6
BITMAP
E7F0
EFF8
FFFC
FC3E
F00E
F00E
E00E
E006
E006
E006
E006
E006
E006
E006
E006
E006
E006
E006
E006
E006
E006
0006
000E
000E
007E
007C
0078
ENDCHAR
STARTCHAR 014B
ENCODING 331
SWIDTH 617 0
DWIDTH 18 0
BBX 13 22 3 -6
BITMAP
C7C0
DFE0
DFF0
F070
E038
E038
C038
C038
C038
C038
C038
C038
C038
C038
C038
C038
0038
0038
0038
0FF0
0FF0
0FE0
ENDCHAR
STARTCHAR 014C
ENCODING 332
SWIDTH 788 0
DWIDTH 23 0
BBX 19 26 2 0
BITMAP
07FC00
07FC00
07FC00
000000
000000
03F800
0FFE00
1FFF00
3E0F80
7803C0
7001C0
F001E0
E000E0
E000E0
E000E0
E000E0
E000E0
E000E0
E000E0
E001E0
7001C0
7803C0
3E0F80
1FFF00
0FFE00
03F800
ENDCHAR
STARTCHAR 014D
ENCODING 333
SWIDTH 617 0
DWIDTH 18 0
BBX 14 22 2 0
BITMAP
1FE0
1FE0
1FE0
0000
0000
0000
0FC0
3FF0
7FF8
7878
E03C
E01C
C01C
C01C
C01C
C01C
E01C
E03C
7878
7FF8
3FF0
0FC0
ENDCHAR
STARTCHAR 014E
ENCODING 334
SWIDTH 788 0
DWIDTH 23 0
BBX 19 27 2 0
BITMAP
060C00
071C00
03F800
01F000
000000
000000
03F800
0FFE00
1FFF00
3E0F80
7803C0
7001C0
F001E0
E000E0
E000E0
E000E0
E000E0
E000E0
E000E0
E000E0
E001E0
7001C0
7803C0
3E0F80
1FFF00
0FFE00
03F800
ENDCHAR
STARTCHAR 014F
ENCODING 335
SWIDTH 617 0
DWIDTH 18 0
BBX 14 23 2 0
BITMAP
3060
1860
1FE0
0F80
0000
0000
0000
0FC0
3FF0
7FF8
7878
E03C
E01C
C01C
C01C
C01C
C01C
E01C
E03C
7878
7FF8
3FF0
0FC0
ENDCHAR
STARTCHAR 0150
ENCODING 336
SWIDTH 788 0
DWIDTH 23 0
BBX 19 27 2 0
BITMAP
00C600
01CC00
039C00
031800
000000
000000
03F800
0FFE00
1FFF00
3E0F80
7803C0
7001C0
F001E0
E000E0
E000E0
E000E0
E000E0
E000E0
E000E0
E000E0
E001E0
7001C0
7803C0
3E0F80
1FFF00
0FFE00
03F800
ENDCHAR
STARTCHAR 0151
ENCODING 337
SWIDTH 617 0
DWIDTH 18 0
BBX 14 23 2 0
BITMAP
0318
0338
0630
0E60
0CC0
0000
0000
0FC0
3FF0
7FF8
7878
E03C
E01C
C01C
C01C
C01C
C01C
E01C
E03C
7878
7FF8
3FF0
0FC0
ENDCHAR
STARTCHAR 0152
ENCODING 338
SWIDTH 1062 0
DWIDTH 31 0
BBX 27 21 2 0
BITMAP
01FFFFE0
07FFFFE0
1FFFFFE0
3F030000
78030000
70030000
F0030000
E0030000
E0030000
E003FFC0
E003FFC0
E003FFC0
E0030000
E0030000
F0030000
70030000
78030000
3F030000
1FFFFFE0
07FFFFE0
01FFFFE0
ENDCHAR
STARTCHAR 0153
ENCODING 339
SWIDTH 1028 0
DWIDTH 30 0
BBX 26 16 2 0
BITMAP
0FC0FC00
3FE3FF00
7FF7FF80
787F0380
E03E01C0
E01C01C0
C01FFFC0
C01FFFC0
C01FFFC0
C01C0000
E01E0000
E03E0000
787F80C0
7FF7FFC0
3FF3FFC0
0FC0FF00
ENDCHAR
STARTCHAR 0154
ENCODING 340
SWIDTH 685 0
DWIDTH 20 0
BBX 16 27 3 0
BITMAP
0180
0380
0700
0600
0000
0000
FFC0
FFF0
FFF8
E078
E038
E038
E038
E038
E078
FFF0
FFE0
FFE0
E0F0
E078
E038
E01C
E01C
E01E
E00E
E00F
E007
ENDCHAR
STARTCHAR 0155
ENCODING 341
SWIDTH 411 0
DWIDTH 12 0
BBX 10 23 3 0
BITMAP
01C0
0380
0700
0E00
0C00
0000
0000
C780
DF80
DF80
F800
E000
E000
C000
C000
C000
C000
C000
C000
C000
C000
C000
C000
ENDCHAR
STARTCHAR 0156
ENCODING 342
SWIDTH 685 0
DWIDTH 20 0
BBX 16 28 3 -7
BITMAP
FFC0
FFF0
FFF8
E078
E038
E038
E038
E038
E078
FFF0
FFE0
FFE0
E0F0
E078
E038
E01C
E01C
E01E
E00E
E00F
E007
0000
0000
01C0
0180
0180
0380
0300
ENDCHAR
STARTCHAR 0157
ENCODING 343
SWIDTH 411 0
DWIDTH 12 0
BBX 10 23 2 -7
BITMAP
63C0
6FC0
6FC0
7C00
7000
7000
6000
6000
6000
6000
6000
6000
6000
6000
6000
6000
0000
0000
7000
6000
E000
C000
C000
ENDCHAR
STARTCHAR 0158
ENCODING 344
SWIDTH 685 0
DWIDTH 20 0
BBX 16 27 3 0
BITMAP
30C0
1980
0F00
0F00
0000
0000
FFC0
FFF0
FFF8
E078
E038
E038
E038
E038
E078
FFF0
FFE0
FFE0
E0F0
E078
E038
E01C
E01C
E01E
E00E
E00F
E007
ENDCHAR
STARTCHAR 0159
ENCODING 345
SWIDTH 411 0
DWIDTH 12 0
BBX 9 23 3 0
BITMAP
C180
6300
3600
1E00
1C00
0000
0000
C780
DF80
DF80
F800
E000
E000
C000
C000
C000
C000
C000
C000
C000
C000
C000
C000
ENDCHAR
STARTCHAR 015A
ENCODING 346
SWIDTH 617 0
DWIDTH 18 0
BBX 15 27 2 0
BITMAP
00C0
01C0
0380
0300
0000
0000
0FF0
3FFC
7FFC
F80C
E000
E000
E000
E000
F800
7FC0
1FF0
03F8
003C
001E
000E
000E
001E
C03C
FFFC
FFF8
3FE0
ENDCHAR
STARTCHAR 015B
ENCODING 347
SWIDTH 514 0
DWIDTH 15 0
BBX 12 23 2 0
BITMAP
00E0
01C0
0380
0700
0600
0000
0000
3FC0
7FE0
FFE0
E060
C000
C000
F800
3F80
03E0
00E0
0070
8070
C0F0
FFE0
FFC0
3F80
ENDCHAR
STARTCHAR 015C
ENCODING 348
SWIDTH 617 0
DWIDTH 18 0
BBX 15 27 2 0
BITMAP
0380
07C0
0CE0
1860
0000
0000
0FF0
3FFC
7FFC
F80C
E000
E000
E000
E000
F800
7FC0
1FF0
03F8
003C
001E
000E
000E
001E
C03C
FFFC
FFF8
3FE0
ENDCHAR
STARTCHAR 015D
ENCODING 349
SWIDTH 514 0
DWIDTH 15 0
BBX 12 23 2 0
BITMAP
0E00
0F00
1B80
3180
30C0
0000
0000
3FC0
7FE0
FFE0
E060
C000
C000
F800
3F80
03E0
00E0
0070
8070
C0F0
FFE0
FFC0
3F80
ENDCHAR
STARTCHAR 015E
ENCODING 350
SWIDTH 617 0
DWIDTH 18 0
BBX 15 27 2 -6
BITMAP
0FF0
3FFC
7FFC
F80C
E000
E000
E000
E000
F800
7FC0
1FF0
03F8
003C
001E
000E
000E
001E
C03C
FFFC
FFF8
3FE0
0180
0080
00C0
00C0
0FC0
0F80
ENDCHAR
STARTCHAR 015F
ENCODING 351
SWIDTH 514 0
DWIDTH 15 0
BBX 12 22 2 -6
BITMAP
3FC0
7FE0
FFE0
E060
C000
C000
F800
3F80
03E0
00E0
0070
8070
C0F0
FFE0
FFC0
3F80
0600
0300
0300
0300
3F00
3E00
ENDCHAR
STARTCHAR 0160
ENCODING 352
SWIDTH 617 0
DWIDTH 18 0
BBX 15 27 2 0
BITMAP
1860
0CC0
07C0
0380
0000
0000
0FF0
3FFC
7FFC
F80C
E000
E000
E000
E000
F800
7FC0
1FF0
03F8
003C
001E
000E
000E
001E
C03C
FFFC
FFF8
3FE0
ENDCHAR
STARTCHAR 0161
ENCODING 353
SWIDTH 514 0
DWIDTH 15 0
BBX 12 23 2 0
BITMAP
30C0
3180
1B80
0F00
0E00
0000
0000
3FC0
7FE0
FFE0
E060
C000
C000
F800
3F80
03E0
00E0
0070
8070
C0F0
FFE0
FFC0
3F80
ENDCHAR
STARTCHAR 0162
ENCODING 354
SWIDTH 617 0
DWIDTH 18 0
BBX 18 27 0 -6
BITMAP
FFFFC0
FFFFC0
FFFFC0
01C000
01C000
01C000
01C000
01C000
01C000
01C000
01C000
01C000
01C000
01C000
01C000
01C000
01C000
01C000
01C000
01C000
01C000
00C000
006000
006000
006000
07E000
07C000
ENDCHAR
STARTCHAR 0163
ENCODING 355
SWIDTH 377 0
DWIDTH 11 0
BBX 10 27 1 -6
BITMAP
3000
3000
3000
3000
3000
FFC0
FFC0
FFC0
3000
3000
3000
3000
3000
3000
3000
3000
3000
3800
3FC0
1FC0
0FC0
0200
0300
0100
0380
1F00
1E00
ENDCHAR
STARTCHAR 0164
ENCODING 356
SWIDTH 617 0
DWIDTH 18 0
BBX 18 27 0 0
BITMAP
061800
033000
03E000
01E000
000000
000000
FFFFC0
FFFFC0
FFFFC0
01C000
01C000
01C000
01C000
01C000
01C000
01C000
01C000
01C000
01C000
01C000
01C000
01C000
01C000
01C000
01C000
01C000
01C000
ENDCHAR
STARTCHAR 0165
ENCODING 357
SWIDTH 377 0
DWIDTH 11 0
BBX 10 24 1 0
BITMAP
01C0
0180
0180
3380
3300
3000
3000
3000
FFC0
FFC0
FFC0
3000
3000
3000
3000
3000
3000
3000
3000
3000
3800
3FC0
1FC0
0FC0
ENDCHAR
STARTCHAR 0166
ENCODING 358
SWIDTH 617 0
DWIDTH 18 0
BBX 18 21 0 0
BITMAP
FFFFC0
FFFFC0
FFFFC0
01C000
01C000
01C000
01C000
01C000
01C000
01C000
0FFC00
0FFC00
0FFC00
01C000
01C000
01C000
01C000
01C000
01C000
01C000
01C000
ENDCHAR
STARTCHAR 0167
ENCODING 359
SWIDTH 377 0
DWIDTH 11 0
BBX 10 21 1 0
BITMAP
3000
3000
3000
3000
3000
FFC0
FFC0
FFC0
3000
3000
3000
FFC0
FFC0
FFC0
3000
3000
3000
3800
3FC0
3FC0
0FC0
ENDCHAR
STARTCHAR 0168
ENCODING 360
SWIDTH 720 0
DWIDTH 21 0
BBX 16 26 3 0
BITMAP
0F30
1FF0
19E0
0000
0000
C007
C007
C007
C007
C007
C007
C007
C007
C007
C007
C007
C007
C007
C007
E007
E00E
F00E
783E
7FFC
3FF8
0FE0
ENDCHAR
STARTCHAR 0169
ENCODING 361
SWIDTH 617 0
DWIDTH 18 0
BBX 14 23 2 0
BITMAP
0E30
1F30
11E0
30E0
0000
0000
0000
E01C
E01C
E01C
E01C
E01C
E01C
E01C
E01C
E01C
E01C
601C
703C
707C
7FFC
3FDC
1F9C
ENDCHAR
STARTCHAR 016A
ENCODING 362
SWIDTH 720 0
DWIDTH 21 0
BBX 16 26 3 0
BITMAP
1FF0
1FF0
1FF0
0000
0000
C007
C007
C007
C007
C007
C007
C007
C007
C007
C007
C007
C007
C007
C007
E007
E00E
F00E
783E
7FFC
3FF8
0FE0
ENDCHAR
STARTCHAR 016B
ENCODING 363
SWIDTH 617 0
DWIDTH 18 0
BBX 14 22 2 0
BITMAP
1FE0
1FE0
1FE0
0000
0000
0000
E01C
E01C
E01C
E01C
E01C
E01C
E01C
E01C
E01C
E01C
601C
703C
707C
7FFC
3FDC
1F9C
ENDCHAR
STARTCHAR 016C
ENCODING 364
SWIDTH 720 0
DWIDTH 21 0
BBX 16 27 3 0
BITMAP
1830
1C70
0FE0
07C0
0000
0000
C007
C007
C007
C007
C007
C007
C007
C007
C007
C007
C007
C007
C007
C007
E007
E00E
F00E
783E
7FFC
3FF8
0FE0
ENDCHAR
STARTCHAR 016D
ENCODING 365
SWIDTH 617 0
DWIDTH 18 0
BBX 14 23 2 0
BITMAP
1020
1860
1FE0
07C0
0000
0000
0000
E01C
E01C
E01C
E01C
E01C
E01C
E01C
E01C
E01C
E01C
601C
703C
707C
7FFC
3FDC
1F9C
ENDCHAR
STARTCHAR 016E
ENCODING 366
SWIDTH 720 0
DWIDTH 21 0
BBX 16 27 3 0
BITMAP
03C0
07E0
0C60
0C20
0C30
0C60
C7E7
C3C7
C007
C007
C007
C007
C007
C007
C007
C007
C007
C007
C007
C007
E007
E00E
F00E
783E
7FFC
3FF8
0FE0
ENDCHAR
STARTCHAR 016F
ENCODING 367
SWIDTH 617 0
DWIDTH 18 0
BBX 14 25 2 0
BITMAP
0780
0FC0
1CE0
1860
1860
1CE0
0FC0
0780
0000
E01C
E01C
E01C
E01C
E01C
E01C
E01C
E01C
E01C
E01C
601C
703C
707C
7FFC
3FDC
1F9C
ENDCHAR
STARTCHAR 0170
ENCODING 368
SWIDTH 720 0
DWIDTH 21 0
BBX 16 27 3 0
BITMAP
0398
0738
0670
0C60
0000
0000
C007
C007
C007
C007
C007
C007
C007
C007
C007
C007
C007
C007
C007
C007
E007
E00E
F00E
783E
7FFC
3FF8
0FE0
ENDCHAR
STARTCHAR 0171
ENCODING 369
SWIDTH 617 0
DWIDTH 18 0
BBX 14 23 2 0
BITMAP
0398
0338
0630
0660
0C60
0000
0000
E01C
E01C
E01C
E01C
E01C
E01C
E01C
E01C
E01C
E01C
601C
703C
707C
7FFC
3FDC
1F9C
ENDCHAR
STARTCHAR 0172
ENCODING 370
SWIDTH 720 0
DWIDTH 21 0
BBX 16 27 3 -6
BITMAP
C007
C007
C007
C007
C007
C007
C007
C007
C007
C007
C007
C007
C007
C007
E007
E00E
F00E
783E
7FFC
3FF8
0FE0
0300
0300
0600
0600
07E0
03E0
ENDCHAR
STARTCHAR 0173
ENCODING 371
SWIDTH 617 0
DWIDTH 18 0
BBX 16 22 2 -6
BITMAP
E01C
E01C
E01C
E01C
E01C
E01C
E01C
E01C
E01C
E01C
601C
703C
707C
7FFC
3FDC
1F9C
0008
0018
0010
0038
001F
000F
ENDCHAR
STARTCHAR 0174
ENCODING 372
SWIDTH 994 0
DWIDTH 29 0
BBX 27 27 1 0
BITMAP
000E0000
001F0000
00338000
00618000
00000000
00000000
E00E00E0
E01E01C0
601F01C0
701B01C0
701B01C0
703B0380
30338380
38318380
38318380
38718700
1861C700
1C61C700
1C60C700
1CE0CE00
0CC0EE00
0EC0EE00
0EC06E00
0FC07C00
07807C00
07807C00
07803C00
ENDCHAR
STARTCHAR 0175
ENCODING 373
SWIDTH 822 0
DWIDTH 24 0
BBX 21 23 1 0
BITMAP
007000
007800
00DC00
01CC00
018600
000000
000000
E07818
607838
607838
70F838
70DC30
30CC70
38CC70
39CC70
398E60
1986E0
1D86E0
1F86E0
1F07C0
0F03C0
0F03C0
0F03C0
ENDCHAR
STARTCHAR 0176
ENCODING 374
SWIDTH 617 0
DWIDTH 18 0
BBX 17 27 0 0
BITMAP
01E000
03E000
033000
061800
000000
000000
E00380
700380
380700
380E00
1C0E00
0E1C00
0E3800
073800
03F000
03E000
01E000
01C000
01C000
01C000
01C000
01C000
01C000
01C000
01C000
01C000
01C000
ENDCHAR
STARTCHAR 0177
ENCODING 375
SWIDTH 582 0
DWIDTH 17 0
BBX 15 29 1 -6
BITMAP
0380
07C0
06C0
0C60
1830
0000
0000
E00E
E00E
700C
701C
3018
3838
1838
1C30
1C70
0C60
0EE0
06E0
07C0
07C0
0380
0380
0300
0700
0700
7E00
7E00
7800
ENDCHAR
STARTCHAR 0178
ENCODING 376
SWIDTH 617 0
DWIDTH 18 0
BBX 17 26 0 0
BITMAP
073800
073800
073800
000000
000000
E00380
700380
380700
380E00
1C0E00
0E1C00
0E3800
073800
03F000
03E000
01E000
01C000
01C000
01C000
01C000
01C000
01C000
01C000
01C000
01C000
01C000
ENDCHAR
STARTCHAR 0179
ENCODING 377
SWIDTH 685 0
DWIDTH 20 0
BBX 18 27 1 0
BITMAP
006000
00E000
01C000
018000
000000
000000
7FFF80
7FFF80
7FFF80
000700
000E00
000C00
001C00
003800
007000
00E000
01C000
018000
038000
070000
0E0000
1C0000
380000
700000
7FFFC0
FFFFC0
FFFFC0
ENDCHAR
STARTCHAR 017A
ENCODING 378
SWIDTH 514 0
DWIDTH 15 0
BBX 13 23 1 0
BITMAP
0070
00E0
01C0
0380
0300
0000
0000
7FF8
7FF8
7FF8
0030
0060
00C0
0180
0300
0600
0C00
1800
3800
7000
FFF8
FFF8
FFF8
ENDCHAR
STARTCHAR 017B
ENCODING 379
SWIDTH 685 0
DWIDTH 20 0
BBX 18 26 1 0
BITMAP
01C000
01C000
01C000
000000
000000
7FFF80
7FFF80
7FFF80
000700
000E00
000C00
001C00
003800
007000
00E000
01C000
018000
038000
070000
0E0000
1C0000
380000
700000
7FFFC0
FFFFC0
FFFFC0
ENDCHAR
STARTCHAR 017C
ENCODING 380
SWIDTH 514 0
DWIDTH 15 0
BBX 13 22 1 0
BITMAP
0700
0700
0700
0000
0000
0000
7FF8
7FF8
7FF8
0030
0060
00C0
0180
0300
0600
0C00
1800
3800
7000
FFF8
FFF8
FFF8
ENDCHAR
STARTCHAR 017D
ENCODING 381
SWIDTH 685 0
DWIDTH 20 0
BBX 18 27 1 0
BITMAP
061800
033000
03E000
01E000
000000
000000
7FFF80
7FFF80
7FFF80
000700
000E00
000C00
001C00
003800
007000
00E000
01C000
018000
038000
070000
0E0000
1C0000
380000
700000
7FFFC0
FFFFC0
FFFFC0
ENDCHAR
STARTCHAR 017E
ENCODING 382
SWIDTH 514 0
DWIDTH 15 0
BBX 13 23 1 0
BITMAP
3060
18C0
0D80
0780
0700
0000
0000
7FF8
7FF8
7FF8
0030
0060
00C0
0180
0300
0600
0C00
1800
3800
7000
FFF8
FFF8
FFF8
ENDCHAR
STARTCHAR 017F
ENCODING 383
SWIDTH 342 0
DWIDTH 10 0
BBX 10 22 1 0
BITMAP
0FC0
1FC0
1FC0
3800
3800
3800
F800
F800
F800
3800
3800
3800
3800
3800
3800
3800
3800
3800
3800
3800
3800
3800
ENDCHAR
STARTCHAR 0180
ENCODING 384
SWIDTH 617 0
DWIDTH 18 0
BBX 17 22 0 0
BITMAP
180000
FFC000
FFC000
FFC000
180000
180000
18F800
1BFC00
1BFE00
1F0F00
1C0700
1C0380
180380
180380
180380
180380
1C0380
1C0700
1F0F00
1BFE00
1BFC00
18F800
ENDCHAR
STARTCHAR 0181
ENCODING 385
SWIDTH 720 0
DWIDTH 21 0
BBX 20 21 -1 0
BITMAP
3FFF00
7FFFC0
F7FFE0
C701E0
C700E0
C700E0
0700E0
0700E0
0701E0
07FFC0
07FF80
07FFC0
0700E0
070070
070070
070070
070070
0700F0
07FFE0
07FFC0
07FF80
ENDCHAR
STARTCHAR 0182
ENCODING 386
SWIDTH 685 0
DWIDTH 20 0
BBX 15 21 3 0
BITMAP
FFF8
FFF8
FFF8
E000
E000
E000
E000
E000
E000
FFE0
FFF8
FFFC
E03C
E01E
E00E
E00E
E01E
E03C
FFFC
FFF8
FFE0
ENDCHAR
STARTCHAR 0183
ENCODING 387
SWIDTH 617 0
DWIDTH 18 0
BBX 14 22 3 0
BITMAP
FFF0
FFF0
FFF0
C000
C000
C000
C7C0
DFE0
DFF0
F878
E038
E01C
C01C
C01C
C01C
C01C
E01C
E038
F878
DFF0
DFE0
C7C0
ENDCHAR
STARTCHAR 0184
ENCODING 388
SWIDTH 685 0
DWIDTH 20 0
BBX 18 21 0 0
BITMAP
0C0000
1C0000
1C0000
3C0000
7C0000
FC0000
1C0000
1C0000
1C0000
1FFC00
1FFF00
1FFF80
1C0780
1C03C0
1C01C0
1C01C0
1C03C0
1C0780
1FFF80
1FFF00
1FFC00
ENDCHAR
STARTCHAR 0185
ENCODING 389
SWIDTH 617 0
DWIDTH 18 0
BBX 17 22 0 0
BITMAP
080000
180000
180000
380000
780000
780000
F8F800
1BFC00
1BFE00
1F0F00
1C0700
1C0380
180380
180380
180380
180380
1C0380
1C0700
1F0F00
1BFE00
1BFC00
18F800
ENDCHAR
STARTCHAR 0186
ENCODING 390
SWIDTH 685 0
DWIDTH 20 0
BBX 17 21 2 0
BITMAP
1FC000
FFF000
FFFC00
E07E00
801E00
000F00
000700
000700
000780
000380
000380
000380
000780
000700
000700
000F00
801E00
E07E00
FFFC00
FFF000
1FC000
ENDCHAR
STARTCHAR 0187
ENCODING 391
SWIDTH 685 0
DWIDTH 20 0
BBX 21 27 2 0
BITMAP
000078
0000F8
0001F8
0003C0
000380
000380
03FF80
0FFF80
1FFF80
3E0380
780080
700000
E00000
E00000
E00000
E00000
E00000
E00000
E00000
E00000
E00000
700000
780080
3E0380
1FFF80
0FFF00
03F800
ENDCHAR
STARTCHAR 0188
ENCODING 392
SWIDTH 548 0
DWIDTH 16 0
BBX 15 22 2 0
BITMAP
000E
001E
003E
0038
0030
0030
0FF0
3FF0
7FF0
7810
F000
E000
E000
C000
C000
E000
E000
F000
7810
7FF0
3FF0
0FE0
ENDCHAR
STARTCHAR 0189
ENCODING 393
SWIDTH 754 0
DWIDTH 22 0
BBX 21 21 0 0
BITMAP
1FFC00
1FFF00
1FFFC0
1C07E0
1C01E0
1C00F0
1C0070
1C0070
1C0038
FFE038
FFE038
FFE038
1C0038
1C0078
1C0070
1C00F0
1C01E0
1C07E0
1FFFC0
1FFF00
1FF800
ENDCHAR
STARTCHAR 018A
ENCODING 394
SWIDTH 822 0
DWIDTH 24 0
BBX 23 21 -1 0
BITMAP
3FFF00
7FFFE0
F7FFF0
C701F8
C7003C
C7001C
07001E
07000E
07000E
07000E
07000E
07000E
07000E
07000E
07001E
07001C
07003C
0701F8
07FFF0
07FFE0
07FF00
ENDCHAR
STARTCHAR 018B
ENCODING 395
SWIDTH 685 0
DWIDTH 20 0
BBX 15 21 3 0
BITMAP
1FFE
1FFE
1FFE
000E
000E
000E
000E
000E
000E
0FFE
3FFE
7FFE
F00E
E00E
E00E
E00E
E00E
F00E
7FFE
3FFE
0FFE
ENDCHAR
STARTCHAR 018C
ENCODING 396
SWIDTH 617 0
DWIDTH 18 0
BBX 14 22 2 0
BITMAP
3FFC
3FFC
3FFC
001C
001C
001C
0F9C
3FDC
7FFC
787C
E03C
E01C
C01C
C01C
C01C
E01C
E01C
E03C
787C
7FFC
3FDC
0F9C
ENDCHAR
STARTCHAR 018D
ENCODING 397
SWIDTH 617 0
DWIDTH 18 0
BBX 14 22 2 -6
BITMAP
0FC0
3FE0
7FF0
7878
F03C
E01C
E01C
E01C
C01C
C01C
E01C
E018
7038
7C70
1FE0
07F0
0070
0038
2078
3FF0
3FF0
0FC0
ENDCHAR
STARTCHAR 018E
ENCODING 398
SWIDTH 617 0
DWIDTH 18 0
BBX 13 21 2 0
BITMAP
FFF8
FFF8
FFF8
0018
0018
0018
0018
0018
0018
7FF8
7FF8
7FF8
0018
0018
0018
0018
0018
0018
FFF8
FFF8
FFF8
ENDCHAR
STARTCHAR 018F
ENCODING 399
SWIDTH 788 0
DWIDTH 23 0
BBX 19 21 2 0
BITMAP
07F000
3FFE00
7FFF00
780F80
4003C0
0001C0
0001E0
0000E0
0000E0
0000E0
FFFFE0
FFFFE0
FFFFE0
E000E0
E000E0
7001C0
7803C0
3E0F80
1FFF00
0FFE00
03F800
ENDCHAR
STARTCHAR 0190
ENCODING 400
SWIDTH 617 0
DWIDTH 18 0
BBX 14 21 2 0
BITMAP
07F0
1FFC
3FFC
780C
7000
7000
7000
7000
3800
1FE0
0FE0
3FE0
7800
7000
E000
E000
F000
7804
7FFC
3FFC
07F8
ENDCHAR
STARTCHAR 0191
ENCODING 401
SWIDTH 582 0
DWIDTH 17 0
BBX 17 27 -2 -6
BITMAP
07FF80
07FF80
07FF80
070000
070000
070000
070000
070000
07FF00
07FF00
07FF00
070000
070000
070000
070000
070000
070000
070000
070000
070000
070000
0E0000
0E0000
1E0000
FC0000
FC0000
F00000
ENDCHAR
STARTCHAR 0192
ENCODING 402
SWIDTH 342 0
DWIDTH 10 0
BBX 13 28 -2 -6
BITMAP
01F8
03F8
03F8
0700
0700
0700
1FF0
1FF0
1FF0
0700
0700
0700
0700
0700
0700
0700
0700
0700
0700
0700
0700
0700
0700
0700
0E00
FE00
FC00
F800
ENDCHAR
STARTCHAR 0193
ENCODING 403
SWIDTH 754 0
DWIDTH 22 0
BBX 22 27 2 0
BITMAP
00003C
0000FC
0000FC
0001E0
0001C0
0001C0
03FDC0
0FFFC0
1FFFC0
3E03C0
780040
700000
E00000
E00000
E00000
E01FC0
E01FC0
E01FC0
E001C0
E001C0
E001C0
7001C0
7801C0
3E03C0
1FFF80
0FFF00
03FC00
ENDCHAR
STARTCHAR 0194
ENCODING 404
SWIDTH 685 0
DWIDTH 20 0
BBX 20 27 0 -6
BITMAP
F000F0
7000E0
7801C0
3801C0
1C0380
1C0380
0E0700
0E0700
070E00
071E00
039C00
03FC00
01F800
01F000
00F000
00F000
00F000
01F800
01B800
039C00
039C00
070C00
070E00
079E00
03FC00
03FC00
01F000
ENDCHAR
STARTCHAR 0195
ENCODING 405
SWIDTH 994 0
DWIDTH 29 0
BBX 23 22 3 0
BITMAP
C00000
C00000
C00000
C00000
C00000
C00000
C7C060
DFE078
DFF07C
F0703C
E0380E
E0380E
C03806
C03806
C03806
C03806
C0380E
C0380E
C03C3C
C01FFC
C01FF8
C007E0
ENDCHAR
STARTCHAR 0196
ENCODING 406
SWIDTH 342 0
DWIDTH 10 0
BBX 7 21 3 0
BITMAP
E0
E0
E0
E0
E0
E0
E0
E0
E0
E0
E0
E0
E0
E0
E0
E0
E0
F0
7E
3E
1E
ENDCHAR
STARTCHAR 0197
ENCODING 407
SWIDTH 308 0
DWIDTH 9 0
BBX 8 21 0 0
BITMAP
1C
1C
1C
1C
1C
1C
1C
1C
1C
1C
FF
FF
FF
1C
1C
1C
1C
1C
1C
1C
1C
ENDCHAR
STARTCHAR 0198
ENCODING 408
SWIDTH 754 0
DWIDTH 22 0
BBX 19 21 3 0
BITMAP
E00F00
E01F80
E03FC0
E078C0
E0F0E0
E3E0E0
E780E0
EF0000
FE0000
FC0000
FC0000
FE0000
EF0000
E78000
E3C000
E1E000
E0F000
E07800
E03C00
E01E00
E00F00
ENDCHAR
STARTCHAR 0199
ENCODING 409
SWIDTH 582 0
DWIDTH 17 0
BBX 13 22 3 0
BITMAP
3E00
7E00
FE00
E000
C000
C000
C078
C0F0
C1E0
C380
C700
CE00
DC00
F800
DC00
CE00
C700
C380
C1C0
C0E0
C070
C038
ENDCHAR
STARTCHAR 019A
ENCODING 410
SWIDTH 274 0
DWIDTH 8 0
BBX 8 22 0 0
BITMAP
18
18
18
18
18
18
18
18
18
FF
FF
FF
18
18
18
18
18
18
18
18
18
18
ENDCHAR
STARTCHAR 019B
ENCODING 411
SWIDTH 582 0
DWIDTH 17 0
BBX 15 22 1 0
BITMAP
0E10
0778
07C0
1F00
7B80
0380
01C0
03C0
03C0
03E0
07E0
0760
0E70
0E70
1C30
1C38
3838
381C
701C
700C
600E
E00E
ENDCHAR
STARTCHAR 019C
ENCODING 412
SWIDTH 960 0
DWIDTH 28 0
BBX 23 21 3 0
BITMAP
C0380E
C0380E
C0380E
C0380E
C0380E
C0380E
C0380E
C0380E
C0380E
C0380E
C0380E
C0380E
C0380E
C0380E
C0380E
C0780E
E0781E
E0FC3E
FFDFFE
7F9FEE
3E078E
ENDCHAR
STARTCHAR 019D
ENCODING 413
SWIDTH 754 0
DWIDTH 22 0
BBX 21 27 -2 -6
BITMAP
078038
07C038
07C038
07E038
07E038
077038
077038
073838
073838
071C38
071C38
070E38
070E38
070738
070338
0703B8
0701F8
0701F8
0700F8
0700F8
070078
060000
0E0000
1E0000
FE0000
FC0000
F00000
ENDCHAR
STARTCHAR 019E
ENCODING 414
SWIDTH 617 0
DWIDTH 18 0
BBX 13 22 3 -6
BITMAP
C7C0
DFE0
DFF0
F870
E038
E038
C038
C038
C038
C038
C038
C038
C038
C038
C038
C038
0038
0038
0038
0038
0038
0038
ENDCHAR
STARTCHAR 019F
ENCODING 415
SWIDTH 788 0
DWIDTH 23 0
BBX 19 21 2 0
BITMAP
03F800
0FFE00
1FFF00
3E0F80
7803C0
7001C0
F001E0
E000E0
E000E0
FFFFE0
FFFFE0
FFFFE0
E000E0
E000E0
E000E0
7001C0
7803C0
3C0F80
1FFF00
0FFE00
03F800
ENDCHAR
STARTCHAR 01A0
ENCODING 416
SWIDTH 891 0
DWIDTH 26 0
BBX 21 21 1 0
BITMAP
01FC18
07FF18
1FFF98
1F07F8
3C01F0
7800E0
7000E0
700070
700070
F00070
E00070
E00070
700070
700070
7000E0
7800E0
3C01E0
1F07C0
1FFF80
07FF00
01FC00
ENDCHAR
STARTCHAR 01A1
ENCODING 417
SWIDTH 617 0
DWIDTH 18 0
BBX 15 17 2 0
BITMAP
0002
0FC2
3FF6
7FFE
787E
F03C
E01C
E01C
C01C
C01C
E01C
E01C
E03C
7878
7FF8
3FF0
0FC0
ENDCHAR
STARTCHAR 01A2
ENCODING 418
SWIDTH 960 0
DWIDTH 28 0
BBX 23 21 2 0
BITMAP
03FFF0
0FFFF8
1FFFFC
3E07BC
78039C
70038E
F0038E
E0038E
E0038E
E0038E
E0038E
E0038E
E0038E
E0038E
E0038E
70038E
78038E
3E0F8E
1FFF0E
0FFE0E
03F80E
ENDCHAR
STARTCHAR 01A3
ENCODING 419
SWIDTH 754 0
DWIDTH 22 0
BBX 17 22 2 -6
BITMAP
0FFE00
3FFF00
7FFF80
787380
E03180
E03180
C03180
C03180
C03180
C03180
E03180
E03180
787180
7FF180
3FF180
0FC180
000180
000180
000180
000180
000180
000180
ENDCHAR
STARTCHAR 01A4
ENCODING 420
SWIDTH 651 0
DWIDTH 19 0
BBX 19 21 -1 0
BITMAP
3FFE00
7FFF80
F7FFC0
C703C0
C701E0
C700E0
0700E0
0700E0
0701E0
0703C0
07FFC0
07FF80
07FE00
070000
070000
070000
070000
070000
070000
070000
070000
ENDCHAR
STARTCHAR 01A5
ENCODING 421
SWIDTH 617 0
DWIDTH 18 0
BBX 14 28 3 -6
BITMAP
3F00
7F00
FF00
E000
E000
C000
CFC0
DFE0
FFF0
F878
E038
E01C
C01C
C01C
C01C
C01C
E01C
E038
F878
DFF0
DFE0
C7C0
C000
C000
C000
C000
C000
C000
ENDCHAR
STARTCHAR 01A6
ENCODING 422
SWIDTH 685 0
DWIDTH 20 0
BBX 16 25 3 -4
BITMAP
E000
E000
E000
E000
FFC0
FFF0
FFF8
E078
E038
E038
E038
E038
E078
FFF0
FFC0
FFE0
E0F0
E078
E038
E01C
E01C
001E
000E
000F
0007
ENDCHAR
STARTCHAR 01A7
ENCODING 423
SWIDTH 617 0
DWIDTH 18 0
BBX 14 21 2 0
BITMAP
1FE0
7FF0
7FF8
603C
001C
000C
000C
001C
007C
07F8
3FF0
7F00
F000
E000
E000
E000
E000
F80C
7FFC
3FFC
0FF0
ENDCHAR
STARTCHAR 01A8
ENCODING 424
SWIDTH 514 0
DWIDTH 15 0
BBX 13 16 1 0
BITMAP
1FC0
7FE0
7FF0
6070
0030
0030
01F0
1FC0
7C00
7000
E000
E008
7038
7FF8
3FF0
0FC0
ENDCHAR
STARTCHAR 01A9
ENCODING 425
SWIDTH 617 0
DWIDTH 18 0
BBX 13 21 3 0
BITMAP
FFF8
FFF8
FFF8
F000
7800
3C00
1E00
0F00
0780
03C0
0380
0780
0F00
0E00
1C00
3800
7000
F000
FFF8
FFF8
FFF8
ENDCHAR
STARTCHAR 01AA
ENCODING 426
SWIDTH 342 0
DWIDTH 10 0
BBX 14 28 -4 -6
BITMAP
3E00
7F80
FF80
FFF0
FFF0
7FF0
0180
0180
0180
0180
0180
0180
0180
0180
0180
0180
0180
0180
0180
0180
0180
0180
0180
0180
01C0
01FC
00FC
007C
ENDCHAR
STARTCHAR 01AB
ENCODING 427
SWIDTH 377 0
DWIDTH 11 0
BBX 10 27 1 -6
BITMAP
3000
3000
3000
3000
3000
FFC0
FFC0
FFC0
3000
3000
3000
3000
3000
3000
3000
3000
3000
3800
3FC0
1FC0
0FC0
01C0
01C0
0380
0F80
0F80
0E00
ENDCHAR
STARTCHAR 01AC
ENCODING 428
SWIDTH 617 0
DWIDTH 18 0
BBX 18 21 0 0
BITMAP
1FFFC0
7FFFC0
7FFFC0
E1C000
E1C000
E1C000
01C000
01C000
01C000
01C000
01C000
01C000
01C000
01C000
01C000
01C000
01C000
01C000
01C000
01C000
01C000
ENDCHAR
STARTCHAR 01AD
ENCODING 429
SWIDTH 377 0
DWIDTH 11 0
BBX 10 22 1 0
BITMAP
0F80
1F80
3F80
3800
3800
3000
FFC0
FFC0
FFC0
3000
3000
3000
3000
3000
3000
3000
3000
3000
3800
3FC0
1FC0
0FC0
ENDCHAR
STARTCHAR 01AE
ENCODING 430
SWIDTH 617 0
DWIDTH 18 0
BBX 18 27 0 -6
BITMAP
FFFFC0
FFFFC0
FFFFC0
01C000
01C000
01C000
01C000
01C000
01C000
01C000
01C000
01C000
01C000
01C000
01C000
01C000
01C000
01C000
01C000
01C000
01C000
01C000
00E000
00F000
00FE00
007E00
001E00
ENDCHAR
STARTCHAR 01AF
ENCODING 431
SWIDTH 857 0
DWIDTH 25 0
BBX 21 21 2 0
BITMAP
E00398
E00398
E00398
E003F8
E003F0
E00380
E00380
E00380
E00380
E00380
E00380
E00380
E00380
E00380
700700
700700
700700
3C1F00
3FFE00
1FFC00
07F000
ENDCHAR
STARTCHAR 01B0
ENCODING 432
SWIDTH 617 0
DWIDTH 18 0
BBX 18 17 2 0
BITMAP
000080
E01CC0
E01CC0
E01F80
E01F80
E01C00
E01C00
E01C00
E01C00
E01C00
E01C00
601C00
703C00
787C00
7FFC00
3FDC00
1F1C00
ENDCHAR
STARTCHAR 01B1
ENCODING 433
SWIDTH 754 0
DWIDTH 22 0
BBX 20 21 1 0
BITMAP
FF8FF0
FF8FF0
FF8FF0
0F0F00
1C0380
3801C0
3800E0
7000E0
7000E0
E00070
E00070
E00070
E00070
F00070
7000E0
7800E0
3C01E0
3E07C0
1FFF80
0FFF00
01F800
ENDCHAR
STARTCHAR 01B2
ENCODING 434
SWIDTH 720 0
DWIDTH 21 0
BBX 17 21 3 0
BITMAP
E00000
E00000
E00000
E03800
E01C00
E00E00
E00F00
E00700
E00700
E00380
E00380
E00380
E00380
E00380
E00700
E00F00
E00F00
F03E00
7FFC00
7FF800
1FC000
ENDCHAR
STARTCHAR 01B3
ENCODING 435
SWIDTH 754 0
DWIDTH 22 0
BBX 22 21 0 0
BITMAP
E001E0
7003F8
3807F8
380F18
1C0E1C
0E1E1C
0E3C00
073800
03F000
03F000
01E000
01C000
01C000
01C000
01C000
01C000
01C000
01C000
01C000
01C000
01C000
ENDCHAR
STARTCHAR 01B4
ENCODING 436
SWIDTH 720 0
DWIDTH 21 0
BBX 20 22 1 -6
BITMAP
E003C0
E00FE0
700FF0
701C70
301C30
383830
183800
1C3000
1C7000
0C7000
0EE000
06E000
07C000
07C000
038000
038000
030000
070000
070000
7E0000
7E0000
780000
ENDCHAR
STARTCHAR 01B5
ENCODING 437
SWIDTH 685 0
DWIDTH 20 0
BBX 18 21 1 0
BITMAP
7FFF80
7FFF80
7FFF80
000700
000E00
001C00
003C00
003800
007000
3FFF00
3FFF00
3FFF00
038000
070000
0E0000
1C0000
180000
300000
7FFFC0
FFFFC0
FFFFC0
ENDCHAR
STARTCHAR 01B6
ENCODING 438
SWIDTH 514 0
DWIDTH 15 0
BBX 13 16 1 0
BITMAP
7FF8
7FF8
7FF8
0030
0060
00E0
01C0
7FF0
7FF0
7FF0
0E00
1800
3000
7FF8
FFF8
FFF8
ENDCHAR
STARTCHAR 01B7
ENCODING 439
SWIDTH 651 0
DWIDTH 19 0
BBX 16 21 2 0
BITMAP
FFFE
FFFE
FFFE
001C
0038
0070
00E0
01C0
0380
03F0
03FC
03FE
001E
0007
0007
0007
8007
701E
7FFE
3FFC
0FF0
ENDCHAR
STARTCHAR 01B8
ENCODING 440
SWIDTH 651 0
DWIDTH 19 0
BBX 16 21 1 0
BITMAP
3FFF
3FFF
3FFF
3C00
1C00
0E00
0700
0380
01C0
07E0
1FE0
3FE0
7800
F000
E000
E000
F001
780F
7FFF
1FFE
07F0
ENDCHAR
STARTCHAR 01B9
ENCODING 441
SWIDTH 582 0
DWIDTH 17 0
BBX 14 22 1 -6
BITMAP
3FFC
3FFC
3FFC
1800
0C00
0E00
0600
0300
0180
07C0
1FC0
3FE0
7800
7000
6000
E000
6000
7000
7C04
3FFC
1FFC
07F8
ENDCHAR
STARTCHAR 01BA
ENCODING 442
SWIDTH 514 0
DWIDTH 15 0
BBX 12 22 2 -6
BITMAP
FFF0
FFF0
0070
00E0
01C0
0380
0780
0700
0F80
1FE0
00F0
0070
0070
00F0
1FE0
7F80
F000
C000
E000
F030
7FF0
1FE0
ENDCHAR
STARTCHAR 01BB
ENCODING 443
SWIDTH 617 0
DWIDTH 18 0
BBX 14 21 2 1
BITMAP
7FE0
FFF0
E078
8038
0038
0018
0038
0038
0038
0070
7FF8
7FF8
03C0
0780
0F00
1E00
3C00
7800
F000
FFFC
FFFC
ENDCHAR
STARTCHAR 01BC
ENCODING 444
SWIDTH 651 0
DWIDTH 19 0
BBX 17 22 1 -1
BITMAP
3FFE00
3FFE00
3FFE00
380000
380000
380000
380000
380000
380000
3FF800
3FFC00
3FFF00
000F00
000380
000380
E00380
E00380
700780
7C0F00
3FFF00
1FFE00
07F800
ENDCHAR
STARTCHAR 01BD
ENCODING 445
SWIDTH 582 0
DWIDTH 17 0
BBX 14 22 1 -6
BITMAP
3FF8
3FF8
3FF8
3000
3000
3000
3000
3000
3000
3FC0
3FF0
3FF8
007C
001C
001C
000C
001C
001C
807C
FFF8
FFF0
3FC0
ENDCHAR
STARTCHAR 01BE
ENCODING 446
SWIDTH 514 0
DWIDTH 15 0
BBX 12 20 1 0
BITMAP
0E00
0E00
0E00
0E00
7FC0
7FC0
0E00
0E00
0F80
0FC0
00E0
0070
0070
0070
0070
0070
0070
80E0
FFC0
FF80
ENDCHAR
STARTCHAR 01BF
ENCODING 447
SWIDTH 617 0
DWIDTH 18 0
BBX 14 22 3 -6
BITMAP
C7E0
CFF8
DFF8
FC3C
F01C
E01C
C01C
C018
C018
C030
C070
C0E0
C1C0
C380
CF00
DC00
F800
E000
C000
C000
C000
C000
ENDCHAR
STARTCHAR 01C0
ENCODING 448
SWIDTH 308 0
DWIDTH 9 0
BBX 3 28 3 -6
BITMAP
E0
E0
E0
E0
E0
E0
E0
E0
E0
E0
E0
E0
E0
E0
E0
E0
E0
E0
E0
E0
E0
E0
E0
E0
E0
E0
E0
E0
ENDCHAR
STARTCHAR 01C1
ENCODING 449
SWIDTH 480 0
DWIDTH 14 0
BBX 8 28 3 -6
BITMAP
E3
E3
E3
E3
E3
E3
E3
E3
E3
E3
E3
E3
E3
E3
E3
E3
E3
E3
E3
E3
E3
E3
E3
E3
E3
E3
E3
E3
ENDCHAR
STARTCHAR 01C2
ENCODING 450
SWIDTH 445 0
DWIDTH 13 0
BBX 13 28 0 -6
BITMAP
0700
0700
0700
0700
0700
0700
0700
0700
FFF8
FFF8
FFF8
0700
0700
0700
FFF8
FFF8
FFF8
0700
0700
0700
0700
0700
0700
0700
0700
0700
0700
0700
ENDCHAR
STARTCHAR 01C3
ENCODING 451
SWIDTH 308 0
DWIDTH 9 0
BBX 3 21 3 0
BITMAP
E0
E0
E0
E0
E0
E0
E0
E0
E0
E0
E0
E0
E0
C0
00
00
00
E0
E0
E0
E0
ENDCHAR
STARTCHAR 01C4
ENCODING 452
SWIDTH 1405 0
DWIDTH 41 0
BBX 36 27 3 0
BITMAP
000000C700
000000E600
0000006C00
0000003800
0000000000
0000000000
FFE01FFFF0
FFF81FFFF0
FFFE1FFFF0
E03F0000E0
E00F0001C0
E007800380
E003800700
E003800E00
E003C00C00
E001C01C00
E001C03800
E001C07000
E003C0E000
E00381C000
E003818000
E007838000
E00F070000
E03F0E0000
FFFE1FFFF0
FFF81FFFF0
FFC01FFFF0
ENDCHAR
STARTCHAR 01C5
ENCODING 453
SWIDTH 1302 0
DWIDTH 38 0
BBX 32 23 3 0
BITMAP
0000030C
00000318
FFE001B8
FFF800F0
FFFE00E0
E03F0000
E00F0000
E0078FFF
E0038FFF
E0038FFF
E003C006
E001C00C
E001C018
E001C030
E003C060
E00380C0
E00381C0
E0078380
E00F0700
E03F0600
FFFE0FFF
FFF81FFF
FFC01FFF
ENDCHAR
STARTCHAR 01C6
ENCODING 454
SWIDTH 1131 0
DWIDTH 33 0
BBX 29 23 2 0
BITMAP
00001860
001C18C0
001C0DC0
001C0780
001C0700
001C0000
001C0000
0F9C7FF8
3FDC7FF8
7FFC7FF8
787C0030
E03C0060
E01C00C0
C01C0180
C01C0300
C01C0600
E01C0C00
E01C1C00
E03C3800
787C7000
7FFC7FF8
3FDCFFF8
0F9CFFF8
ENDCHAR
STARTCHAR 01C7
ENCODING 455
SWIDTH 822 0
DWIDTH 24 0
BBX 19 27 3 -6
BITMAP
E000E0
E000E0
E000E0
E000E0
E000E0
E000E0
E000E0
E000E0
E000E0
E000E0
E000E0
E000E0
E000E0
E000E0
E000E0
E000E0
E000E0
E000E0
FFF8E0
FFF8E0
FFF8E0
0000E0
0000E0
0001E0
000FC0
000FC0
000F00
ENDCHAR
STARTCHAR 01C8
ENCODING 456
SWIDTH 788 0
DWIDTH 23 0
BBX 18 28 3 -6
BITMAP
0000C0
E000C0
E000C0
E00000
E00000
E00000
E000C0
E000C0
E000C0
E000C0
E000C0
E000C0
E000C0
E000C0
E000C0
E000C0
E000C0
E000C0
E000C0
FFF8C0
FFF8C0
FFF8C0
0000C0
0001C0
0001C0
000FC0
000F80
000F00
ENDCHAR
STARTCHAR 01C9
ENCODING 457
SWIDTH 445 0
DWIDTH 13 0
BBX 8 28 3 -6
BITMAP
C7
C7
C7
C0
C0
C0
C7
C7
C7
C7
C7
C7
C7
C7
C7
C7
C7
C7
C7
C7
C7
C7
07
07
0E
3E
3C
38
ENDCHAR
STARTCHAR 01CA
ENCODING 458
SWIDTH 925 0
DWIDTH 27 0
BBX 22 27 3 -6
BITMAP
F0071C
F8071C
F8071C
FC071C
FC071C
EE071C
EE071C
E7071C
E7071C
E3871C
E3871C
E1C71C
E1C71C
E0E71C
E0671C
E0771C
E03F1C
E03F1C
E01F1C
E01F1C
E00F1C
00001C
00001C
00003C
0001F8
0001F0
0001E0
ENDCHAR
STARTCHAR 01CB
ENCODING 459
SWIDTH 925 0
DWIDTH 27 0
BBX 21 28 3 -6
BITMAP
000018
F00718
F80718
F80700
FC0700
FC0700
EE0718
EE0718
E70718
E70718
E38718
E38718
E1C718
E1C718
E0E718
E06718
E07718
E03F18
E03F18
E01F18
E01F18
E00F18
000018
000018
000038
0001F8
0001F0
0001E0
ENDCHAR
STARTCHAR 01CC
ENCODING 460
SWIDTH 788 0
DWIDTH 23 0
BBX 18 28 3 -6
BITMAP
0000C0
0000C0
0000C0
000000
000000
000000
C7C0C0
DFE0C0
DFF0C0
F070C0
E038C0
E038C0
C038C0
C038C0
C038C0
C038C0
C038C0
C038C0
C038C0
C038C0
C038C0
C038C0
0000C0
0001C0
0001C0
000FC0
000F80
000F00
ENDCHAR
STARTCHAR 01CD
ENCODING 461
SWIDTH 685 0
DWIDTH 20 0
BBX 19 27 0 0
BITMAP
030C00
019800
01F000
00F000
000000
000000
00F000
00F000
01F800
01F800
019800
039C00
039C00
070C00
070E00
060E00
0E0700
0E0700
1C0300
1FFF80
1FFF80
3FFF80
3801C0
3801C0
7000E0
7000E0
E000E0
ENDCHAR
STARTCHAR 01CE
ENCODING 462
SWIDTH 617 0
DWIDTH 18 0
BBX 13 23 2 0
BITMAP
3060
18C0
0D80
0F80
0700
0000
0000
1F80
7FE0
7FF0
4070
0038
0038
1FF8
7FF8
FFF8
F018
C038
C038
E0F8
FFD8
7F98
3F18
ENDCHAR
STARTCHAR 01CF
ENCODING 463
SWIDTH 308 0
DWIDTH 9 0
BBX 8 27 0 0
BITMAP
C3
67
3E
1C
00
00
1C
1C
1C
1C
1C
1C
1C
1C
1C
1C
1C
1C
1C
1C
1C
1C
1C
1C
1C
1C
1C
ENDCHAR
STARTCHAR 01D0
ENCODING 464
SWIDTH 274 0
DWIDTH 8 0
BBX 8 23 0 0
BITMAP
C3
67
66
3C
18
00
00
18
18
18
18
18
18
18
18
18
18
18
18
18
18
18
18
ENDCHAR
STARTCHAR 01D1
ENCODING 465
SWIDTH 788 0
DWIDTH 23 0
BBX 19 27 2 0
BITMAP
071800
033800
01B000
00E000
000000
000000
03F800
0FFE00
1FFF00
3E0F80
7803C0
7001C0
F001E0
E000E0
E000E0
E000E0
E000E0
E000E0
E000E0
E000E0
E001E0
7001C0
7803C0
3E0F80
1FFF00
0FFE00
03F800
ENDCHAR
STARTCHAR 01D2
ENCODING 466
SWIDTH 617 0
DWIDTH 18 0
BBX 14 23 2 0
BITMAP
1860
1CC0
0CC0
0780
0300
0000
0000
0FC0
3FF0
7FF8
7878
E03C
E01C
C01C
C01C
C01C
C01C
E01C
E03C
7878
7FF8
3FF0
0FC0
ENDCHAR
STARTCHAR 01D3
ENCODING 467
SWIDTH 720 0
DWIDTH 21 0
BBX 16 27 3 0
BITMAP
0C30
0660
07C0
0380
0000
0000
C007
C007
C007
C007
C007
C007
C007
C007
C007
C007
C007
C007
C007
C007
E007
E00E
F00E
783E
7FFC
3FF8
0FE0
ENDCHAR
STARTCHAR 01D4
ENCODING 468
SWIDTH 617 0
DWIDTH 18 0
BBX 14 23 2 0
BITMAP
1860
1CC0
0CC0
0780
0300
0000
0000
E01C
E01C
E01C
E01C
E01C
E01C
E01C
E01C
E01C
E01C
601C
703C
707C
7FFC
3FDC
1F9C
ENDCHAR
STARTCHAR 01D5
ENCODING 469
SWIDTH 720 0
DWIDTH 21 0
BBX 16 30 3 0
BITMAP
1FF0
1FF0
1FF0
0000
1C70
1C70
1C70
0000
0000
C007
C007
C007
C007
C007
C007
C007
C007
C007
C007
C007
C007
C007
C007
E007
E00E
F00E
783E
7FFC
3FF8
0FE0
ENDCHAR
STARTCHAR 01D6
ENCODING 470
SWIDTH 617 0
DWIDTH 18 0
BBX 14 26 2 0
BITMAP
1FE0
1FE0
1FE0
0000
1CE0
1CE0
1CE0
0000
0000
0000
E01C
E01C
E01C
E01C
E01C
E01C
E01C
E01C
E01C
E01C
601C
703C
707C
7FFC
3FDC
1F9C
ENDCHAR
STARTCHAR 01D7
ENCODING 471
SWIDTH 720 0
DWIDTH 21 0
BBX 16 31 3 0
BITMAP
0060
00E0
01C0
0180
0000
1C70
1C70
1C70
0000
0000
C007
C007
C007
C007
C007
C007
C007
C007
C007
C007
C007
C007
C007
C007
E007
E00E
F00E
783E
7FFC
3FF8
0FE0
ENDCHAR
STARTCHAR 01D8
ENCODING 472
SWIDTH 617 0
DWIDTH 18 0
BBX 14 27 2 0
BITMAP
00E0
01C0
0180
0300
0000
1CE0
1CE0
1CE0
0000
0000
0000
E01C
E01C
E01C
E01C
E01C
E01C
E01C
E01C
E01C
E01C
601C
703C
707C
7FFC
3FDC
1F9C
ENDCHAR
STARTCHAR 01D9
ENCODING 473
SWIDTH 720 0
DWIDTH 21 0
BBX 16 31 3 0
BITMAP
0C70
0E60
06C0
0380
0000
1C70
1C70
1C70
0000
0000
C007
C007
C007
C007
C007
C007
C007
C007
C007
C007
C007
C007
C007
C007
E007
E00E
F00E
783E
7FFC
3FF8
0FE0
ENDCHAR
STARTCHAR 01DA
ENCODING 474
SWIDTH 617 0
DWIDTH 18 0
BBX 14 27 2 0
BITMAP
1860
0CC0
07C0
0780
0000
1CE0
1CE0
1CE0
0000
0000
0000
E01C
E01C
E01C
E01C
E01C
E01C
E01C
E01C
E01C
E01C
601C
703C
707C
7FFC
3FDC
1F9C
ENDCHAR
STARTCHAR 01DB
ENCODING 475
SWIDTH 720 0
DWIDTH 21 0
BBX 16 31 3 0
BITMAP
0C00
0600
0700
0380
0000
1C70
1C70
1C70
0000
0000
C007
C007
C007
C007
C007
C007
C007
C007
C007
C007
C007
C007
C007
C007
E007
E00E
F00E
783E
7FFC
3FF8
0FE0
ENDCHAR
STARTCHAR 01DC
ENCODING 476
SWIDTH 617 0
DWIDTH 18 0
BBX 14 27 2 0
BITMAP
1C00
0E00
0600
0300
0000
1CE0
1CE0
1CE0
0000
0000
0000
E01C
E01C
E01C
E01C
E01C
E01C
E01C
E01C
E01C
E01C
601C
703C
707C
7FFC
3FDC
1F9C
ENDCHAR
STARTCHAR 01DD
ENCODING 477
SWIDTH 617 0
DWIDTH 18 0
BBX 14 16 2 0
BITMAP
3F80
FFE0
FFF0
C078
001C
001C
FFFC
FFFC
FFFC
C01C
C01C
E03C
7078
7FF0
3FE0
0FC0
ENDCHAR
STARTCHAR 01DE
ENCODING 478
SWIDTH 685 0
DWIDTH 20 0
BBX 19 30 0 0
BITMAP
03FC00
03FC00
03FC00
000000
039C00
039C00
039C00
000000
000000
00F000
00F000
01F800
01F800
019800
039C00
039C00
070C00
070E00
060E00
0E0700
0E0700
1C0300
1FFF80
1FFF80
3FFF80
3801C0
3801C0
7000E0
7000E0
E000E0
ENDCHAR
STARTCHAR 01DF
ENCODING 479
SWIDTH 617 0
DWIDTH 18 0
BBX 13 26 2 0
BITMAP
3FE0
3FE0
3FE0
0000
38E0
38E0
38E0
0000
0000
0000
1F80
7FE0
7FF0
4070
0038
0038
1FF8
7FF8
FFF8
F018
C038
C038
E0F8
FFD8
7F98
3F18
ENDCHAR
STARTCHAR 01E0
ENCODING 480
SWIDTH 685 0
DWIDTH 20 0
BBX 19 30 0 0
BITMAP
03FC00
03FC00
03FC00
000000
00E000
00E000
00E000
000000
000000
00F000
00F000
01F800
01F800
019800
039C00
039C00
070C00
070E00
060E00
0E0700
0E0700
1C0300
1FFF80
1FFF80
3FFF80
3801C0
3801C0
7000E0
7000E0
E000E0
ENDCHAR
STARTCHAR 01E1
ENCODING 481
SWIDTH 617 0
DWIDTH 18 0
BBX 13 25 2 0
BITMAP
3FE0
3FE0
3FE0
0000
0700
0700
0700
0000
0000
1F80
7FE0
7FF0
4070
0038
0038
1FF8
7FF8
FFF8
F018
C038
C038
E0F8
FFD8
7F98
3F18
ENDCHAR
STARTCHAR 01E2
ENCODING 482
SWIDTH 960 0
DWIDTH 28 0
BBX 26 27 0 0
BITMAP
0007FC00
0007FC00
0007FC00
00000000
00000000
00000000
007FFFC0
00FFFFC0
00FFFFC0
01E70000
01C70000
01C70000
03870000
03870000
07070000
0707FFC0
0607FFC0
0E07FFC0
0E070000
1FFF0000
1FFF0000
3FFF0000
38070000
38070000
7007FFC0
7007FFC0
E007FFC0
ENDCHAR
STARTCHAR 01E3
ENCODING 483
SWIDTH 960 0
DWIDTH 28 0
BBX 25 22 2 0
BITMAP
00FF0000
00FF0000
00FF0000
00000000
00000000
00000000
1F81F800
7FE7FC00
7FFFFE00
407E0700
003C0300
00380380
1FFFFF80
7FFFFF80
FFFFFF80
F0380000
C0380000
C03C0100
E0FF0700
FFEFFF00
7FC7FF00
1F01F800
ENDCHAR
STARTCHAR 01E4
ENCODING 484
SWIDTH 754 0
DWIDTH 22 0
BBX 20 21 2 0
BITMAP
03FC00
0FFF80
1FFFC0
3E03C0
780040
700000
E00000
E00000
E00000
E01E00
E01FC0
E01FC0
E001C0
E00FF0
E001C0
7001C0
7801C0
3E03C0
1FFF80
0FFF00
03FC00
ENDCHAR
STARTCHAR 01E5
ENCODING 485
SWIDTH 617 0
DWIDTH 18 0
BBX 16 22 2 -6
BITMAP
0F9C
3FDC
7FFC
787C
E03C
E01C
C01C
C01C
C01C
C01C
E01C
E03C
787C
7FFC
3FDC
0F9C
7FFF
0038
2078
3FF0
3FE0
1F80
ENDCHAR
STARTCHAR 01E6
ENCODING 486
SWIDTH 754 0
DWIDTH 22 0
BBX 18 27 2 0
BITMAP
030C00
019800
01F000
00F000
000000
000000
03FC00
0FFF80
1FFFC0
3E03C0
780040
700000
E00000
E00000
E00000
E01FC0
E01FC0
E01FC0
E001C0
E001C0
E001C0
7001C0
7801C0
3E03C0
1FFF80
0FFF00
03FC00
ENDCHAR
STARTCHAR 01E7
ENCODING 487
SWIDTH 617 0
DWIDTH 18 0
BBX 14 29 2 -6
BITMAP
30C0
18C0
0D80
0F00
0700
0000
0000
0F9C
3FDC
7FFC
787C
E03C
E01C
C01C
C01C
C01C
C01C
E01C
E03C
787C
7FFC
3FDC
0F9C
0018
0038
2078
3FF0
3FE0
1FC0
ENDCHAR
STARTCHAR 01E8
ENCODING 488
SWIDTH 651 0
DWIDTH 19 0
BBX 16 27 3 0
BITMAP
18C0
1CC0
0D80
0700
0000
0000
E00E
E01C
E038
E0F0
E1E0
E3C0
E780
EF00
FE00
FC00
FC00
FE00
EF00
E780
E3C0
E1E0
E0F0
E078
E03C
E01E
E00F
ENDCHAR
STARTCHAR 01E9
ENCODING 489
SWIDTH 582 0
DWIDTH 17 0
BBX 16 27 0 0
BITMAP
C300
6600
3C00
3C00
0000
1800
1800
1800
1800
1800
1800
180F
181E
183C
1870
18E0
19C0
1B80
1F00
1B80
19C0
18E0
1870
1838
181C
180E
1807
ENDCHAR
STARTCHAR 01EA
ENCODING 490
SWIDTH 788 0
DWIDTH 23 0
BBX 19 27 2 -6
BITMAP
03F800
0FFE00
1FFF00
3E0F80
7803C0
7001C0
F001E0
E000E0
E000E0
E000E0
E000E0
E000E0
E000E0
E000E0
E001E0
7001C0
7803C0
3E0F80
1FFF00
0FFE00
03F800
00C000
008000
018000
018000
01F000
00F000
ENDCHAR
STARTCHAR 01EB
ENCODING 491
SWIDTH 617 0
DWIDTH 18 0
BBX 14 22 2 -6
BITMAP
0FC0
3FF0
7FF8
7878
E03C
E01C
C01C
C01C
C01C
C01C
E01C
E03C
7878
7FF8
3FF0
0FC0
0200
0600
0600
0600
07C0
03C0
ENDCHAR
STARTCHAR 01EC
ENCODING 492
SWIDTH 788 0
DWIDTH 23 0
BBX 19 32 2 -6
BITMAP
07FC00
07FC00
07FC00
000000
000000
03F800
0FFE00
1FFF00
3E0F80
7803C0
7001C0
F001E0
E000E0
E000E0
E000E0
E000E0
E000E0
E000E0
E000E0
E001E0
7001C0
7803C0
3E0F80
1FFF00
0FFE00
03F800
00C000
008000
018000
018000
01F000
00F000
ENDCHAR
STARTCHAR 01ED
ENCODING 493
SWIDTH 617 0
DWIDTH 18 0
BBX 14 28 2 -6
BITMAP
1FE0
1FE0
1FE0
0000
0000
0000
0FC0
3FF0
7FF8
7878
E03C
E01C
C01C
C01C
C01C
C01C
E01C
E03C
7878
7FF8
3FF0
0FC0
0200
0600
0600
0600
07C0
03C0
ENDCHAR
STARTCHAR 01EE
ENCODING 494
SWIDTH 651 0
DWIDTH 19 0
BBX 16 27 2 0
BITMAP
0C30
0660
07C0
03C0
0000
0000
FFFE
FFFE
FFFE
001C
0038
0070
00E0
01C0
0380
03F0
03FC
03FE
001E
0007
0007
0007
8007
701E
7FFE
3FFC
0FF0
ENDCHAR
STARTCHAR 01EF
ENCODING 495
SWIDTH 582 0
DWIDTH 17 0
BBX 14 29 1 -6
BITMAP
3060
18C0
0D80
0780
0700
0000
0000
7FF8
7FF8
7FF8
0030
0060
00C0
0180
0100
0300
07C0
0FF0
0FF8
0078
001C
001C
001C
001C
001C
C078
FFF8
FFF0
3FC0
ENDCHAR
STARTCHAR 01F0
ENCODING 496
SWIDTH 274 0
DWIDTH 8 0
BBX 9 29 -1 -6
BITMAP
6180
3180
3B00
1E00
0E00
0000
0000
0C00
0C00
0C00
0C00
0C00
0C00
0C00
0C00
0C00
0C00
0C00
0C00
0C00
0C00
0C00
0C00
0C00
0C00
1C00
FC00
F800
F000
ENDCHAR
STARTCHAR 01F1
ENCODING 497
SWIDTH 1405 0
DWIDTH 41 0
BBX 36 21 3 0
BITMAP
FFE01FFFF0
FFF81FFFF0
FFFE1FFFF0
E03F0000E0
E00F0001C0
E007800380
E003800700
E003800E00
E003C00C00
E001C01C00
E001C03800
E001C07000
E003C0E000
E00381C000
E003818000
E007838000
E00F070000
E03F0E0000
FFFE1FFFF0
FFF81FFFF0
FFC01FFFF0
ENDCHAR
STARTCHAR 01F2
ENCODING 498
SWIDTH 1302 0
DWIDTH 38 0
BBX 32 21 3 0
BITMAP
FFE00000
FFF80000
FFFE0000
E03F0000
E00F0000
E0078FFF
E0038FFF
E0038FFF
E003C006
E001C00C
E001C018
E001C030
E003C060
E00380C0
E00381C0
E0078380
E00F0700
E03F0600
FFFE0FFF
FFF81FFF
FFC01FFF
ENDCHAR
STARTCHAR 01F3
ENCODING 499
SWIDTH 1131 0
DWIDTH 33 0
BBX 29 22 2 0
BITMAP
001C0000
001C0000
001C0000
001C0000
001C0000
001C0000
0F9C7FF8
3FDC7FF8
7FFC7FF8
787C0030
E03C0060
E01C00C0
C01C0180
C01C0300
C01C0600
E01C0C00
E01C1C00
E03C3800
787C7000
7FFC7FF8
3FDCFFF8
0F9CFFF8
ENDCHAR
STARTCHAR 01F4
ENCODING 500
SWIDTH 754 0
DWIDTH 22 0
BBX 18 27 2 0
BITMAP
003000
006000
00E000
00C000
000000
000000
03FC00
0FFF80
1FFFC0
3E03C0
780040
700000
E00000
E00000
E00000
E01FC0
E01FC0
E01FC0
E001C0
E001C0
E001C0
7001C0
7801C0
3E03C0
1FFF80
0FFF00
03FC00
ENDCHAR
STARTCHAR 01F5
ENCODING 501
SWIDTH 617 0
DWIDTH 18 0
BBX 14 29 2 -6
BITMAP
01C0
0380
0300
0600
0C00
0000
0000
0F9C
3FDC
7FFC
787C
E03C
E01C
C01C
C01C
C01C
C01C
E01C
E03C
787C
7FFC
3FDC
0F9C
0018
0038
2078
3FF0
3FE0
1FC0
ENDCHAR
STARTCHAR 01F6
ENCODING 502
SWIDTH 1097 0
DWIDTH 32 0
BBX 27 21 3 0
BITMAP
E0070000
E0070000
E0070000
E0070000
E0070000
E0070000
E00700E0
E00700E0
E00700E0
FFFF00E0
FFFF00E0
FFFF00E0
E00700E0
E00700E0
E00700E0
E00700E0
E00781E0
E007C3C0
E003FFC0
E003FF80
E000FF00
ENDCHAR
STARTCHAR 01F7
ENCODING 503
SWIDTH 685 0
DWIDTH 20 0
BBX 15 27 3 -6
BITMAP
E3F8
EFFC
FFFC
FC1E
F80E
F00E
E00E
E00E
E00E
E01C
E018
E038
E070
E1E0
E380
E700
FE00
F800
F000
E000
E000
E000
E000
E000
E000
E000
E000
ENDCHAR
STARTCHAR 01F8
ENCODING 504
SWIDTH 754 0
DWIDTH 22 0
BBX 16 27 3 0
BITMAP
0700
0380
0180
00C0
0000
0000
F007
F807
F807
FC07
FC07
EE07
EE07
E707
E707
E387
E387
E1C7
E1C7
E0E7
E067
E077
E03F
E03F
E01F
E01F
E00F
ENDCHAR
STARTCHAR 01F9
ENCODING 505
SWIDTH 617 0
DWIDTH 18 0
BBX 13 23 3 0
BITMAP
0E00
0600
0300
0180
00C0
0000
0000
C7C0
DFE0
DFF0
F070
E038
E038
C038
C038
C038
C038
C038
C038
C038
C038
C038
C038
ENDCHAR
STARTCHAR 01FA
ENCODING 506
SWIDTH 685 0
DWIDTH 20 0
BBX 19 27 0 0
BITMAP
00F0E0
01F8C0
039D80
030F00
030C00
039800
01F800
00F000
01F800
01F800
039800
039C00
031C00
070C00
070E00
060E00
0E0700
0E0700
1C0300
1FFF80
1FFF80
3FFFC0
3801C0
3801C0
7000E0
7000E0
E000E0
ENDCHAR
STARTCHAR 01FB
ENCODING 507
SWIDTH 617 0
DWIDTH 18 0
BBX 15 27 2 0
BITMAP
0006
070C
1F9C
18D8
10C0
10C0
18C0
1F80
0700
0000
0000
1F80
7FE0
7FF0
4070
0038
0038
1FF8
7FF8
FFF8
F018
C038
C038
E0F8
FFD8
7F98
3F18
ENDCHAR
STARTCHAR 01FC
ENCODING 508
SWIDTH 960 0
DWIDTH 28 0
BBX 26 27 0 0
BITMAP
0000E000
0000C000
00018000
00030000
00000000
00000000
007FFFC0
00FFFFC0
00FFFFC0
01E70000
01C70000
01C70000
03870000
03870000
07070000
0707FFC0
0607FFC0
0E07FFC0
0E070000
1FFF0000
1FFF0000
3FFF0000
38070000
38070000
7007FFC0
7007FFC0
E007FFC0
ENDCHAR
STARTCHAR 01FD
ENCODING 509
SWIDTH 960 0
DWIDTH 28 0
BBX 25 23 2 0
BITMAP
000E0000
001C0000
00380000
00700000
00600000
00000000
00000000
1F81F800
7FE7FC00
7FFFFE00
407E0700
003C0300
00380380
1FFFFF80
7FFFFF80
FFFFFF80
F0380000
C0380000
C03C0100
E0FF0700
FFEFFF00
7FC7FF00
1F01F800
ENDCHAR
STARTCHAR 01FE
ENCODING 510
SWIDTH 788 0
DWIDTH 23 0
BBX 20 27 1 -1
BITMAP
003800
003000
006000
00C000
000000
000000
01F830
07FE70
0FFF60
1F07C0
3C01C0
7803E0
7807E0
700E70
701C70
703870
707070
70E070
71C070
738070
7700F0
3E00E0
3C01E0
3F07C0
3FFF80
63FF00
E0FC00
ENDCHAR
STARTCHAR 01FF
ENCODING 511
SWIDTH 617 0
DWIDTH 18 0
BBX 16 24 1 -1
BITMAP
00E0
01C0
0180
0300
0600
0000
0002
07C7
1FF6
3FFC
7C3C
703C
707E
70EE
61CE
638E
670E
7C0E
781E
3C3C
3FFC
6FF8
C7E0
4000
ENDCHAR
STARTCHAR 0200
ENCODING 512
SWIDTH 685 0
DWIDTH 20 0
BBX 19 27 0 0
BITMAP
0E7000
073800
039800
018C00
000000
000000
00F000
00F000
01F800
01F800
019800
039C00
039C00
070C00
070E00
060E00
0E0700
0E0700
1C0300
1FFF80
1FFF80
3FFF80
3801C0
3801C0
7000E0
7000E0
E000E0
ENDCHAR
STARTCHAR 0201
ENCODING 513
SWIDTH 617 0
DWIDTH 18 0
BBX 13 23 2 0
BITMAP
3180
19C0
18C0
0C60
0660
0000
0000
1F80
7FE0
7FF0
4070
0038
0038
1FF8
7FF8
FFF8
F018
C038
C038
E0F8
FFD8
7F98
3F18
ENDCHAR
STARTCHAR 0202
ENCODING 514
SWIDTH 685 0
DWIDTH 20 0
BBX 19 27 0 0
BITMAP
006000
03F800
039C00
060400
000000
000000
00F000
00F000
01F800
01F800
019800
039C00
039C00
070C00
070E00
060E00
0E0700
0E0700
1C0300
1FFF80
1FFF80
3FFF80
3801C0
3801C0
7000E0
7000E0
E000E0
ENDCHAR
STARTCHAR 0203
ENCODING 515
SWIDTH 617 0
DWIDTH 18 0
BBX 13 23 2 0
BITMAP
0F80
1FC0
38E0
3060
0000
0000
0000
1F80
7FE0
7FF0
4070
0038
0038
1FF8
7FF8
FFF8
F018
C038
C038
E0F8
FFD8
7F98
3F18
ENDCHAR
STARTCHAR 0204
ENCODING 516
SWIDTH 617 0
DWIDTH 18 0
BBX 13 27 3 0
BITMAP
6700
7380
3980
18C0
0000
0000
FFF8
FFF8
FFF8
E000
E000
E000
E000
E000
E000
FFF8
FFF8
FFF8
E000
E000
E000
E000
E000
E000
FFF8
FFF8
FFF8
ENDCHAR
STARTCHAR 0205
ENCODING 517
SWIDTH 617 0
DWIDTH 18 0
BBX 14 23 2 0
BITMAP
3980
18C0
0CE0
0E60
0630
0000
0000
0FC0
3FF0
7FF8
783C
E01C
E00C
FFFC
FFFC
FFFC
C000
E000
E000
780C
7FFC
1FFC
0FF0
ENDCHAR
STARTCHAR 0206
ENCODING 518
SWIDTH 617 0
DWIDTH 18 0
BBX 13 27 3 0
BITMAP
0700
1FC0
38E0
3060
0000
0000
FFF8
FFF8
FFF8
E000
E000
E000
E000
E000
E000
FFF8
FFF8
FFF8
E000
E000
E000
E000
E000
E000
FFF8
FFF8
FFF8
ENDCHAR
STARTCHAR 0207
ENCODING 519
SWIDTH 617 0
DWIDTH 18 0
BBX 14 23 2 0
BITMAP
07C0
0FE0
1C70
1830
0000
0000
0000
0FC0
3FF0
7FF8
783C
E01C
E00C
FFFC
FFFC
FFFC
C000
E000
E000
780C
7FFC
1FFC
0FF0
ENDCHAR
STARTCHAR 0208
ENCODING 520
SWIDTH 308 0
DWIDTH 9 0
BBX 9 27 -1 0
BITMAP
C600
6700
3380
3980
0000
0000
0E00
0E00
0E00
0E00
0E00
0E00
0E00
0E00
0E00
0E00
0E00
0E00
0E00
0E00
0E00
0E00
0E00
0E00
0E00
0E00
0E00
ENDCHAR
STARTCHAR 0209
ENCODING 521
SWIDTH 274 0
DWIDTH 8 0
BBX 10 23 -1 0
BITMAP
E700
7300
3180
1980
18C0
0000
0000
0C00
0C00
0C00
0C00
0C00
0C00
0C00
0C00
0C00
0C00
0C00
0C00
0C00
0C00
0C00
0C00
ENDCHAR
STARTCHAR 020A
ENCODING 522
SWIDTH 308 0
DWIDTH 9 0
BBX 9 27 0 0
BITMAP
1C00
7F00
E380
C180
0000
0000
1C00
1C00
1C00
1C00
1C00
1C00
1C00
1C00
1C00
1C00
1C00
1C00
1C00
1C00
1C00
1C00
1C00
1C00
1C00
1C00
1C00
ENDCHAR
STARTCHAR 020B
ENCODING 523
SWIDTH 274 0
DWIDTH 8 0
BBX 8 23 0 0
BITMAP
3C
FF
C3
81
00
00
00
18
18
18
18
18
18
18
18
18
18
18
18
18
18
18
18
ENDCHAR
STARTCHAR 020C
ENCODING 524
SWIDTH 788 0
DWIDTH 23 0
BBX 19 27 2 0
BITMAP
0CE000
067000
073800
039800
000000
000000
03F800
0FFE00
1FFF00
3E0F80
7803C0
7001C0
F001E0
E000E0
E000E0
E000E0
E000E0
E000E0
E000E0
E000E0
E001E0
7001C0
7803C0
3E0F80
1FFF00
0FFE00
03F800
ENDCHAR
STARTCHAR 020D
ENCODING 525
SWIDTH 617 0
DWIDTH 18 0
BBX 14 23 2 0
BITMAP
3180
19C0
1CC0
0C60
0660
0000
0000
0FC0
3FF0
7FF8
7878
E03C
E01C
C01C
C01C
C01C
C01C
E01C
E03C
7878
7FF8
3FF0
0FC0
ENDCHAR
STARTCHAR 020E
ENCODING 526
SWIDTH 788 0
DWIDTH 23 0
BBX 19 27 2 0
BITMAP
00C000
03F800
071800
060C00
000000
000000
03F800
0FFE00
1FFF00
3E0F80
7803C0
7001C0
F001E0
E000E0
E000E0
E000E0
E000E0
E000E0
E000E0
E000E0
E001E0
7001C0
7803C0
3E0F80
1FFF00
0FFE00
03F800
ENDCHAR
STARTCHAR 020F
ENCODING 527
SWIDTH 617 0
DWIDTH 18 0
BBX 14 23 2 0
BITMAP
07C0
0FE0
1860
1830
0000
0000
0000
0FC0
3FF0
7FF8
7878
E03C
E01C
C01C
C01C
C01C
C01C
E01C
E03C
7878
7FF8
3FF0
0FC0
ENDCHAR
STARTCHAR 0210
ENCODING 528
SWIDTH 685 0
DWIDTH 20 0
BBX 16 27 3 0
BITMAP
E600
6300
3380
1980
0000
0000
FFC0
FFF0
FFF8
E078
E038
E038
E038
E038
E078
FFF0
FFE0
FFE0
E0F0
E078
E038
E01C
E01C
E01E
E00E
E00F
E007
ENDCHAR
STARTCHAR 0211
ENCODING 529
SWIDTH 411 0
DWIDTH 12 0
BBX 10 23 2 0
BITMAP
E600
6300
3300
3180
18C0
0000
0000
63C0
6FC0
6FC0
7C00
7000
7000
6000
6000
6000
6000
6000
6000
6000
6000
6000
6000
ENDCHAR
STARTCHAR 0212
ENCODING 530
SWIDTH 685 0
DWIDTH 20 0
BBX 16 27 3 0
BITMAP
0600
1FC0
39C0
2040
0000
0000
FFC0
FFF0
FFF8
E078
E038
E038
E038
E038
E078
FFF0
FFE0
FFE0
E0F0
E078
E038
E01C
E01C
E01E
E00E
E00F
E007
ENDCHAR
STARTCHAR 0213
ENCODING 531
SWIDTH 411 0
DWIDTH 12 0
BBX 9 23 3 0
BITMAP
3E00
7F00
6180
C180
0000
0000
0000
C780
DF80
DF80
F800
E000
E000
C000
C000
C000
C000
C000
C000
C000
C000
C000
C000
ENDCHAR
STARTCHAR 0214
ENCODING 532
SWIDTH 720 0
DWIDTH 21 0
BBX 16 27 3 0
BITMAP
3980
18C0
0C60
0670
0000
0000
C007
C007
C007
C007
C007
C007
C007
C007
C007
C007
C007
C007
C007
C007
E007
E00E
F00E
783E
7FFC
3FF8
0FE0
ENDCHAR
STARTCHAR 0215
ENCODING 533
SWIDTH 617 0
DWIDTH 18 0
BBX 14 23 2 0
BITMAP
19C0
1CC0
0C60
0660
0630
0000
0000
E01C
E01C
E01C
E01C
E01C
E01C
E01C
E01C
E01C
E01C
601C
703C
707C
7FFC
3FDC
1F9C
ENDCHAR
STARTCHAR 0216
ENCODING 534
SWIDTH 720 0
DWIDTH 21 0
BBX 16 27 3 0
BITMAP
0380
0FE0
1C70
1830
0000
0000
C007
C007
C007
C007
C007
C007
C007
C007
C007
C007
C007
C007
C007
C007
E007
E00E
F00E
783E
7FFC
3FF8
0FE0
ENDCHAR
STARTCHAR 0217
ENCODING 535
SWIDTH 617 0
DWIDTH 18 0
BBX 14 23 2 0
BITMAP
07C0
0FE0
1C70
1830
0000
0000
0000
E01C
E01C
E01C
E01C
E01C
E01C
E01C
E01C
E01C
E01C
601C
703C
707C
7FFC
3FDC
1F9C
ENDCHAR
STARTCHAR 0218
ENCODING 536
SWIDTH 617 0
DWIDTH 18 0
BBX 15 28 2 -7
BITMAP
0FF0
3FFC
7FFC
F80C
E000
E000
E000
E000
F800
7FC0
1FF0
03F8
003C
001E
000E
000E
001E
C03C
FFFC
FFF8
3FE0
0000
0000
0380
0300
0700
0600
0600
ENDCHAR
STARTCHAR 0219
ENCODING 537
SWIDTH 514 0
DWIDTH 15 0
BBX 12 23 2 -7
BITMAP
3FC0
7FE0
FFE0
E060
C000
C000
F800
3F80
03E0
00E0
0070
8070
C0F0
FFE0
FFC0
3F80
0000
0000
0700
0600
0E00
0C00
0C00
ENDCHAR
STARTCHAR 021A
ENCODING 538
SWIDTH 617 0
DWIDTH 18 0
BBX 18 28 0 -7
BITMAP
FFFFC0
FFFFC0
FFFFC0
01C000
01C000
01C000
01C000
01C000
01C000
01C000
01C000
01C000
01C000
01C000
01C000
01C000
01C000
01C000
01C000
01C000
01C000
000000
000000
01C000
01C000
018000
018000
030000
ENDCHAR
STARTCHAR 021B
ENCODING 539
SWIDTH 377 0
DWIDTH 11 0
BBX 10 28 1 -7
BITMAP
3000
3000
3000
3000
3000
FFC0
FFC0
FFC0
3000
3000
3000
3000
3000
3000
3000
3000
3000
3800
3FC0
1FC0
0FC0
0000
0000
0700
0700
0600
0E00
0C00
ENDCHAR
STARTCHAR 021C
ENCODING 540
SWIDTH 617 0
DWIDTH 18 0
BBX 14 28 2 -6
BITMAP
0100
1FE0
7FF0
7078
4038
001C
001C
001C
0038
0038
0070
01E0
07C0
1FF0
1C78
101C
001C
001C
001C
001C
0038
0078
00F0
03E0
0FC0
7F00
FC00
E000
ENDCHAR
STARTCHAR 021D
ENCODING 541
SWIDTH 514 0
DWIDTH 15 0
BBX 13 22 1 -6
BITMAP
1FC0
7FE0
6070
0070
0070
0070
0070
00E0
01C0
0F80
3FE0
3070
0030
0038
0030
0070
00F0
01E0
07C0
1F00
FC00
E000
ENDCHAR
STARTCHAR 021E
ENCODING 542
SWIDTH 754 0
DWIDTH 22 0
BBX 16 27 3 0
BITMAP
0C30
0660
07C0
03C0
0000
0000
E007
E007
E007
E007
E007
E007
E007
E007
E007
FFFF
FFFF
FFFF
E007
E007
E007
E007
E007
E007
E007
E007
E007
ENDCHAR
STARTCHAR 021F
ENCODING 543
SWIDTH 617 0
DWIDTH 18 0
BBX 16 27 0 0
BITMAP
C300
6600
3E00
3C00
0000
1800
1800
1800
1800
1800
1800
18F8
1BFC
1BFE
1E0E
1C07
1C07
1807
1807
1807
1807
1807
1807
1807
1807
1807
1807
ENDCHAR
STARTCHAR 0220
ENCODING 544
SWIDTH 720 0
DWIDTH 21 0
BBX 15 27 3 -6
BITMAP
E3F0
EFF8
FFFC
FC3E
F00E
F00E
E00E
E006
E006
E006
E006
E006
E006
E006
E006
E006
E006
E006
E006
E006
E006
0006
0006
0006
0006
0006
0006
ENDCHAR
STARTCHAR 0221
ENCODING 545
SWIDTH 822 0
DWIDTH 24 0
BBX 21 24 2 -2
BITMAP
001C00
001C00
001C00
001C00
001C00
001C00
1F9C00
3FDC00
787C00
F03C00
E01C00
E01C00
C01C00
C01C00
C01C00
C01CF0
E01FF0
E01FB8
E03F38
707E38
3FFFF0
1F8FE0
001C00
001C00
ENDCHAR
STARTCHAR 0222
ENCODING 546
SWIDTH 685 0
DWIDTH 20 0
BBX 17 21 2 0
BITMAP
007000
001C00
1E0E00
780700
700700
E00700
E00700
F00F00
781E00
3FFC00
0FF000
3FFE00
780F00
E00700
E00380
E00380
E00780
F80F00
7FFF00
3FFC00
0FF000
ENDCHAR
STARTCHAR 0223
ENCODING 547
SWIDTH 617 0
DWIDTH 18 0
BBX 14 18 2 0
BITMAP
6038
E018
E018
E018
6038
7878
3FF0
1FC0
7FF0
F078
E01C
E01C
E01C
E01C
F03C
7FF8
7FF0
1FC0
ENDCHAR
STARTCHAR 0224
ENCODING 548
SWIDTH 685 0
DWIDTH 20 0
BBX 18 27 1 -6
BITMAP
7FFF80
7FFF80
7FFF80
000700
000E00
000C00
001C00
003800
007000
00E000
01C000
018000
038000
070000
0E0000
1C0000
380000
700000
7FFFC0
FFFFC0
FFFFC0
0001C0
000180
000380
007F80
007F00
007E00
ENDCHAR
STARTCHAR 0225
ENCODING 549
SWIDTH 514 0
DWIDTH 15 0
BBX 13 22 1 -6
BITMAP
7FF8
7FF8
7FF8
0030
0060
00C0
0180
0300
0600
0C00
1800
3800
7000
FFF8
FFF8
FFF8
0038
0038
0038
07F0
07F0
07E0
ENDCHAR
STARTCHAR 0226
ENCODING 550
SWIDTH 685 0
DWIDTH 20 0
BBX 19 26 0 0
BITMAP
00E000
00E000
00E000
000000
000000
00F000
00F000
01F800
01F800
019800
039C00
039C00
070C00
070E00
060E00
0E0700
0E0700
1C0300
1FFF80
1FFF80
3FFF80
3801C0
3801C0
7000E0
7000E0
E000E0
ENDCHAR
STARTCHAR 0227
ENCODING 551
SWIDTH 617 0
DWIDTH 18 0
BBX 13 22 2 0
BITMAP
0700
0700
0700
0000
0000
0000
1F80
7FE0
7FF0
4070
0038
0038
1FF8
7FF8
FFF8
F018
C038
C038
E0F8
FFD8
7F98
3F18
ENDCHAR
STARTCHAR 0228
ENCODING 552
SWIDTH 617 0
DWIDTH 18 0
BBX 13 27 3 -6
BITMAP
FFF8
FFF8
FFF8
E000
E000
E000
E000
E000
E000
FFF8
FFF8
FFF8
E000
E000
E000
E000
E000
E000
FFF8
FFF8
FFF8
0300
0180
0180
0180
1F80
1F00
ENDCHAR
STARTCHAR 0229
ENCODING 553
SWIDTH 617 0
DWIDTH 18 0
BBX 14 22 2 -6
BITMAP
0FC0
3FF0
7FF8
783C
E01C
E00C
FFFC
FFFC
FFFC
C000
E000
E000
780C
7FFC
1FFC
0FF0
0180
0180
00C0
01C0
0F80
0F80
ENDCHAR
STARTCHAR 022A
ENCODING 554
SWIDTH 788 0
DWIDTH 23 0
BBX 19 30 2 0
BITMAP
07FC00
07FC00
07FC00
000000
071C00
071C00
071C00
000000
000000
03F800
0FFE00
1FFF00
3E0F80
7803C0
7001C0
F001E0
E000E0
E000E0
E000E0
E000E0
E000E0
E000E0
E000E0
E001E0
7001C0
7803C0
3E0F80
1FFF00
0FFE00
03F800
ENDCHAR
STARTCHAR 022B
ENCODING 555
SWIDTH 617 0
DWIDTH 18 0
BBX 14 26 2 0
BITMAP
1FE0
1FE0
1FE0
0000
1CE0
1CE0
1CE0
0000
0000
0000
0FC0
3FF0
7FF8
7878
E03C
E01C
C01C
C01C
C01C
C01C
E01C
E03C
7878
7FF8
3FF0
0FC0
ENDCHAR
STARTCHAR 022C
ENCODING 556
SWIDTH 788 0
DWIDTH 23 0
BBX 19 30 2 0
BITMAP
07FC00
07FC00
07FC00
000000
03CC00
07FC00
067800
000000
000000
03F800
0FFE00
1FFF00
3E0F80
7803C0
7001C0
F001E0
E000E0
E000E0
E000E0
E000E0
E000E0
E000E0
E000E0
E001E0
7001C0
7803C0
3E0F80
1FFF00
0FFE00
03F800
ENDCHAR
STARTCHAR 022D
ENCODING 557
SWIDTH 617 0
DWIDTH 18 0
BBX 14 25 2 0
BITMAP
1FE0
1FE0
1FE0
0000
1E30
3FE0
31C0
0000
0000
0FC0
3FF0
7FF8
7878
E03C
E01C
C01C
C01C
C01C
C01C
E01C
E03C
7878
7FF8
3FF0
0FC0
ENDCHAR
STARTCHAR 022E
ENCODING 558
SWIDTH 788 0
DWIDTH 23 0
BBX 19 26 2 0
BITMAP
00E000
00E000
00E000
000000
000000
03F800
0FFE00
1FFF00
3E0F80
7803C0
7001C0
F001E0
E000E0
E000E0
E000E0
E000E0
E000E0
E000E0
E000E0
E001E0
7001C0
7803C0
3E0F80
1FFF00
0FFE00
03F800
ENDCHAR
STARTCHAR 022F
ENCODING 559
SWIDTH 617 0
DWIDTH 18 0
BBX 14 22 2 0
BITMAP
0300
0300
0300
0000
0000
0000
0FC0
3FF0
7FF8
7878
E03C
E01C
C01C
C01C
C01C
C01C
E01C
E03C
7878
7FF8
3FF0
0FC0
ENDCHAR
STARTCHAR 0230
ENCODING 560
SWIDTH 788 0
DWIDTH 23 0
BBX 19 30 2 0
BITMAP
07FC00
07FC00
07FC00
000000
00E000
00E000
00E000
000000
000000
03F800
0FFE00
1FFF00
3E0F80
7803C0
7001C0
F001E0
E000E0
E000E0
E000E0
E000E0
E000E0
E000E0
E000E0
E001E0
7001C0
7803C0
3E0F80
1FFF00
0FFE00
03F800
ENDCHAR
STARTCHAR 0231
ENCODING 561
SWIDTH 617 0
DWIDTH 18 0
BBX 14 26 2 0
BITMAP
1FE0
1FE0
1FE0
0000
0300
0300
0300
0000
0000
0000
0FC0
3FF0
7FF8
7878
E03C
E01C
C01C
C01C
C01C
C01C
E01C
E03C
7878
7FF8
3FF0
0FC0
ENDCHAR
STARTCHAR 0232
ENCODING 562
SWIDTH 617 0
DWIDTH 18 0
BBX 17 26 0 0
BITMAP
07F800
07F800
07F800
000000
000000
E00380
700380
380700
380E00
1C0E00
0E1C00
0E3800
073800
03F000
03E000
01E000
01C000
01C000
01C000
01C000
01C000
01C000
01C000
01C000
01C000
01C000
ENDCHAR
STARTCHAR 0233
ENCODING 563
SWIDTH 582 0
DWIDTH 17 0
BBX 15 28 1 -6
BITMAP
1FF0
1FF0
1FF0
0000
0000
0000
E00E
E00E
700C
701C
3018
3838
1838
1C30
1C70
0C60
0EE0
06E0
07C0
07C0
0380
0380
0300
0700
0700
7E00
7E00
7800
ENDCHAR
STARTCHAR 0234
ENCODING 564
SWIDTH 480 0
DWIDTH 14 0
BBX 10 24 2 -2
BITMAP
6000
6000
6000
6000
6000
6000
6000
6000
6000
6000
6000
6000
6000
6000
6000
6780
6FC0
7DC0
79C0
79C0
7FC0
7F80
6000
E000
ENDCHAR
STARTCHAR 0235
ENCODING 565
SWIDTH 822 0
DWIDTH 24 0
BBX 20 18 3 -2
BITMAP
CFC000
DFF000
F87000
E03800
E03800
C03800
C03800
C03800
C03800
C039E0
C03BF0
C03F70
C03E70
C03E70
C01FE0
C01FC0
003800
003800
ENDCHAR
STARTCHAR 0236
ENCODING 566
SWIDTH 480 0
DWIDTH 14 0
BBX 11 22 1 -2
BITMAP
3000
3000
3000
3000
FFC0
FFC0
3000
3000
3000
3000
3000
3000
3000
33C0
37E0
3E60
3E60
3CE0
3FE0
3FC0
3000
7000
ENDCHAR
STARTCHAR 0237
ENCODING 567
SWIDTH 274 0
DWIDTH 8 0
BBX 6 22 -1 -6
BITMAP
0C
0C
0C
0C
0C
0C
0C
0C
0C
0C
0C
0C
0C
0C
0C
0C
0C
0C
1C
FC
F8
F0
ENDCHAR
STARTCHAR 0238
ENCODING 568
SWIDTH 994 0
DWIDTH 29 0
BBX 25 22 2 0
BITMAP
001C0000
001C0000
001C0000
001C0000
001C0000
001C0000
0F9CF800
3FDDFE00
7FFFFF00
787F0F00
E03E0380
E01C0380
C01C0180
C01C0180
C01C0180
E01C0380
E01C0380
E03E0380
787F0F00
7FFFFF00
3FDDFE00
0F9CF800
ENDCHAR
STARTCHAR 0239
ENCODING 569
SWIDTH 994 0
DWIDTH 29 0
BBX 25 22 2 -6
BITMAP
0F9CF800
3FDDFE00
7FFFFF00
787F0F00
E03E0380
E01C0380
C01C0180
C01C0180
C01C0180
E01C0380
E01C0380
E03E0380
787F0F00
7FFFFF00
3FDDFE00
0F9CF800
001C0000
001C0000
001C0000
001C0000
001C0000
001C0000
ENDCHAR
STARTCHAR 023A
ENCODING 570
SWIDTH 685 0
DWIDTH 20 0
BBX 20 23 0 -1
BITMAP
000020
00F070
00F0E0
01F9C0
01F980
019B00
039E00
039E00
071C00
073E00
067E00
0E6700
0EC700
1D8300
1FFF80
1FFF80
3FFF80
3C01C0
3801C0
7000E0
7000E0
E000E0
400000
ENDCHAR
STARTCHAR 023B
ENCODING 571
SWIDTH 685 0
DWIDTH 20 0
BBX 20 23 0 -1
BITMAP
000020
01FFF0
07FFE0
0F80E0
0E01E0
1C0300
3C0700
380E00
381C00
381800
383000
386000
38E000
39C000
3B8000
3F0000
3E0000
1C0000
1E0060
3F81E0
77FFC0
E1FF80
400000
ENDCHAR
STARTCHAR 023C
ENCODING 572
SWIDTH 548 0
DWIDTH 16 0
BBX 15 18 0 -1
BITMAP
0002
03FE
0FFE
1E1C
1C18
3830
3860
30C0
31C0
3380
3300
3E00
3C00
1C00
3E04
3FFC
67FC
C000
ENDCHAR
STARTCHAR 023D
ENCODING 573
SWIDTH 548 0
DWIDTH 16 0
BBX 16 21 0 0
BITMAP
1C00
1C00
1C00
1C00
1C00
1C00
1C00
1C00
1C00
FF00
FF00
FF00
1C00
1C00
1C00
1C00
1C00
1C00
1FFF
1FFF
1FFF
ENDCHAR
STARTCHAR 023E
ENCODING 574
SWIDTH 617 0
DWIDTH 18 0
BBX 20 23 -1 -1
BITMAP
000020
7FFFF0
7FFFE0
00E1C0
00E380
00E300
00E600
00EC00
00FC00
00F800
00F000
00E000
00E000
01E000
03E000
07E000
0EE000
1CE000
18E000
30E000
60E000
E0E000
400000
ENDCHAR
STARTCHAR 023F
ENCODING 575
SWIDTH 514 0
DWIDTH 15 0
BBX 13 23 2 -7
BITMAP
3FE0
7FE0
E060
C000
C000
E000
F800
7F80
1FC0
01E0
0070
0070
0070
80E0
FFE0
FF80
1E00
0F00
0780
03C0
01F0
00F8
0038
ENDCHAR
STARTCHAR 0240
ENCODING 576
SWIDTH 514 0
DWIDTH 15 0
BBX 14 23 1 -7
BITMAP
7FF8
7FF8
0038
0070
00E0
01C0
03C0
0780
0700
0E00
1C00
3800
7000
F000
F800
FC00
1E00
0F00
0780
03C0
01E0
00FC
003C
ENDCHAR
STARTCHAR 0241
ENCODING 577
SWIDTH 582 0
DWIDTH 17 0
BBX 16 21 1 0
BITMAP
7FF0
FFF8
FFFC
C01E
000E
000E
000F
000E
000E
001E
07FC
07F8
07F0
0700
0700
0700
0700
0700
0700
0700
0700
ENDCHAR
STARTCHAR 0242
ENCODING 578
SWIDTH 480 0
DWIDTH 14 0
BBX 12 16 1 0
BITMAP
7F00
FFC0
FFE0
C1E0
00F0
0070
0070
0070
00F0
01E0
1FE0
1FC0
1F80
1C00
1C00
1C00
ENDCHAR
STARTCHAR 0243
ENCODING 579
SWIDTH 685 0
DWIDTH 20 0
BBX 18 21 0 0
BITMAP
1FF800
1FFE00
1FFF00
1C0780
1C0380
1C0380
1C0380
1C0380
1C0700
1FFE00
1FFC00
1FFF00
1C0780
FFE3C0
FFE1C0
FFE1C0
1C03C0
1C0780
1FFF80
1FFF00
1FFC00
ENDCHAR
STARTCHAR 0244
ENCODING 580
SWIDTH 720 0
DWIDTH 21 0
BBX 21 21 0 0
BITMAP
1800E0
1800E0
1800E0
1800E0
1800E0
1800E0
1800E0
FFFFF8
FFFFF8
FFFFF8
1800E0
1800E0
1800E0
1C00E0
1C01C0
1C01C0
1E03C0
0F0780
07FF80
03FF00
00FC00
ENDCHAR
STARTCHAR 0245
ENCODING 581
SWIDTH 685 0
DWIDTH 20 0
BBX 19 21 0 0
BITMAP
00F000
00F000
01F800
01F800
01B800
039C00
039C00
070C00
070E00
070E00
0E0700
0E0700
1C0700
1C0380
1C0380
380180
3801C0
3801C0
7000E0
7000E0
E000E0
ENDCHAR
STARTCHAR 0246
ENCODING 582
SWIDTH 617 0
DWIDTH 18 0
BBX 13 27 3 -3
BITMAP
0038
0030
0030
FFF8
FFF8
E060
E0E0
E0C0
E0C0
E1C0
E180
E180
FFF8
FFF8
E300
E700
E600
E600
EE00
EC00
EC00
FC00
FFF8
FFF8
3800
3000
7000
ENDCHAR
STARTCHAR 0247
ENCODING 583
SWIDTH 617 0
DWIDTH 18 0
BBX 14 22 2 -3
BITMAP
0030
0070
0060
0FE0
3FF0
78F8
71DC
E19C
E18C
C38C
FFFC
FFFC
C600
EE00
EE00
7C00
7C0C
3FFC
3FF8
3000
3000
7000
ENDCHAR
STARTCHAR 0248
ENCODING 584
SWIDTH 308 0
DWIDTH 9 0
BBX 10 27 -2 -6
BITMAP
0700
0700
0700
0700
0700
0700
0700
0700
0700
0700
3FC0
3FC0
3FC0
0700
0700
0700
0700
0700
0700
0700
0700
0700
0E00
0E00
FE00
FC00
F800
ENDCHAR
STARTCHAR 0249
ENCODING 585
SWIDTH 274 0
DWIDTH 8 0
BBX 9 28 -1 -6
BITMAP
0C00
0C00
0C00
0000
0000
0000
0C00
0C00
0C00
0C00
0C00
0C00
0C00
7F80
7F80
7F80
0C00
0C00
0C00
0C00
0C00
0C00
0C00
0C00
1C00
FC00
F800
F000
ENDCHAR
STARTCHAR 024A
ENCODING 586
SWIDTH 788 0
DWIDTH 23 0
BBX 22 27 2 -6
BITMAP
07E1C0
1FF9C0
3FFDC0
3C1FC0
7807C0
F003C0
E003C0
E001C0
E001C0
E001C0
E001C0
E001C0
E001C0
E001C0
E003C0
F003C0
7807C0
3C1FC0
3FFDC0
1FF9C0
07E1C0
0001C0
0001C0
0000E0
0000FC
00007C
00003C
ENDCHAR
STARTCHAR 024B
ENCODING 587
SWIDTH 617 0
DWIDTH 18 0
BBX 17 22 2 -6
BITMAP
0F9C00
3FDC00
7FFC00
787C00
E03C00
E01C00
C01C00
C01C00
C01C00
E01C00
E01C00
E03C00
787C00
7FFC00
3FDC00
0F9C00
001C00
001C00
001E00
000F80
000F80
000780
ENDCHAR
STARTCHAR 024C
ENCODING 588
SWIDTH 685 0
DWIDTH 20 0
BBX 19 21 0 0
BITMAP
1FF800
1FFE00
1FFF00
1C0F00
1C0700
1C0700
1C0700
1C0700
1C0F00
FFFE00
FFFC00
FFFC00
1C1E00
1C0F00
1C0700
1C0380
1C0380
1C03C0
1C01C0
1C01E0
1C00E0
ENDCHAR
STARTCHAR 024D
ENCODING 589
SWIDTH 411 0
DWIDTH 12 0
BBX 12 16 0 0
BITMAP
18F0
1BF0
1BF0
1E00
1C00
1C00
1800
FF00
FF00
FF00
1800
1800
1800
1800
1800
1800
ENDCHAR
STARTCHAR 024E
ENCODING 590
SWIDTH 617 0
DWIDTH 18 0
BBX 18 21 0 0
BITMAP
E00380
700380
380700
FFFFC0
FFFFC0
0E1C00
0E3800
073800
03F000
03E000
01E000
01C000
01C000
01C000
01C000
01C000
01C000
01C000
01C000
01C000
01C000
ENDCHAR
STARTCHAR 024F
ENCODING 591
SWIDTH 582 0
DWIDTH 17 0
BBX 17 22 0 -6
BITMAP
700700
700700
380600
380E00
180E00
1C1C00
1C1C00
FFFF80
FFFF80
063800
077000
037000
03E000
03E000
01E000
01C000
01C000
018000
038000
070000
3F0000
3E0000
ENDCHAR
STARTCHAR 0250
ENCODING 592
SWIDTH 582 0
DWIDTH 17 0
BBX 14 16 2 0
BITMAP
E3E0
EFF8
FFF8
F83C
F01C
E01C
E03C
FFF8
FFF0
FFE0
6000
6000
7818
3FF8
1FF8
0FE0
ENDCHAR
STARTCHAR 0251
ENCODING 593
SWIDTH 617 0
DWIDTH 18 0
BBX 14 16 2 0
BITMAP
0F9C
3FDC
7FFC
787C
E03C
E01C
C01C
C01C
C01C
E01C
E01C
E03C
787C
7FFC
3FDC
0F9C
ENDCHAR
STARTCHAR 0252
ENCODING 594
SWIDTH 617 0
DWIDTH 18 0
BBX 14 16 3 0
BITMAP
C7C0
DFE0
DFF0
F878
E038
E01C
C01C
C01C
C01C
C01C
E01C
E038
F878
DFF0
DFE0
C7C0
ENDCHAR
STARTCHAR 0253
ENCODING 595
SWIDTH 617 0
DWIDTH 18 0
BBX 14 22 3 0
BITMAP
3F00
7F00
FF00
E000
E000
C000
C7C0
DFE0
DFF0
F878
E038
E01C
C01C
C01C
C01C
C01C
E01C
E038
F878
DFF0
DFE0
C7C0
ENDCHAR
STARTCHAR 0254
ENCODING 596
SWIDTH 548 0
DWIDTH 16 0
BBX 12 16 2 0
BITMAP
7F00
FF80
FFE0
81E0
00F0
0070
0070
0030
0030
0070
0070
00F0
81E0
FFE0
FF80
7F00
ENDCHAR
STARTCHAR 0255
ENCODING 597
SWIDTH 548 0
DWIDTH 16 0
BBX 12 18 2 -2
BITMAP
0FE0
1FF0
7FF0
7810
E000
E000
C000
C000
E3C0
E7E0
FFF0
FE70
FC30
7FF0
3FF0
1FC0
1800
1800
ENDCHAR
STARTCHAR 0256
ENCODING 598
SWIDTH 617 0
DWIDTH 18 0
BBX 17 28 2 -6
BITMAP
001C00
001C00
001C00
001C00
001C00
001C00
0F9C00
3FDC00
7FFC00
787C00
E03C00
E01C00
C01C00
C01C00
C01C00
E01C00
E01C00
E03C00
787C00
7FFC00
3FDC00
0F9C00
001C00
001C00
001E00
000F80
000F80
000380
ENDCHAR
STARTCHAR 0257
ENCODING 599
SWIDTH 685 0
DWIDTH 20 0
BBX 19 22 2 0
BITMAP
0003E0
000FE0
000FE0
001E00
001C00
001C00
0F9C00
3FDC00
7FFC00
787C00
E03C00
E01C00
C01C00
C01C00
C01C00
E01C00
E01C00
E03C00
787C00
7FFC00
3FDC00
0F8000
ENDCHAR
STARTCHAR 0258
ENCODING 600
SWIDTH 617 0
DWIDTH 18 0
BBX 14 16 2 0
BITMAP
0FC0
3FE0
7FF0
F078
E01C
C01C
FFFC
FFFC
FFFC
001C
001C
003C
C078
FFF0
FFE0
3F80
ENDCHAR
STARTCHAR 0259
ENCODING 601
SWIDTH 617 0
DWIDTH 18 0
BBX 14 16 2 0
BITMAP
3F80
FFE0
FFF0
C078
001C
001C
FFFC
FFFC
FFFC
C01C
C01C
E03C
7078
7FF0
3FE0
0FC0
ENDCHAR
STARTCHAR 025A
ENCODING 602
SWIDTH 822 0
DWIDTH 24 0
BBX 22 16 2 0
BITMAP
3F8000
FFE000
FFF1C0
C07FC0
001EC0
007CE0
01FCE0
079CE0
1E1C7C
3C1C7C
F01C3C
E03C00
F07800
7FF000
3FE000
0FC000
ENDCHAR
STARTCHAR 025B
ENCODING 603
SWIDTH 548 0
DWIDTH 16 0
BBX 12 16 2 0
BITMAP
1FC0
7FE0
7FE0
F020
E000
7000
7F80
1F80
7F80
F000
E000
E000
F030
FFF0
7FF0
1FC0
ENDCHAR
STARTCHAR 025C
ENCODING 604
SWIDTH 514 0
DWIDTH 15 0
BBX 12 16 2 0
BITMAP
3F00
FFC0
FFE0
C0E0
0060
00E0
1FC0
1F00
1FC0
00E0
0070
0070
80F0
FFE0
FFC0
7F00
ENDCHAR
STARTCHAR 025D
ENCODING 605
SWIDTH 754 0
DWIDTH 22 0
BBX 20 16 2 0
BITMAP
3F8000
FFC000
FFE780
C0FF80
007980
00F180
1FC180
1F01C0
1FE0F0
00E0F0
007070
007000
80F000
FFE000
FFC000
7F0000
ENDCHAR
STARTCHAR 025E
ENCODING 606
SWIDTH 651 0
DWIDTH 19 0
BBX 15 16 2 0
BITMAP
07F0
1FFC
7FFE
781E
F00E
E01E
E1FC
C1F0
C1FC
E00E
E006
F006
781E
7FFE
3FFC
0FF0
ENDCHAR
STARTCHAR 025F
ENCODING 607
SWIDTH 274 0
DWIDTH 8 0
BBX 9 22 -1 -6
BITMAP
0C00
0C00
0C00
0C00
0C00
0C00
0C00
7F80
7F80
7F80
0C00
0C00
0C00
0C00
0C00
0C00
0C00
0C00
1C00
FC00
F800
F000
ENDCHAR
STARTCHAR 0260
ENCODING 608
SWIDTH 685 0
DWIDTH 20 0
BBX 19 28 2 -6
BITMAP
0003E0
000FE0
000FE0
001E00
001C00
001C00
0F9C00
3FDC00
7FFC00
787C00
E03C00
E01C00
C01C00
C01C00
C01C00
C01C00
E01C00
E03C00
787C00
7FFC00
3FDC00
0F9C00
001800
003800
207800
3FF000
3FE000
1FC000
ENDCHAR
STARTCHAR 0261
ENCODING 609
SWIDTH 617 0
DWIDTH 18 0
BBX 14 22 2 -6
BITMAP
0FFC
3FFC
7FFC
F01C
E01C
E01C
C01C
C01C
C01C
C01C
E01C
E03C
787C
7FFC
3FDC
0F9C
0018
0038
2078
3FF0
3FE0
1FC0
ENDCHAR
STARTCHAR 0262
ENCODING 610
SWIDTH 617 0
DWIDTH 18 0
BBX 14 16 2 0
BITMAP
0FC0
3FF0
7FF8
7838
F008
E000
E000
C07C
C07C
E07C
E01C
F01C
781C
7FFC
3FF8
0FE0
ENDCHAR
STARTCHAR 0263
ENCODING 611
SWIDTH 582 0
DWIDTH 17 0
BBX 14 22 2 -6
BITMAP
C01C
E038
6038
7070
3070
38E0
18E0
1DC0
0DC0
0F80
0780
0700
0780
0D80
0CC0
18C0
18E0
38E0
38E0
1FE0
1FC0
0F80
ENDCHAR
STARTCHAR 0264
ENCODING 612
SWIDTH 582 0
DWIDTH 17 0
BBX 14 16 2 0
BITMAP
E03C
F038
7070
38E0
1DE0
1FC0
0F80
0700
0F80
0DC0
18C0
18E0
38E0
3FE0
1FC0
0F80
ENDCHAR
STARTCHAR 0265
ENCODING 613
SWIDTH 617 0
DWIDTH 18 0
BBX 14 22 2 -6
BITMAP
E01C
E01C
E01C
E01C
E01C
E01C
E01C
E01C
E01C
E01C
601C
703C
707C
7FFC
3FDC
1F9C
001C
001C
001C
001C
001C
001C
ENDCHAR
STARTCHAR 0266
ENCODING 614
SWIDTH 617 0
DWIDTH 18 0
BBX 13 22 3 0
BITMAP
3F00
7F00
FF00
E000
E000
C000
C7C0
DFE0
DFF0
F070
E038
E038
C038
C038
C038
C038
C038
C038
C038
C038
C038
C038
ENDCHAR
STARTCHAR 0267
ENCODING 615
SWIDTH 617 0
DWIDTH 18 0
BBX 13 28 3 -6
BITMAP
3F00
7F00
FF00
E000
E000
C000
C7C0
DFE0
DFF0
F870
E038
E038
C038
C038
C038
C038
C038
C038
C038
C038
C038
C038
0038
0038
0038
0FF0
0FF0
0FC0
ENDCHAR
STARTCHAR 0268
ENCODING 616
SWIDTH 274 0
DWIDTH 8 0
BBX 8 22 0 0
BITMAP
18
18
18
00
00
00
18
18
18
18
18
18
18
FF
FF
FF
18
18
18
18
18
18
ENDCHAR
STARTCHAR 0269
ENCODING 617
SWIDTH 342 0
DWIDTH 10 0
BBX 7 16 2 0
BITMAP
E0
E0
E0
E0
E0
E0
E0
E0
E0
E0
E0
E0
70
7E
7E
1E
ENDCHAR
STARTCHAR 026A
ENCODING 618
SWIDTH 377 0
DWIDTH 11 0
BBX 7 16 2 0
BITMAP
FE
FE
FE
38
38
38
38
38
38
38
38
38
38
FE
FE
FE
ENDCHAR
STARTCHAR 026B
ENCODING 619
SWIDTH 377 0
DWIDTH 11 0
BBX 9 22 1 0
BITMAP
1C00
1C00
1C00
1C00
1C00
1C00
1C00
1C00
1C00
7C80
7D80
DF80
DF00
1C00
1C00
1C00
1C00
1C00
1C00
1C00
1C00
1C00
ENDCHAR
STARTCHAR 026C
ENCODING 620
SWIDTH 480 0
DWIDTH 14 0
BBX 11 22 1 0
BITMAP
0700
0700
0700
0700
0700
0700
3F00
7F00
FF00
EF00
E700
FFE0
7FE0
3FE0
0700
0700
0700
0700
0700
0700
0700
0700
ENDCHAR
STARTCHAR 026D
ENCODING 621
SWIDTH 274 0
DWIDTH 8 0
BBX 6 28 3 -6
BITMAP
C0
C0
C0
C0
C0
C0
C0
C0
C0
C0
C0
C0
C0
C0
C0
C0
C0
C0
C0
C0
C0
C0
C0
C0
E0
FC
7C
3C
ENDCHAR
STARTCHAR 026E
ENCODING 622
SWIDTH 685 0
DWIDTH 20 0
BBX 16 28 3 -6
BITMAP
C000
C000
C000
C000
C000
C000
FFFE
FFFE
FFFE
C01C
C018
C030
C060
C0C0
C080
C1E0
C3F8
C3FC
C01E
C00F
C007
C007
0007
000F
201E
3FFE
3FF8
0FE0
ENDCHAR
STARTCHAR 026F
ENCODING 623
SWIDTH 960 0
DWIDTH 28 0
BBX 23 16 3 0
BITMAP
C0380E
C0380E
C0380E
C0380E
C0380E
C0380E
C0380E
C0380E
C0380E
C0380E
C0380E
E0781E
F0FC3E
FFDFFE
7F9FEE
3E07CE
ENDCHAR
STARTCHAR 0270
ENCODING 624
SWIDTH 960 0
DWIDTH 28 0
BBX 23 22 3 -6
BITMAP
C0380E
C0380E
C0380E
C0380E
C0380E
C0380E
C0380E
C0380E
C0380E
C0380E
C0380E
E0781E
F0FC3E
FFDFFE
7F9FEE
3E07CE
00000E
00000E
00000E
00000E
00000E
00000E
ENDCHAR
STARTCHAR 0271
ENCODING 625
SWIDTH 960 0
DWIDTH 28 0
BBX 23 22 3 -6
BITMAP
C7C1F0
DFE3F8
DFF7FC
F07E1C
E0780E
E0380E
C0380E
C0380E
C0380E
C0380E
C0380E
C0380E
C0380E
C0380E
C0380E
C0380E
00000E
00000E
00001E
0003FC
0003FC
0003F0
ENDCHAR
STARTCHAR 0272
ENCODING 626
SWIDTH 651 0
DWIDTH 19 0
BBX 17 22 -1 -6
BITMAP
0C7C00
0CFE00
0DFF00
0F8780
0E0380
0E0380
0C0380
0C0380
0C0380
0C0380
0C0380
0C0380
0C0380
0C0380
0C0380
0C0380
0C0000
0C0000
1C0000
FC0000
F80000
F00000
ENDCHAR
STARTCHAR 0273
ENCODING 627
SWIDTH 651 0
DWIDTH 19 0
BBX 16 22 3 -6
BITMAP
C7C0
DFE0
DFF0
F070
E038
E038
C038
C038
C038
C038
C038
C038
C038
C038
C038
C038
0038
0038
003C
001F
001F
0007
ENDCHAR
STARTCHAR 0274
ENCODING 628
SWIDTH 617 0
DWIDTH 18 0
BBX 13 16 3 0
BITMAP
F038
F038
F838
F838
DC38
DC38
CE38
CE38
C738
C338
C3B8
C1B8
C1F8
C0F8
C0F8
C078
ENDCHAR
STARTCHAR 0275
ENCODING 629
SWIDTH 617 0
DWIDTH 18 0
BBX 14 16 2 0
BITMAP
0FC0
3FF0
7FF8
7038
E01C
FFFC
FFFC
FFFC
C01C
E01C
E01C
F03C
7878
7FF8
3FF0
0FC0
ENDCHAR
STARTCHAR 0276
ENCODING 630
SWIDTH 857 0
DWIDTH 25 0
BBX 20 16 2 0
BITMAP
07FFF0
1FFFF0
3FFFF0
783000
F03000
E03000
C03FF0
C03FF0
C03FF0
C03000
E03000
F03000
7C3000
7FFFF0
3FFFF0
07FFF0
ENDCHAR
STARTCHAR 0277
ENCODING 631
SWIDTH 720 0
DWIDTH 21 0
BBX 17 16 2 0
BITMAP
07F000
1FFC00
3FFE00
7C1F00
780700
700700
E00380
E1C380
E1C380
E1C380
E1C380
E1C380
73E780
7F7F00
3F3F00
1E1C00
ENDCHAR
STARTCHAR 0278
ENCODING 632
SWIDTH 651 0
DWIDTH 19 0
BBX 15 28 2 -6
BITMAP
0380
0380
0380
0380
0380
0380
0FE0
3FF8
7FFC
739C
E38E
E38E
C386
C386
C386
C386
E38E
E38E
739E
7FFC
3FF8
0FE0
0380
0380
0380
0380
0380
0380
ENDCHAR
STARTCHAR 0279
ENCODING 633
SWIDTH 411 0
DWIDTH 12 0
BBX 9 16 0 0
BITMAP
0180
0180
0180
0180
0180
0180
0180
0180
0180
0180
0380
0380
0F80
FD80
FD80
F180
ENDCHAR
STARTCHAR 027A
ENCODING 634
SWIDTH 411 0
DWIDTH 12 0
BBX 9 22 0 0
BITMAP
0180
0180
0180
0180
0180
0180
0180
0180
0180
0180
0180
0180
0180
0180
0180
0180
0380
0380
0F80
FD80
FD80
F180
ENDCHAR
STARTCHAR 027B
ENCODING 635
SWIDTH 411 0
DWIDTH 12 0
BBX 13 22 0 -6
BITMAP
0180
0180
0180
0180
0180
0180
0180
0180
0180
0180
0380
0380
0F80
FD80
FD80
F180
0180
0180
01C0
01F8
00F8
0078
ENDCHAR
STARTCHAR 027C
ENCODING 636
SWIDTH 411 0
DWIDTH 12 0
BBX 9 22 3 -6
BITMAP
C780
DF80
DF80
F800
E000
E000
C000
C000
C000
C000
C000
C000
C000
C000
C000
C000
C000
C000
C000
C000
C000
C000
ENDCHAR
STARTCHAR 027D
ENCODING 637
SWIDTH 411 0
DWIDTH 12 0
BBX 9 22 3 -6
BITMAP
C780
DF80
DF80
F000
E000
E000
C000
C000
C000
C000
C000
C000
C000
C000
C000
C000
C000
C000
E000
FF00
7F00
3F00
ENDCHAR
STARTCHAR 027E
ENCODING 638
SWIDTH 514 0
DWIDTH 15 0
BBX 11 16 2 0
BITMAP
07E0
0FE0
1FE0
1C00
3800
3800
3800
3800
3800
3800
3800
3800
3800
FE00
FE00
FE00
ENDCHAR
STARTCHAR 027F
ENCODING 639
SWIDTH 514 0
DWIDTH 15 0
BBX 11 16 2 0
BITMAP
FC00
FE00
FE00
0700
0700
0700
0700
0700
0700
0700
0700
0700
0700
1FE0
1FE0
1FE0
ENDCHAR
STARTCHAR 0280
ENCODING 640
SWIDTH 617 0
DWIDTH 18 0
BBX 13 16 3 0
BITMAP
FF80
FFC0
FFE0
C0E0
C060
C0E0
FFE0
FF80
FF80
C1C0
C0E0
C0E0
C070
C030
C038
C018
ENDCHAR
STARTCHAR 0281
ENCODING 641
SWIDTH 617 0
DWIDTH 18 0
BBX 13 16 3 0
BITMAP
C018
C038
C070
C060
C0E0
C1C0
FF80
FF80
FFC0
C0E0
C0E0
C0E0
C0E0
FFE0
FFC0
FF80
ENDCHAR
STARTCHAR 0282
ENCODING 642
SWIDTH 514 0
DWIDTH 15 0
BBX 12 22 2 -6
BITMAP
3FC0
7FE0
FFE0
E060
C000
C000
F800
3F80
03E0
00E0
0070
8070
C0F0
FFE0
FFC0
FF80
C000
C000
E000
FF00
7F00
3F00
ENDCHAR
STARTCHAR 0283
ENCODING 643
SWIDTH 342 0
DWIDTH 10 0
BBX 11 28 -1 -6
BITMAP
03E0
07E0
0FE0
0E00
0E00
0C00
0C00
0C00
0C00
0C00
0C00
0C00
0C00
0C00
0C00
0C00
0C00
0C00
0C00
0C00
0C00
0C00
0C00
0C00
1C00
FC00
F800
F000
ENDCHAR
STARTCHAR 0284
ENCODING 644
SWIDTH 342 0
DWIDTH 10 0
BBX 11 28 -1 -6
BITMAP
03E0
07E0
0FE0
0E00
0E00
0C00
7C00
7C00
7C00
0C00
0C00
0C00
0C00
7F80
7F80
7F80
0C00
0C00
0C00
0C00
0C00
0C00
0C00
0C00
1C00
FC00
F800
F000
ENDCHAR
STARTCHAR 0285
ENCODING 645
SWIDTH 445 0
DWIDTH 13 0
BBX 11 22 1 -6
BITMAP
F800
FC00
FE00
0E00
0600
0600
0600
0600
0600
0600
0600
0600
0600
0600
0600
0600
0600
0700
0700
07E0
03E0
01E0
ENDCHAR
STARTCHAR 0286
ENCODING 646
SWIDTH 342 0
DWIDTH 10 0
BBX 14 28 -4 -6
BITMAP
007C
00FC
01FC
01C0
0180
0180
0180
0180
0180
0180
0180
0180
0180
0180
0180
0180
0180
0180
0180
0180
0180
0180
3FF0
FFF0
FFF0
C380
7F80
3E00
ENDCHAR
STARTCHAR 0287
ENCODING 647
SWIDTH 377 0
DWIDTH 11 0
BBX 10 20 1 -4
BITMAP
FC00
FE00
FE00
0700
0700
0700
0700
0700
0700
0700
0700
0700
0700
FFC0
FFC0
FFC0
0700
0700
0700
0700
ENDCHAR
STARTCHAR 0288
ENCODING 648
SWIDTH 377 0
DWIDTH 11 0
BBX 10 27 1 -6
BITMAP
3000
3000
3000
3000
3000
FFC0
FFC0
FFC0
3000
3000
3000
3000
3000
3000
3000
3000
3000
3000
3000
3000
3000
3000
3000
3800
3FC0
1FC0
0FC0
ENDCHAR
STARTCHAR 0289
ENCODING 649
SWIDTH 617 0
DWIDTH 18 0
BBX 18 16 0 0
BITMAP
380700
380700
380700
380700
380700
380700
FFFFC0
FFFFC0
FFFFC0
380700
180700
1C0F00
1E1F00
1FFF00
0FF700
07E700
ENDCHAR
STARTCHAR 028A
ENCODING 650
SWIDTH 617 0
DWIDTH 18 0
BBX 14 16 2 0
BITMAP
FCFC
FCFC
FCFC
3CF0
7878
7038
E01C
E01C
C00C
E01C
E01C
E01C
7878
7FF8
3FF0
0FC0
ENDCHAR
STARTCHAR 028B
ENCODING 651
SWIDTH 582 0
DWIDTH 17 0
BBX 13 16 3 0
BITMAP
C180
C1C0
C1E0
C0F0
C070
C038
C038
C038
C038
C038
C038
E070
E0F0
FFE0
7FC0
3F00
ENDCHAR
STARTCHAR 028C
ENCODING 652
SWIDTH 582 0
DWIDTH 17 0
BBX 15 16 1 0
BITMAP
03C0
07C0
07C0
0EE0
0EE0
0E60
1C70
1C70
1838
3838
3838
701C
701C
700C
E00E
E00E
ENDCHAR
STARTCHAR 028D
ENCODING 653
SWIDTH 822 0
DWIDTH 24 0
BBX 21 16 1 0
BITMAP
0F0380
0F03C0
0F03C0
1F07C0
1F86E0
1D86E0
1986E0
398E60
39CC70
38CC70
30CC70
70DC30
70F838
607838
607838
E07818
ENDCHAR
STARTCHAR 028E
ENCODING 654
SWIDTH 582 0
DWIDTH 17 0
BBX 15 22 1 0
BITMAP
003C
00FC
00FC
01E0
01C0
0380
0380
0380
07C0
07C0
0EC0
0EE0
0C60
1C70
1C30
3838
3838
3018
701C
700C
E00E
E00E
ENDCHAR
STARTCHAR 028F
ENCODING 655
SWIDTH 617 0
DWIDTH 18 0
BBX 14 16 2 0
BITMAP
E01C
E038
7070
3870
38E0
1DC0
0FC0
0F80
0700
0700
0700
0700
0700
0700
0700
0700
ENDCHAR
STARTCHAR 0290
ENCODING 656
SWIDTH 514 0
DWIDTH 15 0
BBX 16 22 1 -6
BITMAP
7FF8
7FF8
7FF8
0030
0060
00C0
0180
0300
0600
0C00
1800
3800
7000
FFF8
FFF8
FFF8
0038
0038
001C
001F
001F
0007
ENDCHAR
STARTCHAR 0291
ENCODING 657
SWIDTH 514 0
DWIDTH 15 0
BBX 13 18 1 -2
BITMAP
7FF8
7FF8
7FF8
0030
0060
00C0
0180
0300
06E0
0DF0
1BF8
3BB8
7338
FFF8
FFF0
FFE0
0700
0600
ENDCHAR
STARTCHAR 0292
ENCODING 658
SWIDTH 582 0
DWIDTH 17 0
BBX 14 22 1 -6
BITMAP
7FF8
7FF8
7FF8
0030
0060
00C0
0180
0100
0300
07C0
0FF0
0FF8
0078
001C
001C
001C
001C
001C
C078
FFF8
FFF0
3FC0
ENDCHAR
STARTCHAR 0293
ENCODING 659
SWIDTH 582 0
DWIDTH 17 0
BBX 14 22 2 -6
BITMAP
FFF0
FFF0
0070
00E0
01C0
0380
0780
0F00
0E00
1F00
1FC0
1FE0
0070
0038
0038
0038
3FB8
7FF8
E0F8
E1F8
FFFC
7F8C
ENDCHAR
STARTCHAR 0294
ENCODING 660
SWIDTH 514 0
DWIDTH 15 0
BBX 12 22 1 0
BITMAP
3F00
FFC0
FFE0
C1E0
0070
0070
0070
0070
0070
0070
01E0
0FE0
0FC0
0F00
0E00
0E00
0E00
0E00
0E00
0E00
0E00
0E00
ENDCHAR
STARTCHAR 0295
ENCODING 661
SWIDTH 514 0
DWIDTH 15 0
BBX 12 22 1 0
BITMAP
07E0
1FF0
3FF0
7810
7000
E000
E000
E000
E000
7000
7800
3F80
1F80
0F80
0380
0380
0380
0380
0380
0380
0380
0380
ENDCHAR
STARTCHAR 0296
ENCODING 662
SWIDTH 514 0
DWIDTH 15 0
BBX 12 22 1 0
BITMAP
0E00
0E00
0E00
0E00
0E00
0E00
0E00
0E00
0F00
0FC0
0FE0
01E0
0070
0070
0070
0070
0070
0070
C1E0
FFE0
FFC0
7F00
ENDCHAR
STARTCHAR 0297
ENCODING 663
SWIDTH 514 0
DWIDTH 15 0
BBX 12 28 1 -6
BITMAP
0FE0
1FF0
3FF0
7810
7000
E000
E000
E000
E000
E000
E000
E000
E000
E000
E000
E000
E000
E000
E000
E000
E000
E000
E000
7000
7810
3FF0
1FF0
0FE0
ENDCHAR
STARTCHAR 0298
ENCODING 664
SWIDTH 788 0
DWIDTH 23 0
BBX 19 22 2 0
BITMAP
004000
07FC00
1FFF00
3C0F80
780380
7001C0
F001C0
E000E0
E000E0
E000E0
E0E0E0
E0E0E0
E0E0E0
E000E0
E000E0
E000E0
F001C0
7001C0
380380
3E0F00
1FFE00
07FC00
ENDCHAR
STARTCHAR 0299
ENCODING 665
SWIDTH 582 0
DWIDTH 17 0
BBX 12 16 3 0
BITMAP
FF80
FFE0
FFE0
C0F0
C070
C060
C0E0
FF80
FFE0
FFF0
C070
C030
C070
FFF0
FFE0
FFC0
ENDCHAR
STARTCHAR 029A
ENCODING 666
SWIDTH 651 0
DWIDTH 19 0
BBX 15 16 2 0
BITMAP
1FC0
7FF0
FFF8
E03C
E01E
E00E
7F0E
1F06
7F06
E00E
C00E
C01E
F03C
FFF8
7FF0
1FC0
ENDCHAR
STARTCHAR 029B
ENCODING 667
SWIDTH 720 0
DWIDTH 21 0
BBX 19 22 2 0
BITMAP
0007E0
000FE0
001FE0
001C00
001800
001800
0FD800
3FF800
7FF800
783800
F00800
E00000
E00000
C07C00
C07C00
E07C00
E01C00
F01C00
781C00
7FFC00
3FF800
0FE000
ENDCHAR
STARTCHAR 029C
ENCODING 668
SWIDTH 651 0
DWIDTH 19 0
BBX 13 16 3 0
BITMAP
C018
C018
C018
C018
C018
C018
C018
FFF8
FFF8
FFF8
C018
C018
C018
C018
C018
C018
ENDCHAR
STARTCHAR 029D
ENCODING 669
SWIDTH 274 0
DWIDTH 8 0
BBX 12 28 -4 -6
BITMAP
0180
0180
0180
0000
0000
0000
0180
0180
0180
0180
0180
0180
0180
0180
0180
0180
0180
0180
0180
0180
0180
0180
3FF0
FFF0
E380
E380
7F00
3E00
ENDCHAR
STARTCHAR 029E
ENCODING 670
SWIDTH 651 0
DWIDTH 19 0
BBX 14 22 3 -6
BITMAP
E01C
701C
381C
1E1C
0F1C
079C
03DC
01FC
00FC
01FC
03DC
071C
0E1C
1C1C
381C
701C
001C
001C
001C
001C
001C
001C
ENDCHAR
STARTCHAR 029F
ENCODING 671
SWIDTH 514 0
DWIDTH 15 0
BBX 11 16 3 0
BITMAP
C000
C000
C000
C000
C000
C000
C000
C000
C000
C000
C000
C000
C000
FFE0
FFE0
FFE0
ENDCHAR
STARTCHAR 02A0
ENCODING 672
SWIDTH 720 0
DWIDTH 21 0
BBX 20 28 2 -6
BITMAP
0003F0
000FF0
000FF0
001E00
001C00
001C00
0F9C00
3FDC00
7FFC00
787C00
E03C00
E01C00
C01C00
C01C00
C01C00
E01C00
E01C00
E03C00
787C00
7FFC00
3FDC00
0F9C00
001C00
001C00
001C00
001C00
001C00
001C00
ENDCHAR
STARTCHAR 02A1
ENCODING 673
SWIDTH 514 0
DWIDTH 15 0
BBX 12 22 1 0
BITMAP
3F00
FFC0
FFE0
C1E0
0070
0070
0070
0070
0070
0070
01E0
0FE0
0FC0
0F00
0E00
7FC0
7FC0
7FC0
0E00
0E00
0E00
0E00
ENDCHAR
STARTCHAR 02A2
ENCODING 674
SWIDTH 514 0
DWIDTH 15 0
BBX 12 22 1 0
BITMAP
07E0
1FF0
3FF0
7810
7000
E000
E000
E000
E000
7000
7800
3F80
1F80
0F80
0380
3FF0
3FF0
3FF0
0380
0380
0380
0380
ENDCHAR
STARTCHAR 02A3
ENCODING 675
SWIDTH 994 0
DWIDTH 29 0
BBX 26 22 2 0
BITMAP
001C0000
001C0000
001C0000
001C0000
001C0000
001C0000
1F9FFFC0
3FDFFFC0
787C01C0
F03C0380
E01C0700
E01C0F00
C01C0E00
C01C1C00
C01C3800
C01C7000
E01CE000
E01DC000
E03FC000
707F8000
3FFFFFC0
1F9FFFC0
ENDCHAR
STARTCHAR 02A4
ENCODING 676
SWIDTH 1062 0
DWIDTH 31 0
BBX 27 28 2 -6
BITMAP
001C0000
001C0000
001C0000
001C0000
001C0000
001C0000
1F9FFFC0
3FDFFFC0
787C01C0
F03C0380
E01C0700
E01C0F00
C01C0E00
C01C1C00
C01C3800
C01C7C00
E01C7F00
E01C7FC0
E03C01C0
707C00E0
3FFC00E0
1F9C0060
000000E0
000000E0
000401E0
000787C0
0007FF80
0001FE00
ENDCHAR
STARTCHAR 02A5
ENCODING 677
SWIDTH 994 0
DWIDTH 29 0
BBX 26 24 2 -2
BITMAP
001C0000
001C0000
001C0000
001C0000
001C0000
001C0000
1F9FFFC0
3FDFFFC0
787C01C0
F03C0380
E01C0700
E01C0F00
C01C0E00
C01C1C00
C01C3800
C01C7000
E01CE780
E01DCFC0
E03FDCC0
707F98C0
3FFFFFC0
1F9FFF00
00003800
00003800
ENDCHAR
STARTCHAR 02A6
ENCODING 678
SWIDTH 822 0
DWIDTH 24 0
BBX 22 20 1 0
BITMAP
300000
300000
300000
300000
FFCFF8
FFDFF8
303818
303000
303000
303800
303E00
301FE0
3007F0
300078
30001C
30001C
30001C
380078
1FFFF8
0FFFE0
ENDCHAR
STARTCHAR 02A7
ENCODING 679
SWIDTH 617 0
DWIDTH 18 0
BBX 17 28 1 -6
BITMAP
000F80
001F80
303800
303000
303000
303000
FFF000
FFF000
303000
303000
303000
303000
303000
303000
303000
303000
303000
303000
303000
383000
1FF000
0FF000
003000
003000
007000
007000
03E000
03C000
ENDCHAR
STARTCHAR 02A8
ENCODING 680
SWIDTH 788 0
DWIDTH 23 0
BBX 20 22 1 -2
BITMAP
300000
300000
300000
300000
FFCFE0
FFFFF0
307830
30F000
30E000
30E000
31C000
31C000
31C000
31C000
30C380
30E7E0
30FE70
387C30
1FFFF0
0FFFE0
001800
001800
ENDCHAR
STARTCHAR 02A9
ENCODING 681
SWIDTH 857 0
DWIDTH 25 0
BBX 22 28 1 -6
BITMAP
0FC000
1FC000
1C0000
380000
380000
380000
FFF3F0
FFF7F8
387C3C
38781C
38701C
38700C
38700C
38700C
38700C
38700C
38700C
38700C
38700C
38700C
38700C
38700C
00000C
00000C
00001C
00001C
0003F8
0003F0
ENDCHAR
STARTCHAR 02AA
ENCODING 682
SWIDTH 685 0
DWIDTH 20 0
BBX 16 22 3 0
BITMAP
C000
C000
C000
C000
C000
C000
C3FE
C7FE
CF02
CE00
CE00
CE00
CF80
C7F8
C1FE
C01F
C007
C007
C007
C00F
FFFE
FFFC
ENDCHAR
STARTCHAR 02AB
ENCODING 683
SWIDTH 651 0
DWIDTH 19 0
BBX 15 22 3 0
BITMAP
C000
C000
C000
C000
C000
C000
FFFE
FFFE
FFFC
C01C
C038
C030
C060
C0C0
C180
C300
C600
CC00
C800
DFFE
FFFE
FFFE
ENDCHAR
STARTCHAR 02AC
ENCODING 684
SWIDTH 514 0
DWIDTH 15 0
BBX 13 19 1 0
BITMAP
8618
C718
C518
4510
6DB0
69B0
28A0
38E0
38E0
0000
0000
C718
C518
4510
6DB0
69B0
28A0
38E0
38E0
ENDCHAR
STARTCHAR 02AD
ENCODING 685
SWIDTH 514 0
DWIDTH 15 0
BBX 13 18 1 1
BITMAP
FFF8
FFF8
FFF8
C018
C018
C018
C018
0000
0000
0000
0000
FFF8
FFF8
FFF8
C018
C018
C018
C018
ENDCHAR
STARTCHAR 02AE
ENCODING 686
SWIDTH 651 0
DWIDTH 19 0
BBX 17 28 0 -6
BITMAP
F00000
F80000
F80000
3C0000
1C0000
1C0000
1C0380
1C0380
1C0380
1C0380
1C0380
1C0380
1C0380
1C0380
1C0380
1C0380
1C0380
1C0780
0E0F80
0FFF80
07FB80
03E380
000380
000380
000380
000380
000380
000380
ENDCHAR
STARTCHAR 02AF
ENCODING 687
SWIDTH 651 0
DWIDTH 19 0
BBX 20 28 0 -6
BITMAP
F00000
F80000
F80000
3C0000
1C0000
1C0000
1C0380
1C0380
1C0380
1C0380
1C0380
1C0380
1C0380
1C0380
1C0380
1C0380
1C0380
1C0780
0E0F80
0FFF80
07FB80
03E380
000380
000380
000380
0003F0
0001F0
0000F0
ENDCHAR
STARTCHAR 02B0
ENCODING 688
SWIDTH 411 0
DWIDTH 12 0
BBX 8 12 2 9
BITMAP
80
80
80
9E
E3
C3
83
83
83
83
83
83
ENDCHAR
STARTCHAR 02B1
ENCODING 689
SWIDTH 411 0
DWIDTH 12 0
BBX 8 12 2 9
BITMAP
78
C0
80
9E
E3
C3
83
83
83
83
83
83
ENDCHAR
STARTCHAR 02B2
ENCODING 690
SWIDTH 171 0
DWIDTH 5 0
BBX 3 16 0 6
BITMAP
20
20
00
00
20
20
20
20
20
20
20
20
20
20
60
C0
ENDCHAR
STARTCHAR 02B3
ENCODING 691
SWIDTH 274 0
DWIDTH 8 0
BBX 6 9 2 9
BITMAP
FC
C4
C0
80
80
80
80
80
80
ENDCHAR
STARTCHAR 02B4
ENCODING 692
SWIDTH 308 0
DWIDTH 9 0
BBX 6 9 1 9
BITMAP
0C
0C
0C
0C
0C
0C
0C
1C
EC
ENDCHAR
STARTCHAR 02B5
ENCODING 693
SWIDTH 308 0
DWIDTH 9 0
BBX 8 12 1 6
BITMAP
0C
0C
0C
0C
0C
0C
0C
1C
EC
0C
0C
07
ENDCHAR
STARTCHAR 02B6
ENCODING 694
SWIDTH 377 0
DWIDTH 11 0
BBX 9 9 0 9
BITMAP
C180
C300
C200
FC00
FE00
C300
C300
FE00
F000
ENDCHAR
STARTCHAR 02B7
ENCODING 695
SWIDTH 514 0
DWIDTH 15 0
BBX 13 9 1 9
BITMAP
C718
C518
4510
6DB0
6DB0
68A0
38A0
38E0
3060
ENDCHAR
STARTCHAR 02B8
ENCODING 696
SWIDTH 377 0
DWIDTH 11 0
BBX 9 12 1 6
BITMAP
C180
C100
6300
6300
2600
3600
1C00
1C00
0800
1800
3000
E000
ENDCHAR
STARTCHAR 02B9
ENCODING 697
SWIDTH 274 0
DWIDTH 8 0
BBX 4 7 2 16
BITMAP
70
70
60
60
60
E0
C0
ENDCHAR
STARTCHAR 02BA
ENCODING 698
SWIDTH 445 0
DWIDTH 13 0
BBX 9 7 2 16
BITMAP
7380
7380
6380
6300
6300
E300
C300
ENDCHAR
STARTCHAR 02BB
ENCODING 699
SWIDTH 308 0
DWIDTH 9 0
BBX 4 7 2 14
BITMAP
10
30
70
70
E0
E0
E0
ENDCHAR
STARTCHAR 02BC
ENCODING 700
SWIDTH 308 0
DWIDTH 9 0
BBX 4 7 3 14
BITMAP
70
70
70
E0
E0
C0
C0
ENDCHAR
STARTCHAR 02BD
ENCODING 701
SWIDTH 308 0
DWIDTH 9 0
BBX 4 7 3 18
BITMAP
E0
E0
E0
E0
60
70
30
ENDCHAR
STARTCHAR 02BE
ENCODING 702
SWIDTH 308 0
DWIDTH 9 0
BBX 4 8 2 14
BITMAP
C0
E0
60
20
30
60
E0
C0
ENDCHAR
STARTCHAR 02BF
ENCODING 703
SWIDTH 308 0
DWIDTH 9 0
BBX 4 8 2 14
BITMAP
30
F0
C0
80
80
C0
F0
30
ENDCHAR
STARTCHAR 02C0
ENCODING 704
SWIDTH 377 0
DWIDTH 11 0
BBX 7 12 2 9
BITMAP
F8
8C
06
06
06
0E
38
30
30
30
30
30
ENDCHAR
STARTCHAR 02C1
ENCODING 705
SWIDTH 377 0
DWIDTH 11 0
BBX 7 12 2 9
BITMAP
3C
C2
C0
80
C0
C0
38
18
18
18
18
18
ENDCHAR
STARTCHAR 02C2
ENCODING 706
SWIDTH 514 0
DWIDTH 15 0
BBX 7 9 4 15
BITMAP
06
1E
78
E0
C0
F0
3C
0E
02
ENDCHAR
STARTCHAR 02C3
ENCODING 707
SWIDTH 514 0
DWIDTH 15 0
BBX 7 8 4 15
BITMAP
80
E0
78
1E
0E
3C
F0
C0
ENDCHAR
STARTCHAR 02C4
ENCODING 708
SWIDTH 514 0
DWIDTH 15 0
BBX 9 7 3 16
BITMAP
1C00
3C00
3600
6600
6300
C300
C180
ENDCHAR
STARTCHAR 02C5
ENCODING 709
SWIDTH 514 0
DWIDTH 15 0
BBX 9 7 3 16
BITMAP
C180
C300
6300
6600
3600
3C00
1C00
ENDCHAR
STARTCHAR 02C6
ENCODING 710
SWIDTH 514 0
DWIDTH 15 0
BBX 8 5 3 18
BITMAP
1C
3C
76
63
C3
ENDCHAR
STARTCHAR 02C7
ENCODING 711
SWIDTH 514 0
DWIDTH 15 0
BBX 8 5 3 18
BITMAP
C3
63
76
3C
1C
ENDCHAR
STARTCHAR 02C8
ENCODING 712
SWIDTH 274 0
DWIDTH 8 0
BBX 2 8 3 14
BITMAP
C0
C0
C0
C0
C0
C0
C0
C0
ENDCHAR
STARTCHAR 02C9
ENCODING 713
SWIDTH 514 0
DWIDTH 15 0
BBX 8 3 3 19
BITMAP
FF
FF
FF
ENDCHAR
STARTCHAR 02CA
ENCODING 714
SWIDTH 514 0
DWIDTH 15 0
BBX 6 5 6 18
BITMAP
1C
38
70
E0
C0
ENDCHAR
STARTCHAR 02CB
ENCODING 715
SWIDTH 514 0
DWIDTH 15 0
BBX 6 5 3 18
BITMAP
E0
60
30
18
0C
ENDCHAR
STARTCHAR 02CC
ENCODING 716
SWIDTH 274 0
DWIDTH 8 0
BBX 2 8 3 -4
BITMAP
C0
C0
C0
C0
C0
C0
C0
C0
ENDCHAR
STARTCHAR 02CD
ENCODING 717
SWIDTH 514 0
DWIDTH 15 0
BBX 8 3 3 -5
BITMAP
FF
FF
FF
ENDCHAR
STARTCHAR 02CE
ENCODING 718
SWIDTH 514 0
DWIDTH 15 0
BBX 6 5 3 -7
BITMAP
E0
70
30
18
0C
ENDCHAR
STARTCHAR 02CF
ENCODING 719
SWIDTH 514 0
DWIDTH 15 0
BBX 6 5 6 -7
BITMAP
3C
30
60
E0
C0
ENDCHAR
STARTCHAR 02D0
ENCODING 720
SWIDTH 342 0
DWIDTH 10 0
BBX 4 15 2 0
BITMAP
F0
F0
60
60
40
00
00
00
00
00
40
60
60
F0
F0
ENDCHAR
STARTCHAR 02D1
ENCODING 721
SWIDTH 342 0
DWIDTH 10 0
BBX 4 5 2 10
BITMAP
F0
F0
60
60
40
ENDCHAR
STARTCHAR 02D2
ENCODING 722
SWIDTH 308 0
DWIDTH 9 0
BBX 4 8 2 7
BITMAP
C0
E0
60
20
30
60
E0
C0
ENDCHAR
STARTCHAR 02D3
ENCODING 723
SWIDTH 308 0
DWIDTH 9 0
BBX 4 8 2 7
BITMAP
30
F0
C0
80
80
C0
F0
30
ENDCHAR
STARTCHAR 02D4
ENCODING 724
SWIDTH 514 0
DWIDTH 15 0
BBX 6 6 4 7
BITMAP
30
30
30
30
FC
FC
ENDCHAR
STARTCHAR 02D5
ENCODING 725
SWIDTH 514 0
DWIDTH 15 0
BBX 6 6 4 7
BITMAP
FC
FC
30
30
30
30
ENDCHAR
STARTCHAR 02D6
ENCODING 726
SWIDTH 377 0
DWIDTH 11 0
BBX 9 8 1 4
BITMAP
0C00
0C00
0C00
FF80
FF80
0C00
0C00
0C00
ENDCHAR
STARTCHAR 02D7
ENCODING 727
SWIDTH 308 0
DWIDTH 9 0
BBX 7 2 1 7
BITMAP
FE
FE
ENDCHAR
STARTCHAR 02D8
ENCODING 728
SWIDTH 514 0
DWIDTH 15 0
BBX 9 4 3 19
BITMAP
C180
C300
7F00
3E00
ENDCHAR
STARTCHAR 02D9
ENCODING 729
SWIDTH 514 0
DWIDTH 15 0
BBX 3 3 6 19
BITMAP
E0
E0
E0
ENDCHAR
STARTCHAR 02DA
ENCODING 730
SWIDTH 514 0
DWIDTH 15 0
BBX 8 8 3 18
BITMAP
3C
7E
63
C3
C3
63
7E
3C
ENDCHAR
STARTCHAR 02DB
ENCODING 731
SWIDTH 514 0
DWIDTH 15 0
BBX 5 6 5 -6
BITMAP
60
C0
C0
C0
F8
78
ENDCHAR
STARTCHAR 02DC
ENCODING 732
SWIDTH 514 0
DWIDTH 15 0
BBX 9 4 3 19
BITMAP
7180
F980
CF00
8700
ENDCHAR
STARTCHAR 02DD
ENCODING 733
SWIDTH 514 0
DWIDTH 15 0
BBX 9 5 4 18
BITMAP
3180
7300
6700
C600
CC00
ENDCHAR
STARTCHAR 02DE
ENCODING 734
SWIDTH 308 0
DWIDTH 9 0
BBX 10 8 0 7
BITMAP
0E00
3E00
FE00
EE00
8E00
0E00
07C0
03C0
ENDCHAR
STARTCHAR 02DF
ENCODING 735
SWIDTH 514 0
DWIDTH 15 0
BBX 7 5 4 18
BITMAP
EE
7C
38
7C
EE
ENDCHAR
STARTCHAR 02E0
ENCODING 736
SWIDTH 411 0
DWIDTH 12 0
BBX 8 12 2 6
BITMAP
C3
66
36
1C
1C
34
26
62
43
43
67
3E
ENDCHAR
STARTCHAR 02E1
ENCODING 737
SWIDTH 171 0
DWIDTH 5 0
BBX 1 12 2 9
BITMAP
80
80
80
80
80
80
80
80
80
80
80
80
ENDCHAR
STARTCHAR 02E2
ENCODING 738
SWIDTH 377 0
DWIDTH 11 0
BBX 7 10 2 9
BITMAP
3C
EE
80
C0
F8
1E
06
06
FE
10
ENDCHAR
STARTCHAR 02E3
ENCODING 739
SWIDTH 445 0
DWIDTH 13 0
BBX 9 9 2 9
BITMAP
E180
2300
3600
1C00
1C00
3600
6300
4100
C180
ENDCHAR
STARTCHAR 02E4
ENCODING 740
SWIDTH 377 0
DWIDTH 11 0
BBX 7 12 2 9
BITMAP
3C
C2
C0
80
C0
C0
38
18
18
18
18
18
ENDCHAR
STARTCHAR 02E5
ENCODING 741
SWIDTH 480 0
DWIDTH 14 0
BBX 8 19 3 0
BITMAP
FF
FF
FF
03
03
03
03
03
03
03
03
03
03
03
03
03
03
03
03
ENDCHAR
STARTCHAR 02E6
ENCODING 742
SWIDTH 480 0
DWIDTH 14 0
BBX 8 19 3 0
BITMAP
03
03
03
03
FF
FF
FF
03
03
03
03
03
03
03
03
03
03
03
03
ENDCHAR
STARTCHAR 02E7
ENCODING 743
SWIDTH 480 0
DWIDTH 14 0
BBX 8 19 3 0
BITMAP
03
03
03
03
03
03
03
03
03
FF
FF
FF
03
03
03
03
03
03
03
ENDCHAR
STARTCHAR 02E8
ENCODING 744
SWIDTH 480 0
DWIDTH 14 0
BBX 8 19 3 0
BITMAP
03
03
03
03
03
03
03
03
03
03
03
03
FF
FF
FF
03
03
03
03
ENDCHAR
STARTCHAR 02E9
ENCODING 745
SWIDTH 480 0
DWIDTH 14 0
BBX 8 19 3 0
BITMAP
03
03
03
03
03
03
03
03
03
03
03
03
03
03
03
03
FF
FF
FF
ENDCHAR
STARTCHAR 02EC
ENCODING 748
SWIDTH 514 0
DWIDTH 15 0
BBX 9 7 3 -8
BITMAP
C180
C300
6300
6600
3600
3C00
1C00
ENDCHAR
STARTCHAR 02ED
ENCODING 749
SWIDTH 514 0
DWIDTH 15 0
BBX 8 7 3 17
BITMAP
FF
FF
FF
00
FF
FF
FF
ENDCHAR
STARTCHAR 02EE
ENCODING 750
SWIDTH 514 0
DWIDTH 15 0
BBX 9 7 3 14
BITMAP
7380
7380
7380
E380
E300
C300
C600
ENDCHAR
STARTCHAR 02F3
ENCODING 755
SWIDTH 514 0
DWIDTH 15 0
BBX 8 8 3 -7
BITMAP
3C
7E
63
C3
C3
63
7E
3C
ENDCHAR
STARTCHAR 02F7
ENCODING 759
SWIDTH 514 0
DWIDTH 15 0
BBX 9 4 3 -6
BITMAP
7180
F980
CF00
8700
ENDCHAR
STARTCHAR 0300
ENCODING 768
SWIDTH 0 0
DWIDTH 0 0
BBX 6 5 -12 16
BITMAP
E0
70
38
18
0C
ENDCHAR
STARTCHAR 0301
ENCODING 769
SWIDTH 0 0
DWIDTH 0 0
BBX 6 5 -9 16
BITMAP
1C
38
30
60
C0
ENDCHAR
STARTCHAR 0302
ENCODING 770
SWIDTH 0 0
DWIDTH 0 0
BBX 8 5 -11 16
BITMAP
38
3C
6E
C6
C3
ENDCHAR
STARTCHAR 0303
ENCODING 771
SWIDTH 0 0
DWIDTH 0 0
BBX 9 4 -12 19
BITMAP
7080
7980
CF80
C700
ENDCHAR
STARTCHAR 0304
ENCODING 772
SWIDTH 0 0
DWIDTH 0 0
BBX 8 3 -11 19
BITMAP
FF
FF
FF
ENDCHAR
STARTCHAR 0305
ENCODING 773
SWIDTH 0 0
DWIDTH 0 0
BBX 15 3 -15 20
BITMAP
FFFE
FFFE
FFFE
ENDCHAR
STARTCHAR 0306
ENCODING 774
SWIDTH 0 0
DWIDTH 0 0
BBX 9 4 -12 19
BITMAP
C180
E180
7F00
3E00
ENDCHAR
STARTCHAR 0307
ENCODING 775
SWIDTH 0 0
DWIDTH 0 0
BBX 3 3 -9 16
BITMAP
E0
E0
E0
ENDCHAR
STARTCHAR 0308
ENCODING 776
SWIDTH 0 0
DWIDTH 0 0
BBX 8 3 -11 16
BITMAP
C7
C7
C7
ENDCHAR
STARTCHAR 0309
ENCODING 777
SWIDTH 0 0
DWIDTH 0 0
BBX 6 6 -10 18
BITMAP
78
FC
0C
0C
18
30
ENDCHAR
STARTCHAR 030A
ENCODING 778
SWIDTH 0 0
DWIDTH 0 0
BBX 8 8 -11 18
BITMAP
3C
7E
C6
C3
C3
C6
7E
3C
ENDCHAR
STARTCHAR 030B
ENCODING 779
SWIDTH 0 0
DWIDTH 0 0
BBX 10 5 -11 18
BITMAP
39C0
3180
7300
6600
C600
ENDCHAR
STARTCHAR 030C
ENCODING 780
SWIDTH 0 0
DWIDTH 0 0
BBX 8 5 -11 16
BITMAP
C3
C6
6E
3C
38
ENDCHAR
STARTCHAR 030D
ENCODING 781
SWIDTH 0 0
DWIDTH 0 0
BBX 2 6 -8 18
BITMAP
C0
C0
C0
C0
C0
C0
ENDCHAR
STARTCHAR 030E
ENCODING 782
SWIDTH 0 0
DWIDTH 0 0
BBX 8 6 -11 18
BITMAP
C3
C3
C3
C3
C3
C3
ENDCHAR
STARTCHAR 030F
ENCODING 783
SWIDTH 0 0
DWIDTH 0 0
BBX 9 5 -13 18
BITMAP
E600
6300
3300
3180
1980
ENDCHAR
STARTCHAR 0310
ENCODING 784
SWIDTH 0 0
DWIDTH 0 0
BBX 9 8 -12 19
BITMAP
1C00
1C00
1C00
0000
C180
E180
7F00
3E00
ENDCHAR
STARTCHAR 0311
ENCODING 785
SWIDTH 0 0
DWIDTH 0 0
BBX 9 4 -12 19
BITMAP
3E00
7F00
E180
C180
ENDCHAR
STARTCHAR 0312
ENCODING 786
SWIDTH 0 0
DWIDTH 0 0
BBX 4 5 -7 14
BITMAP
30
30
70
70
E0
ENDCHAR
STARTCHAR 0313
ENCODING 787
SWIDTH 0 0
DWIDTH 0 0
BBX 4 7 -9 17
BITMAP
F0
F0
F0
30
60
E0
C0
ENDCHAR
STARTCHAR 0314
ENCODING 788
SWIDTH 0 0
DWIDTH 0 0
BBX 4 7 -9 17
BITMAP
F0
F0
F0
C0
C0
70
30
ENDCHAR
STARTCHAR 0315
ENCODING 789
SWIDTH 0 0
DWIDTH 0 0
BBX 4 5 -2 17
BITMAP
70
60
60
E0
E0
ENDCHAR
STARTCHAR 0316
ENCODING 790
SWIDTH 0 0
DWIDTH 0 0
BBX 6 5 -12 -8
BITMAP
E0
70
38
18
0C
ENDCHAR
STARTCHAR 0317
ENCODING 791
SWIDTH 0 0
DWIDTH 0 0
BBX 6 5 -9 -8
BITMAP
1C
38
30
60
C0
ENDCHAR
STARTCHAR 0318
ENCODING 792
SWIDTH 0 0
DWIDTH 0 0
BBX 4 6 -10 -7
BITMAP
30
30
F0
F0
30
30
ENDCHAR
STARTCHAR 0319
ENCODING 793
SWIDTH 0 0
DWIDTH 0 0
BBX 4 6 -8 -7
BITMAP
C0
C0
F0
F0
C0
C0
ENDCHAR
STARTCHAR 031A
ENCODING 794
SWIDTH 0 0
DWIDTH 0 0
BBX 7 7 -6 20
BITMAP
FE
FE
06
06
06
06
06
ENDCHAR
STARTCHAR 031B
ENCODING 795
SWIDTH 0 0
DWIDTH 0 0
BBX 6 5 -4 12
BITMAP
0C
0C
8C
7C
38
ENDCHAR
STARTCHAR 031C
ENCODING 796
SWIDTH 0 0
DWIDTH 0 0
BBX 3 7 -9 -7
BITMAP
60
E0
C0
C0
C0
E0
60
ENDCHAR
STARTCHAR 031D
ENCODING 797
SWIDTH 0 0
DWIDTH 0 0
BBX 7 4 -11 -7
BITMAP
18
18
FE
FE
ENDCHAR
STARTCHAR 031E
ENCODING 798
SWIDTH 0 0
DWIDTH 0 0
BBX 7 4 -11 -7
BITMAP
FE
18
18
18
ENDCHAR
STARTCHAR 031F
ENCODING 799
SWIDTH 0 0
DWIDTH 0 0
BBX 6 6 -10 -7
BITMAP
30
30
FC
FC
30
30
ENDCHAR
STARTCHAR 0320
ENCODING 800
SWIDTH 0 0
DWIDTH 0 0
BBX 7 2 -11 -5
BITMAP
FE
FE
ENDCHAR
STARTCHAR 0321
ENCODING 801
SWIDTH 0 0
DWIDTH 0 0
BBX 8 8 -9 -6
BITMAP
03
03
03
03
07
07
FE
FC
ENDCHAR
STARTCHAR 0322
ENCODING 802
SWIDTH 0 0
DWIDTH 0 0
BBX 8 8 -9 -6
BITMAP
C0
C0
C0
C0
E0
E0
7F
3F
ENDCHAR
STARTCHAR 0323
ENCODING 803
SWIDTH 0 0
DWIDTH 0 0
BBX 3 3 -9 -5
BITMAP
E0
E0
E0
ENDCHAR
STARTCHAR 0324
ENCODING 804
SWIDTH 0 0
DWIDTH 0 0
BBX 8 3 -11 -5
BITMAP
C7
C7
C7
ENDCHAR
STARTCHAR 0325
ENCODING 805
SWIDTH 0 0
DWIDTH 0 0
BBX 6 7 -10 -7
BITMAP
70
F8
CC
8C
CC
F8
70
ENDCHAR
STARTCHAR 0326
ENCODING 806
SWIDTH 0 0
DWIDTH 0 0
BBX 4 5 -9 -7
BITMAP
70
E0
E0
C0
C0
ENDCHAR
STARTCHAR 0327
ENCODING 807
SWIDTH 0 0
DWIDTH 0 0
BBX 5 6 -10 -6
BITMAP
10
18
18
18
F8
F0
ENDCHAR
STARTCHAR 0328
ENCODING 808
SWIDTH 0 0
DWIDTH 0 0
BBX 5 6 -10 -6
BITMAP
60
60
C0
E0
F8
78
ENDCHAR
STARTCHAR 0329
ENCODING 809
SWIDTH 0 0
DWIDTH 0 0
BBX 2 6 -8 -7
BITMAP
C0
C0
C0
C0
C0
C0
ENDCHAR
STARTCHAR 032A
ENCODING 810
SWIDTH 0 0
DWIDTH 0 0
BBX 8 5 -11 -6
BITMAP
FF
FF
C3
C3
C3
ENDCHAR
STARTCHAR 032B
ENCODING 811
SWIDTH 0 0
DWIDTH 0 0
BBX 12 4 -13 -6
BITMAP
C630
C620
FFE0
7FC0
ENDCHAR
STARTCHAR 032C
ENCODING 812
SWIDTH 0 0
DWIDTH 0 0
BBX 8 5 -11 -7
BITMAP
C3
C6
6E
3C
38
ENDCHAR
STARTCHAR 032D
ENCODING 813
SWIDTH 0 0
DWIDTH 0 0
BBX 8 5 -11 -7
BITMAP
38
3C
6E
C6
C3
ENDCHAR
STARTCHAR 032E
ENCODING 814
SWIDTH 0 0
DWIDTH 0 0
BBX 9 4 -12 -6
BITMAP
C180
E180
7F00
3E00
ENDCHAR
STARTCHAR 032F
ENCODING 815
SWIDTH 0 0
DWIDTH 0 0
BBX 9 4 -12 -6
BITMAP
0800
7F00
7380
C180
ENDCHAR
STARTCHAR 0330
ENCODING 816
SWIDTH 0 0
DWIDTH 0 0
BBX 9 4 -12 -6
BITMAP
7080
7980
CF80
C700
ENDCHAR
STARTCHAR 0331
ENCODING 817
SWIDTH 0 0
DWIDTH 0 0
BBX 8 3 -11 -5
BITMAP
FF
FF
FF
ENDCHAR
STARTCHAR 0332
ENCODING 818
SWIDTH 0 0
DWIDTH 0 0
BBX 15 3 -15 -7
BITMAP
FFFE
FFFE
FFFE
ENDCHAR
STARTCHAR 0333
ENCODING 819
SWIDTH 0 0
DWIDTH 0 0
BBX 15 8 -15 -7
BITMAP
FFFE
FFFE
FFFE
0000
0000
FFFE
FFFE
FFFE
ENDCHAR
STARTCHAR 0334
ENCODING 820
SWIDTH 0 0
DWIDTH 0 0
BBX 15 4 -16 7
BITMAP
3E02
FF8E
E7FE
80F8
ENDCHAR
STARTCHAR 0335
ENCODING 821
SWIDTH 0 0
DWIDTH 0 0
BBX 7 3 -9 6
BITMAP
FE
FE
FE
ENDCHAR
STARTCHAR 0336
ENCODING 822
SWIDTH 0 0
DWIDTH 0 0
BBX 18 3 -18 6
BITMAP
FFFFC0
FFFFC0
FFFFC0
ENDCHAR
STARTCHAR 0337
ENCODING 823
SWIDTH 0 0
DWIDTH 0 0
BBX 15 18 -16 -1
BITMAP
0004
000E
001C
0018
0030
0060
00C0
01C0
0180
0300
0600
0C00
1C00
3800
3000
6000
C000
8000
ENDCHAR
STARTCHAR 0338
ENCODING 824
SWIDTH 0 0
DWIDTH 0 0
BBX 19 23 -21 -1
BITMAP
000060
000060
0000C0
000180
000380
000700
000E00
000C00
001800
003000
007000
00E000
01C000
038000
030000
060000
0C0000
1C0000
380000
700000
600000
C00000
800000
ENDCHAR
STARTCHAR 0339
ENCODING 825
SWIDTH 0 0
DWIDTH 0 0
BBX 3 7 -8 -7
BITMAP
80
C0
40
60
40
C0
80
ENDCHAR
STARTCHAR 033A
ENCODING 826
SWIDTH 0 0
DWIDTH 0 0
BBX 8 5 -11 -6
BITMAP
C3
C3
C3
FF
FF
ENDCHAR
STARTCHAR 033B
ENCODING 827
SWIDTH 0 0
DWIDTH 0 0
BBX 6 6 -10 -7
BITMAP
FC
8C
8C
8C
FC
FC
ENDCHAR
STARTCHAR 033C
ENCODING 828
SWIDTH 0 0
DWIDTH 0 0
BBX 11 4 -13 -6
BITMAP
1080
7FE0
EF60
C620
ENDCHAR
STARTCHAR 033D
ENCODING 829
SWIDTH 0 0
DWIDTH 0 0
BBX 6 6 -10 18
BITMAP
C8
FC
78
78
FC
48
ENDCHAR
STARTCHAR 033E
ENCODING 830
SWIDTH 0 0
DWIDTH 0 0
BBX 4 8 -7 17
BITMAP
30
F0
C0
C0
60
30
F0
C0
ENDCHAR
STARTCHAR 033F
ENCODING 831
SWIDTH 0 0
DWIDTH 0 0
BBX 15 8 -15 15
BITMAP
FFFE
FFFE
FFFE
0000
0000
FFFE
FFFE
FFFE
ENDCHAR
STARTCHAR 0340
ENCODING 832
SWIDTH 0 0
DWIDTH 0 0
BBX 6 5 -12 18
BITMAP
E0
70
38
18
0C
ENDCHAR
STARTCHAR 0341
ENCODING 833
SWIDTH 0 0
DWIDTH 0 0
BBX 6 5 -9 18
BITMAP
1C
38
30
60
C0
ENDCHAR
STARTCHAR 0342
ENCODING 834
SWIDTH 0 0
DWIDTH 0 0
BBX 9 4 -12 19
BITMAP
7080
7980
CF80
C700
ENDCHAR
STARTCHAR 0343
ENCODING 835
SWIDTH 0 0
DWIDTH 0 0
BBX 4 7 -9 17
BITMAP
F0
F0
F0
30
60
E0
C0
ENDCHAR
STARTCHAR 0344
ENCODING 836
SWIDTH 0 0
DWIDTH 0 0
BBX 8 9 -11 19
BITMAP
03
06
0C
1C
38
00
E7
E7
E7
ENDCHAR
STARTCHAR 0345
ENCODING 837
SWIDTH 0 0
DWIDTH 0 0
BBX 3 5 -8 -6
BITMAP
C0
C0
C0
C0
E0
ENDCHAR
STARTCHAR 0346
ENCODING 838
SWIDTH 0 0
DWIDTH 0 0
BBX 8 4 -11 19
BITMAP
FF
FF
C3
C3
ENDCHAR
STARTCHAR 0347
ENCODING 839
SWIDTH 0 0
DWIDTH 0 0
BBX 6 6 -10 -7
BITMAP
FC
FC
00
00
FC
FC
ENDCHAR
STARTCHAR 0348
ENCODING 840
SWIDTH 0 0
DWIDTH 0 0
BBX 7 6 -11 -7
BITMAP
E6
E6
E6
E6
E6
E6
ENDCHAR
STARTCHAR 0349
ENCODING 841
SWIDTH 0 0
DWIDTH 0 0
BBX 6 6 -10 -7
BITMAP
FC
FC
0C
0C
0C
0C
ENDCHAR
STARTCHAR 034A
ENCODING 842
SWIDTH 0 0
DWIDTH 0 0
BBX 9 5 -12 18
BITMAP
0680
7C80
DD80
DF80
1000
ENDCHAR
STARTCHAR 034B
ENCODING 843
SWIDTH 0 0
DWIDTH 0 0
BBX 9 9 -12 16
BITMAP
0600
0600
0000
7880
FF80
C700
3000
3000
3000
ENDCHAR
STARTCHAR 034C
ENCODING 844
SWIDTH 0 0
DWIDTH 0 0
BBX 9 6 -12 17
BITMAP
7D80
FF80
C300
7880
FF80
CF00
ENDCHAR
STARTCHAR 034D
ENCODING 845
SWIDTH 0 0
DWIDTH 0 0
BBX 11 6 -13 -7
BITMAP
30C0
6060
FFE0
4060
60C0
3180
ENDCHAR
STARTCHAR 034E
ENCODING 846
SWIDTH 0 0
DWIDTH 0 0
BBX 6 6 -10 -7
BITMAP
20
70
F8
AC
20
20
ENDCHAR
STARTCHAR 034F
ENCODING 847
SWIDTH 0 0
DWIDTH 0 0
BBX 0 0 0 0
BITMAP
ENDCHAR
STARTCHAR 0351
ENCODING 849
SWIDTH 0 0
DWIDTH 0 0
BBX 4 7 -9 18
BITMAP
70
E0
C0
C0
C0
E0
70
ENDCHAR
STARTCHAR 0352
ENCODING 850
SWIDTH 0 0
DWIDTH 0 0
BBX 9 6 -12 16
BITMAP
3E00
7F00
E180
DD80
1C00
1C00
ENDCHAR
STARTCHAR 0353
ENCODING 851
SWIDTH 0 0
DWIDTH 0 0
BBX 6 6 -10 -7
BITMAP
C8
FC
78
78
FC
48
ENDCHAR
STARTCHAR 0357
ENCODING 855
SWIDTH 0 0
DWIDTH 0 0
BBX 4 7 -9 18
BITMAP
C0
60
30
30
30
E0
C0
ENDCHAR
STARTCHAR 0358
ENCODING 856
SWIDTH 0 0
DWIDTH 0 0
BBX 3 3 -3 19
BITMAP
E0
E0
E0
ENDCHAR
STARTCHAR 035A
ENCODING 858
SWIDTH 0 0
DWIDTH 0 0
BBX 10 6 -12 -7
BITMAP
7780
FFC0
8CC0
8CC0
FFC0
7780
ENDCHAR
STARTCHAR 035C
ENCODING 860
SWIDTH 0 0
DWIDTH 0 0
BBX 26 5 -13 -7
BITMAP
80000040
F00003C0
7F003F80
0FFFFC00
00FFC000
ENDCHAR
STARTCHAR 035D
ENCODING 861
SWIDTH 0 0
DWIDTH 0 0
BBX 26 5 -13 23
BITMAP
80000040
F00003C0
7F003F80
0FFFFC00
00FFC000
ENDCHAR
STARTCHAR 035E
ENCODING 862
SWIDTH 0 0
DWIDTH 0 0
BBX 26 2 -13 25
BITMAP
FFFFFFC0
FFFFFFC0
ENDCHAR
STARTCHAR 035F
ENCODING 863
SWIDTH 0 0
DWIDTH 0 0
BBX 26 3 -13 -5
BITMAP
FFFFFFC0
FFFFFFC0
FFFFFFC0
ENDCHAR
STARTCHAR 0360
ENCODING 864
SWIDTH 0 0
DWIDTH 0 0
BBX 20 4 -10 22
BITMAP
1F8030
7FF070
E0FFE0
C01FC0
ENDCHAR
STARTCHAR 0361
ENCODING 865
SWIDTH 0 0
DWIDTH 0 0
BBX 26 5 -13 22
BITMAP
00FFC000
0FFFFC00
7F003F80
F00003C0
80000040
ENDCHAR
STARTCHAR 0362
ENCODING 866
SWIDTH 0 0
DWIDTH 0 0
BBX 26 6 -13 -7
BITMAP
00000300
00000180
FFFFFFC0
00000080
00000180
00000300
ENDCHAR
STARTCHAR 0370
ENCODING 880
SWIDTH 651 0
DWIDTH 19 0
BBX 13 21 3 0
BITMAP
E000
E000
E000
E000
E000
E000
E000
E000
E000
FFF8
FFF8
E000
E000
E000
E000
E000
E000
E000
E000
E000
E000
ENDCHAR
STARTCHAR 0371
ENCODING 881
SWIDTH 548 0
DWIDTH 16 0
BBX 11 16 3 0
BITMAP
C000
C000
C000
C000
C000
C000
C000
FFE0
FFE0
C000
C000
C000
C000
C000
C000
C000
ENDCHAR
STARTCHAR 0372
ENCODING 882
SWIDTH 857 0
DWIDTH 25 0
BBX 19 21 3 0
BITMAP
FFFFE0
FFFFE0
E0E0E0
E0E0E0
E0E0E0
E0E0E0
E0E0E0
E0E0E0
E0E0E0
E0E0E0
E0E0E0
00E000
00E000
00E000
00E000
00E000
00E000
00E000
00E000
00E000
00E000
ENDCHAR
STARTCHAR 0373
ENCODING 883
SWIDTH 651 0
DWIDTH 19 0
BBX 13 21 3 0
BITMAP
FFF8
FFF8
C738
C738
C738
C738
C738
C738
C738
C738
C738
0700
0700
0700
0700
0700
0700
0700
0700
0700
0700
ENDCHAR
STARTCHAR 0374
ENCODING 884
SWIDTH 274 0
DWIDTH 8 0
BBX 4 7 2 16
BITMAP
70
70
60
60
60
E0
C0
ENDCHAR
STARTCHAR 0375
ENCODING 885
SWIDTH 274 0
DWIDTH 8 0
BBX 4 7 2 -6
BITMAP
30
70
70
60
60
60
E0
ENDCHAR
STARTCHAR 0376
ENCODING 886
SWIDTH 754 0
DWIDTH 22 0
BBX 16 21 3 0
BITMAP
E00F
E01F
E01F
E03F
E03F
E077
E067
E0E7
E1C7
E1C7
E387
E387
E707
E707
EE07
EE07
FC07
FC07
F807
F807
F007
ENDCHAR
STARTCHAR 0377
ENCODING 887
SWIDTH 651 0
DWIDTH 19 0
BBX 13 16 3 0
BITMAP
C038
C078
C0F8
C0D8
C1D8
C198
C398
C718
C618
CE18
CC18
DC18
F818
F018
F018
E018
ENDCHAR
STARTCHAR 037A
ENCODING 890
SWIDTH 514 0
DWIDTH 15 0
BBX 3 5 6 -6
BITMAP
C0
C0
C0
C0
E0
ENDCHAR
STARTCHAR 037B
ENCODING 891
SWIDTH 548 0
DWIDTH 16 0
BBX 12 16 2 0
BITMAP
7F00
FF80
FFE0
81E0
00F0
0070
0070
0030
0030
0070
0070
00F0
81E0
FFE0
FF80
7F00
ENDCHAR
STARTCHAR 037C
ENCODING 892
SWIDTH 548 0
DWIDTH 16 0
BBX 12 16 2 0
BITMAP
0FE0
3FF0
7FF0
7810
F000
E000
E380
C380
C380
E380
E000
F000
7810
7FF0
3FF0
0FE0
ENDCHAR
STARTCHAR 037D
ENCODING 893
SWIDTH 548 0
DWIDTH 16 0
BBX 12 16 2 0
BITMAP
7F00
FF80
FFE0
81E0
00F0
0070
1C70
1C30
1C30
1C70
0070
00F0
81E0
FFE0
FF80
7F00
ENDCHAR
STARTCHAR 037E
ENCODING 894
SWIDTH 342 0
DWIDTH 10 0
BBX 4 18 2 -3
BITMAP
70
70
70
70
00
00
00
00
00
00
00
70
70
70
70
60
60
C0
ENDCHAR
STARTCHAR 037F
ENCODING 895
SWIDTH 308 0
DWIDTH 9 0
BBX 8 27 -2 -6
BITMAP
07
07
07
07
07
07
07
07
07
07
07
07
07
07
07
07
07
07
07
07
07
07
0E
1E
FE
FC
F0
ENDCHAR
STARTCHAR 0384
ENCODING 900
SWIDTH 514 0
DWIDTH 15 0
BBX 6 5 6 18
BITMAP
1C
38
70
E0
C0
ENDCHAR
STARTCHAR 0385
ENCODING 901
SWIDTH 514 0
DWIDTH 15 0
BBX 9 9 3 19
BITMAP
0380
0700
0E00
1C00
1800
0000
E300
E300
E300
ENDCHAR
STARTCHAR 0386
ENCODING 902
SWIDTH 685 0
DWIDTH 20 0
BBX 19 23 0 0
BITMAP
060000
0C0000
1CF000
38F000
71F800
01F800
019800
039C00
039C00
070C00
070E00
060E00
0E0700
0E0700
1C0300
1FFF80
1FFF80
3FFF80
3801C0
3801C0
7000E0
7000E0
E000E0
ENDCHAR
STARTCHAR 0387
ENCODING 903
SWIDTH 308 0
DWIDTH 9 0
BBX 3 4 3 8
BITMAP
E0
E0
E0
E0
ENDCHAR
STARTCHAR 0388
ENCODING 904
SWIDTH 754 0
DWIDTH 22 0
BBX 20 23 0 0
BITMAP
1C0000
380000
33FFF0
63FFF0
C3FFF0
038000
038000
038000
038000
038000
038000
03FFE0
03FFE0
03FFE0
038000
038000
038000
038000
038000
038000
03FFF0
03FFF0
03FFF0
ENDCHAR
STARTCHAR 0389
ENCODING 905
SWIDTH 857 0
DWIDTH 25 0
BBX 22 23 0 0
BITMAP
1C0000
180000
33801C
63801C
C3801C
03801C
03801C
03801C
03801C
03801C
03801C
03FFFC
03FFFC
03FFFC
03801C
03801C
03801C
03801C
03801C
03801C
03801C
03801C
03801C
ENDCHAR
STARTCHAR 038A
ENCODING 906
SWIDTH 411 0
DWIDTH 12 0
BBX 9 23 0 0
BITMAP
1C00
3800
3380
6380
C380
0380
0380
0380
0380
0380
0380
0380
0380
0380
0380
0380
0380
0380
0380
0380
0380
0380
0380
ENDCHAR
STARTCHAR 038C
ENCODING 908
SWIDTH 822 0
DWIDTH 24 0
BBX 22 23 0 0
BITMAP
1C0000
180000
307E00
63FF80
C7FFE0
0F81F0
0F00F0
1E0078
1C0038
3C0038
38001C
38001C
38001C
38001C
38001C
3C0038
1C0038
1E0078
0F00F0
0F81F0
07FFE0
03FF80
007E00
ENDCHAR
STARTCHAR 038E
ENCODING 910
SWIDTH 822 0
DWIDTH 24 0
BBX 23 23 0 0
BITMAP
1C0000
380000
33800E
61C00E
C0E01C
00E038
007038
003870
0038E0
001CE0
000FC0
000F80
000780
000700
000700
000700
000700
000700
000700
000700
000700
000700
000700
ENDCHAR
STARTCHAR 038F
ENCODING 911
SWIDTH 822 0
DWIDTH 24 0
BBX 22 23 0 0
BITMAP
1C0000
380000
70FE00
63FF80
C7FFE0
0F81F0
1E00F0
1C0078
3C0038
380038
38001C
38001C
38001C
380038
380038
1C0038
1C0070
0E0070
0700E0
0383C0
3FC7FC
3FC7FC
3FC7FC
ENDCHAR
STARTCHAR 0390
ENCODING 912
SWIDTH 342 0
DWIDTH 10 0
BBX 9 28 0 0
BITMAP
0380
0700
0E00
1C00
1800
0000
E300
E300
E300
0000
0000
0000
1800
1800
1800
1800
1800
1800
1800
1800
1800
1800
1800
1800
1C00
1F80
0F80
0780
ENDCHAR
STARTCHAR 0391
ENCODING 913
SWIDTH 685 0
DWIDTH 20 0
BBX 19 21 0 0
BITMAP
00F000
00F000
01F800
01F800
019800
039C00
039C00
070C00
070E00
060E00
0E0700
0E0700
1C0300
1FFF80
1FFF80
3FFF80
3801C0
3801C0
7000E0
7000E0
E000E0
ENDCHAR
STARTCHAR 0392
ENCODING 914
SWIDTH 685 0
DWIDTH 20 0
BBX 15 21 3 0
BITMAP
FFC0
FFF0
FFF8
E03C
E01C
E01C
E01C
E01C
E038
FFF0
FFE0
FFF8
E03C
E01E
E00E
E00E
E01E
E03C
FFFC
FFF8
FFE0
ENDCHAR
STARTCHAR 0393
ENCODING 915
SWIDTH 548 0
DWIDTH 16 0
BBX 13 21 3 0
BITMAP
FFF8
FFF8
FFF8
E000
E000
E000
E000
E000
E000
E000
E000
E000
E000
E000
E000
E000
E000
E000
E000
E000
E000
ENDCHAR
STARTCHAR 0394
ENCODING 916
SWIDTH 685 0
DWIDTH 20 0
BBX 19 21 0 0
BITMAP
00F000
00F000
01F800
01F800
01B800
039C00
039C00
070C00
070E00
060E00
0E0700
0E0700
1C0300
1C0380
180380
380180
3801C0
3000C0
7FFFE0
7FFFE0
FFFFE0
ENDCHAR
STARTCHAR 0395
ENCODING 917
SWIDTH 617 0
DWIDTH 18 0
BBX 13 21 3 0
BITMAP
FFF8
FFF8
FFF8
E000
E000
E000
E000
E000
E000
FFF8
FFF8
FFF8
E000
E000
E000
E000
E000
E000
FFF8
FFF8
FFF8
ENDCHAR
STARTCHAR 0396
ENCODING 918
SWIDTH 685 0
DWIDTH 20 0
BBX 18 21 1 0
BITMAP
7FFF80
7FFF80
7FFF80
000700
000E00
000C00
001C00
003800
007000
00E000
01C000
018000
038000
070000
0E0000
1C0000
380000
700000
7FFFC0
FFFFC0
FFFFC0
ENDCHAR
STARTCHAR 0397
ENCODING 919
SWIDTH 754 0
DWIDTH 22 0
BBX 16 21 3 0
BITMAP
E007
E007
E007
E007
E007
E007
E007
E007
E007
FFFF
FFFF
FFFF
E007
E007
E007
E007
E007
E007
E007
E007
E007
ENDCHAR
STARTCHAR 0398
ENCODING 920
SWIDTH 788 0
DWIDTH 23 0
BBX 19 21 2 0
BITMAP
03F800
0FFE00
1FFF00
3E0F80
7803C0
7001C0
F001E0
E000E0
E000E0
EFFCE0
EFFCE0
EFFCE0
E000E0
E000E0
E001E0
7001C0
7803C0
3E0F80
1FFF00
0FFE00
03F800
ENDCHAR
STARTCHAR 0399
ENCODING 921
SWIDTH 308 0
DWIDTH 9 0
BBX 3 21 3 0
BITMAP
E0
E0
E0
E0
E0
E0
E0
E0
E0
E0
E0
E0
E0
E0
E0
E0
E0
E0
E0
E0
E0
ENDCHAR
STARTCHAR 039A
ENCODING 922
SWIDTH 651 0
DWIDTH 19 0
BBX 16 21 3 0
BITMAP
E00E
E01C
E038
E0F0
E1E0
E3C0
E780
EF00
FE00
FC00
FC00
FE00
EF00
E780
E3C0
E1E0
E0F0
E078
E03C
E01E
E00F
ENDCHAR
STARTCHAR 039B
ENCODING 923
SWIDTH 685 0
DWIDTH 20 0
BBX 19 21 0 0
BITMAP
00F000
00F000
01F800
01F800
01B800
039C00
039C00
070C00
070E00
070E00
0E0700
0E0700
1C0700
1C0380
1C0380
380180
3801C0
3801C0
7000E0
7000E0
E000E0
ENDCHAR
STARTCHAR 039C
ENCODING 924
SWIDTH 857 0
DWIDTH 25 0
BBX 19 21 3 0
BITMAP
F001E0
F803E0
F803E0
F803E0
FC07E0
EC06E0
EE0EE0
EE0EE0
E60CE0
E71CE0
E318E0
E318E0
E3B8E0
E1B0E0
E1F0E0
E0F0E0
E0E0E0
E000E0
E000E0
E000E0
E000E0
ENDCHAR
STARTCHAR 039D
ENCODING 925
SWIDTH 754 0
DWIDTH 22 0
BBX 16 21 3 0
BITMAP
F007
F807
F807
FC07
FC07
EE07
EE07
E707
E707
E387
E387
E1C7
E1C7
E0E7
E067
E077
E03F
E03F
E01F
E01F
E00F
ENDCHAR
STARTCHAR 039E
ENCODING 926
SWIDTH 617 0
DWIDTH 18 0
BBX 13 21 3 0
BITMAP
FFF8
FFF8
FFF8
0000
0000
0000
0000
0000
0000
7FE0
7FE0
7FE0
0000
0000
0000
0000
0000
0000
FFF8
FFF8
FFF8
ENDCHAR
STARTCHAR 039F
ENCODING 927
SWIDTH 788 0
DWIDTH 23 0
BBX 19 21 2 0
BITMAP
03F800
0FFE00
1FFF00
3E0F80
7803C0
7001C0
F001E0
E000E0
E000E0
E000E0
E000E0
E000E0
E000E0
E000E0
E001E0
7001C0
7803C0
3E0F80
1FFF00
0FFE00
03F800
ENDCHAR
STARTCHAR 03A0
ENCODING 928
SWIDTH 754 0
DWIDTH 22 0
BBX 16 21 3 0
BITMAP
FFFF
FFFF
FFFF
E007
E007
E007
E007
E007
E007
E007
E007
E007
E007
E007
E007
E007
E007
E007
E007
E007
E007
ENDCHAR
STARTCHAR 03A1
ENCODING 929
SWIDTH 582 0
DWIDTH 17 0
BBX 14 21 3 0
BITMAP
FFC0
FFE0
FFF0
E078
E038
E038
E03C
E038
E038
E078
FFF0
FFF0
FFC0
E000
E000
E000
E000
E000
E000
E000
E000
ENDCHAR
STARTCHAR 03A3
ENCODING 931
SWIDTH 617 0
DWIDTH 18 0
BBX 13 21 3 0
BITMAP
FFF8
FFF8
FFF8
F000
7800
3C00
1E00
0F00
0780
03C0
0380
0780
0F00
0E00
1C00
3800
7000
F000
FFF8
FFF8
FFF8
ENDCHAR
STARTCHAR 03A4
ENCODING 932
SWIDTH 617 0
DWIDTH 18 0
BBX 18 21 0 0
BITMAP
FFFFC0
FFFFC0
FFFFC0
01C000
01C000
01C000
01C000
01C000
01C000
01C000
01C000
01C000
01C000
01C000
01C000
01C000
01C000
01C000
01C000
01C000
01C000
ENDCHAR
STARTCHAR 03A5
ENCODING 933
SWIDTH 617 0
DWIDTH 18 0
BBX 17 21 0 0
BITMAP
E00380
700380
380700
380E00
1C0E00
0E1C00
0E3800
073800
03F000
03E000
01E000
01C000
01C000
01C000
01C000
01C000
01C000
01C000
01C000
01C000
01C000
ENDCHAR
STARTCHAR 03A6
ENCODING 934
SWIDTH 788 0
DWIDTH 23 0
BBX 19 21 2 0
BITMAP
00E000
00E000
03F800
1FFF00
3FFF80
7CE7C0
F0E3C0
E0E1E0
E0E0E0
E0E0E0
E0E0E0
E0E0E0
E0E0E0
E0E1E0
F0E3C0
7CE7C0
3FFF80
1FFE00
03F800
00E000
00E000
ENDCHAR
STARTCHAR 03A7
ENCODING 935
SWIDTH 685 0
DWIDTH 20 0
BBX 18 21 1 0
BITMAP
700380
380700
3C0700
1C0E00
0E1C00
0F1C00
073800
03F000
03F000
01E000
01E000
03F000
03F000
073800
0E1C00
0E1C00
1C0E00
380700
380700
700380
E001C0
ENDCHAR
STARTCHAR 03A8
ENCODING 936
SWIDTH 788 0
DWIDTH 23 0
BBX 19 21 2 0
BITMAP
E0E0E0
E0E0E0
E0E0E0
E0E0E0
E0E0E0
E0E0E0
E0E0E0
E0E0E0
E0E0E0
E0E0E0
F0E1E0
70E1C0
78E3C0
3CEF80
1FFF00
0FFE00
03F800
00E000
00E000
00E000
00E000
ENDCHAR
STARTCHAR 03A9
ENCODING 937
SWIDTH 754 0
DWIDTH 22 0
BBX 20 21 1 0
BITMAP
01F800
0FFF00
1FFF80
3E07C0
3C01E0
7800E0
7000E0
F00070
E00070
E00070
E00070
E00070
7000E0
7000E0
3800E0
3801C0
1C0380
0F0F00
FF8FF0
FF8FF0
FF8FF0
ENDCHAR
STARTCHAR 03AA
ENCODING 938
SWIDTH 308 0
DWIDTH 9 0
BBX 9 26 0 0
BITMAP
E380
E380
E380
0000
0000
1C00
1C00
1C00
1C00
1C00
1C00
1C00
1C00
1C00
1C00
1C00
1C00
1C00
1C00
1C00
1C00
1C00
1C00
1C00
1C00
1C00
ENDCHAR
STARTCHAR 03AB
ENCODING 939
SWIDTH 617 0
DWIDTH 18 0
BBX 17 26 0 0
BITMAP
073800
073800
073800
000000
000000
E00380
700380
380700
380E00
1C0E00
0E1C00
0E3800
073800
03F000
03E000
01E000
01C000
01C000
01C000
01C000
01C000
01C000
01C000
01C000
01C000
01C000
ENDCHAR
STARTCHAR 03AC
ENCODING 940
SWIDTH 651 0
DWIDTH 19 0
BBX 16 23 2 0
BITMAP
00E0
00C0
0180
0300
0600
0000
0000
0F86
3FCE
7FEC
F0EC
E07C
E078
C078
C038
C030
C030
E038
E078
F0FC
7FFF
3FFF
1F8F
ENDCHAR
STARTCHAR 03AD
ENCODING 941
SWIDTH 548 0
DWIDTH 16 0
BBX 12 23 2 0
BITMAP
00E0
01C0
0380
0300
0600
0000
0000
1FC0
7FE0
7FE0
F020
E000
7000
7F80
1F80
7F80
F000
E000
E000
F030
FFF0
7FF0
1FC0
ENDCHAR
STARTCHAR 03AE
ENCODING 942
SWIDTH 617 0
DWIDTH 18 0
BBX 13 29 3 -6
BITMAP
0060
00C0
01C0
0380
0700
0000
0000
C7C0
DFE0
DFF0
F870
E038
E038
C038
C038
C038
C038
C038
C038
C038
C038
C038
C038
0038
0038
0038
0038
0038
0038
ENDCHAR
STARTCHAR 03AF
ENCODING 943
SWIDTH 342 0
DWIDTH 10 0
BBX 7 23 2 0
BITMAP
0E
1C
18
30
60
00
00
E0
E0
E0
E0
E0
E0
E0
E0
E0
E0
E0
E0
70
7E
7E
1E
ENDCHAR
STARTCHAR 03B0
ENCODING 944
SWIDTH 582 0
DWIDTH 17 0
BBX 13 28 2 0
BITMAP
01C0
0380
0300
0600
0C00
0000
71C0
71C0
71C0
0000
0000
0000
E060
E070
E030
E038
E038
E038
E038
E038
E038
E038
E070
E070
F1E0
7FE0
3FC0
1F00
ENDCHAR
STARTCHAR 03B1
ENCODING 945
SWIDTH 651 0
DWIDTH 19 0
BBX 16 16 2 0
BITMAP
0F86
3FCE
7FEC
F0EC
E07C
E078
C078
C038
C030
C030
E038
E078
F0FC
7FFF
3FFF
1F8F
ENDCHAR
STARTCHAR 03B2
ENCODING 946
SWIDTH 651 0
DWIDTH 19 0
BBX 13 28 3 -6
BITMAP
1F80
7FE0
7FE0
F0F0
E070
C070
C070
C070
C1E0
CFC0
CFC0
CFF0
C078
C038
C018
C018
C018
E038
F078
FFF0
FFF0
DFC0
C000
C000
C000
C000
C000
C000
ENDCHAR
STARTCHAR 03B3
ENCODING 947
SWIDTH 582 0
DWIDTH 17 0
BBX 16 22 0 -6
BITMAP
F007
F807
3806
180E
1C0E
0C1C
0E1C
0E18
0638
0738
0770
0370
03E0
03E0
01E0
01C0
01C0
01C0
01C0
01C0
01C0
01C0
ENDCHAR
STARTCHAR 03B4
ENCODING 948
SWIDTH 617 0
DWIDTH 18 0
BBX 14 22 2 0
BITMAP
0FC0
3FF0
7FF0
7810
7000
7800
3F00
1FE0
30F0
6038
E01C
E01C
C01C
C01C
C01C
E01C
E01C
F03C
7878
7FF0
3FF0
0FC0
ENDCHAR
STARTCHAR 03B5
ENCODING 949
SWIDTH 548 0
DWIDTH 16 0
BBX 12 16 2 0
BITMAP
1FC0
7FE0
7FE0
F020
E000
7000
7F80
1F80
7F80
F000
E000
E000
F030
FFF0
7FF0
1FC0
ENDCHAR
STARTCHAR 03B6
ENCODING 950
SWIDTH 548 0
DWIDTH 16 0
BBX 12 29 2 -7
BITMAP
FFF0
FFF0
FFF0
01E0
0780
0F00
1C00
3800
7000
7000
E000
E000
C000
C000
C000
C000
E000
E000
F800
7FC0
3FE0
0FF0
0070
0030
0030
0070
00F0
00E0
00C0
ENDCHAR
STARTCHAR 03B7
ENCODING 951
SWIDTH 617 0
DWIDTH 18 0
BBX 13 22 3 -6
BITMAP
C7C0
DFE0
DFF0
F870
E038
E038
C038
C038
C038
C038
C038
C038
C038
C038
C038
C038
0038
0038
0038
0038
0038
0038
ENDCHAR
STARTCHAR 03B8
ENCODING 952
SWIDTH 617 0
DWIDTH 18 0
BBX 14 22 2 0
BITMAP
0F80
1FE0
3FF0
7878
7038
E038
E01C
E01C
E01C
C01C
FFFC
FFFC
FFFC
C01C
E01C
E01C
E018
7038
7878
3FF0
1FE0
0F80
ENDCHAR
STARTCHAR 03B9
ENCODING 953
SWIDTH 342 0
DWIDTH 10 0
BBX 7 16 2 0
BITMAP
E0
E0
E0
E0
E0
E0
E0
E0
E0
E0
E0
E0
70
7E
7E
1E
ENDCHAR
STARTCHAR 03BA
ENCODING 954
SWIDTH 582 0
DWIDTH 17 0
BBX 13 16 3 0
BITMAP
C070
C0E0
C1C0
C380
C700
DE00
FE00
FE00
F700
E380
C380
C1C0
C0E0
C0F0
C070
C038
ENDCHAR
STARTCHAR 03BB
ENCODING 955
SWIDTH 582 0
DWIDTH 17 0
BBX 15 22 1 0
BITMAP
3C00
3E00
3F00
0700
0380
0380
03C0
01C0
03C0
03E0
07E0
0760
0E70
0E70
1C30
1C38
3838
381C
301C
700C
600E
E00E
ENDCHAR
STARTCHAR 03BC
ENCODING 956
SWIDTH 617 0
DWIDTH 18 0
BBX 16 22 2 -6
BITMAP
E01C
E01C
E01C
E01C
E01C
E01C
E01C
E01C
E01C
E01C
E01C
E01C
F03C
FFFC
EFCF
E78E
E000
E000
E000
E000
E000
E000
ENDCHAR
STARTCHAR 03BD
ENCODING 957
SWIDTH 548 0
DWIDTH 16 0
BBX 14 16 1 0
BITMAP
E070
E038
7018
7018
701C
381C
381C
381C
1838
1C38
1C70
0CF0
0EE0
0FC0
0F80
0700
ENDCHAR
STARTCHAR 03BE
ENCODING 958
SWIDTH 548 0
DWIDTH 16 0
BBX 12 29 2 -7
BITMAP
FFF0
FFF0
FFF0
3E00
7000
6000
E000
E000
E000
7C00
3FC0
0FC0
3FC0
F800
E000
C000
C000
E000
F000
FFC0
3FE0
0FF0
0070
0030
0030
0070
00F0
00E0
00C0
ENDCHAR
STARTCHAR 03BF
ENCODING 959
SWIDTH 617 0
DWIDTH 18 0
BBX 14 16 2 0
BITMAP
0FC0
3FF0
7FF8
7878
E03C
E01C
C01C
C01C
C01C
C01C
E01C
E03C
7878
7FF8
3FF0
0FC0
ENDCHAR
STARTCHAR 03C0
ENCODING 960
SWIDTH 582 0
DWIDTH 17 0
BBX 16 16 1 0
BITMAP
FFFE
FFFE
FFFE
3818
3818
3818
3818
3818
3818
3818
3818
3818
381C
381F
381F
380F
ENDCHAR
STARTCHAR 03C1
ENCODING 961
SWIDTH 617 0
DWIDTH 18 0
BBX 14 22 3 -6
BITMAP
0FC0
3FE0
7FF0
7878
E038
E01C
C01C
C01C
C01C
C01C
E01C
E038
F878
FFF0
DFE0
C7C0
C000
C000
C000
C000
C000
C000
ENDCHAR
STARTCHAR 03C2
ENCODING 962
SWIDTH 582 0
DWIDTH 17 0
BBX 12 23 2 -7
BITMAP
0FE0
3FF0
7FF0
7810
F000
E000
E000
C000
C000
E000
E000
F000
7800
7FC0
3FE0
0FE0
0070
0070
0070
0070
01E0
01E0
01C0
ENDCHAR
STARTCHAR 03C3
ENCODING 963
SWIDTH 617 0
DWIDTH 18 0
BBX 16 16 2 0
BITMAP
0FFF
3FFF
7FFF
F878
E038
E01C
C01C
C01C
C01C
C01C
E01C
E03C
7878
7FF8
3FF0
0FC0
ENDCHAR
STARTCHAR 03C4
ENCODING 964
SWIDTH 582 0
DWIDTH 17 0
BBX 15 16 1 0
BITMAP
FFFE
FFFE
FFFE
0380
0380
0380
0380
0380
0380
0380
0380
0380
01C0
01F8
01F8
0078
ENDCHAR
STARTCHAR 03C5
ENCODING 965
SWIDTH 582 0
DWIDTH 17 0
BBX 13 16 2 0
BITMAP
E060
E070
E030
E038
E038
E038
E038
E038
E038
E038
E070
E070
F1E0
7FE0
3FC0
1F00
ENDCHAR
STARTCHAR 03C6
ENCODING 966
SWIDTH 651 0
DWIDTH 19 0
BBX 15 22 2 -6
BITMAP
08F0
39F8
7BFC
F39E
E38E
E38E
C386
C386
C386
C386
E38E
E38E
73BC
7FFC
3FF8
0FE0
0380
0380
0380
0380
0380
0380
ENDCHAR
STARTCHAR 03C7
ENCODING 967
SWIDTH 582 0
DWIDTH 17 0
BBX 15 22 1 -6
BITMAP
E00E
F81C
F83C
3C38
1C70
0E70
0EE0
06E0
07C0
07C0
0380
0380
0780
0FC0
0FC0
1CE0
1CE0
3860
3870
707E
703E
E01E
ENDCHAR
STARTCHAR 03C8
ENCODING 968
SWIDTH 651 0
DWIDTH 19 0
BBX 15 22 2 -6
BITMAP
C386
C386
C386
C386
C386
C386
C386
C386
C386
C386
C386
E38E
F39E
7FFC
3FF8
0FE0
0380
0380
0380
0380
0380
0380
ENDCHAR
STARTCHAR 03C9
ENCODING 969
SWIDTH 822 0
DWIDTH 24 0
BBX 20 16 2 0
BITMAP
3800C0
7000E0
7000E0
700070
E00070
E00070
E06070
E06070
E06070
E07070
E0F070
F0F070
71F8F0
7FFFE0
3F9FC0
1F0F80
ENDCHAR
STARTCHAR 03CA
ENCODING 970
SWIDTH 342 0
DWIDTH 10 0
BBX 9 22 0 0
BITMAP
E300
E300
E300
0000
0000
0000
1800
1800
1800
1800
1800
1800
1800
1800
1800
1800
1800
1800
1C00
1F80
0F80
0780
ENDCHAR
STARTCHAR 03CB
ENCODING 971
SWIDTH 582 0
DWIDTH 17 0
BBX 13 22 2 0
BITMAP
71C0
71C0
71C0
0000
0000
0000
E060
E070
E030
E038
E038
E038
E038
E038
E038
E038
E070
E070
F1E0
7FE0
3FC0
1F00
ENDCHAR
STARTCHAR 03CC
ENCODING 972
SWIDTH 617 0
DWIDTH 18 0
BBX 14 23 2 0
BITMAP
0060
00C0
0180
0380
0700
0000
0000
0FC0
3FF0
7FF8
7878
E03C
E01C
C01C
C01C
C01C
C01C
E01C
E03C
7878
7FF8
3FF0
0FC0
ENDCHAR
STARTCHAR 03CD
ENCODING 973
SWIDTH 582 0
DWIDTH 17 0
BBX 13 23 2 0
BITMAP
01C0
0380
0300
0600
0C00
0000
0000
E060
E070
E030
E038
E038
E038
E038
E038
E038
E038
E070
E070
F1E0
7FE0
3FC0
1F00
ENDCHAR
STARTCHAR 03CE
ENCODING 974
SWIDTH 822 0
DWIDTH 24 0
BBX 20 23 2 0
BITMAP
000C00
001C00
003800
007000
006000
000000
000000
3800C0
7000E0
7000E0
700070
E00070
E00070
E06070
E06070
E06070
E07070
E0F070
F0F070
71F8F0
7FFFE0
3F9FC0
1F0F80
ENDCHAR
STARTCHAR 03CF
ENCODING 975
SWIDTH 651 0
DWIDTH 19 0
BBX 16 27 3 -6
BITMAP
E01E
E03C
E078
E0F0
E1E0
E3C0
E780
EF00
FE00
FC00
FC00
FE00
EF00
E780
E3C0
E1E0
E0F0
E078
E03C
E01E
E00F
0007
0006
000C
001C
0018
0030
ENDCHAR
STARTCHAR 03D0
ENCODING 976
SWIDTH 617 0
DWIDTH 18 0
BBX 14 22 2 0
BITMAP
0780
1FE0
3FF0
3870
7030
7030
6070
6070
E0E0
FFE0
FFE0
FFF0
E078
E038
6018
601C
701C
7038
3878
3FF0
1FF0
07C0
ENDCHAR
STARTCHAR 03D1
ENCODING 977
SWIDTH 617 0
DWIDTH 18 0
BBX 14 22 2 0
BITMAP
07C0
0FE0
1FF0
3C78
3838
381C
381C
381C
1E1C
1FFC
CFFC
C3FC
C01C
C01C
C01C
E01C
E038
7038
7878
3FF0
1FE0
0F80
ENDCHAR
STARTCHAR 03D2
ENCODING 978
SWIDTH 685 0
DWIDTH 20 0
BBX 18 21 1 0
BITMAP
F80380
FC0FC0
FE1FC0
0F3DC0
0739C0
03F000
03F000
01E000
01E000
01E000
01E000
00C000
00C000
00C000
00C000
00C000
00C000
00C000
00C000
00C000
00C000
ENDCHAR
STARTCHAR 03D3
ENCODING 979
SWIDTH 822 0
DWIDTH 24 0
BBX 24 23 0 0
BITMAP
1C0000
380000
33C01E
63F03F
C3F87F
007CEF
001CC7
000DC0
000F80
000780
000780
000700
000700
000700
000700
000700
000700
000700
000700
000700
000700
000700
000700
ENDCHAR
STARTCHAR 03D4
ENCODING 980
SWIDTH 685 0
DWIDTH 20 0
BBX 18 26 1 0
BITMAP
073800
073800
073800
000000
000000
F80380
FC0FC0
FE1FC0
0F3DC0
0739C0
03F000
03F000
01E000
01E000
01E000
01E000
00C000
00C000
00C000
00C000
00C000
00C000
00C000
00C000
00C000
00C000
ENDCHAR
STARTCHAR 03D5
ENCODING 981
SWIDTH 651 0
DWIDTH 19 0
BBX 15 28 2 -6
BITMAP
0380
0380
0380
0380
0380
0380
0FE0
3FF8
7FFC
739C
E38E
E38E
C386
C386
C386
C386
E38E
E38E
739E
7FFC
3FF8
0FE0
0380
0380
0380
0380
0380
0380
ENDCHAR
STARTCHAR 03D6
ENCODING 982
SWIDTH 822 0
DWIDTH 24 0
BBX 22 16 1 0
BITMAP
FFFFFC
FFFFFC
FFFFFC
380070
700038
700038
703038
703038
703038
703838
707838
787838
38FC78
3FFFF0
1FCFE0
0F87C0
ENDCHAR
STARTCHAR 03D7
ENCODING 983
SWIDTH 651 0
DWIDTH 19 0
BBX 15 22 2 -6
BITMAP
F006
FC0E
FC1E
0E3E
063C
0678
0EF0
0FE0
0FE0
1EE0
3CC0
78C0
78E0
F072
E07E
C03E
000C
000C
000C
0138
01F8
01F0
ENDCHAR
STARTCHAR 03D8
ENCODING 984
SWIDTH 788 0
DWIDTH 23 0
BBX 19 27 2 -6
BITMAP
03F800
0FFE00
1FFF00
3E0F80
7803C0
7001C0
F001E0
E000E0
E000E0
E000E0
E000E0
E000E0
E000E0
E000E0
E001E0
7001C0
7803C0
3E0F80
1FFF00
0FFE00
03F800
00E000
00E000
00E000
00E000
00E000
00E000
ENDCHAR
STARTCHAR 03D9
ENCODING 985
SWIDTH 617 0
DWIDTH 18 0
BBX 14 22 2 -6
BITMAP
0FC0
3FF0
7FF8
7878
E03C
E01C
C01C
C01C
C01C
C01C
E01C
E03C
7878
7FF8
3FF0
0FC0
0300
0300
0300
0300
0300
0300
ENDCHAR
STARTCHAR 03DA
ENCODING 986
SWIDTH 651 0
DWIDTH 19 0
BBX 15 28 2 -7
BITMAP
03FE
0FFE
1FFE
3C00
7800
7000
F000
E000
E000
E000
E000
E000
E000
E000
E000
7000
7800
3C00
3FC0
1FF0
07F0
0038
0038
0038
0038
00F0
00F0
00E0
ENDCHAR
STARTCHAR 03DB
ENCODING 987
SWIDTH 582 0
DWIDTH 17 0
BBX 14 23 2 -7
BITMAP
0FFC
3FFC
7FFC
7800
E000
E000
C000
C000
C000
E000
E000
F000
7800
7F80
3FC0
0FC0
00E0
00E0
00E0
00E0
03C0
03C0
0380
ENDCHAR
STARTCHAR 03DC
ENCODING 988
SWIDTH 582 0
DWIDTH 17 0
BBX 12 21 3 0
BITMAP
FFF0
FFF0
FFF0
E000
E000
E000
E000
E000
FFE0
FFE0
FFE0
E000
E000
E000
E000
E000
E000
E000
E000
E000
E000
ENDCHAR
STARTCHAR 03DD
ENCODING 989
SWIDTH 445 0
DWIDTH 13 0
BBX 15 28 -3 -6
BITMAP
003C
00FE
01FE
01C2
0380
0380
0380
0380
0380
0380
03FC
03FC
03FC
0380
0380
0380
0380
0380
0380
0380
0380
0380
0380
0380
8700
FF00
FE00
7C00
ENDCHAR
STARTCHAR 03DE
ENCODING 990
SWIDTH 651 0
DWIDTH 19 0
BBX 14 21 3 0
BITMAP
E000
F800
7800
3800
3800
3800
380C
303C
70F8
73F8
6FB8
7E30
F830
C070
0060
0060
00E0
00E0
00FC
007C
003C
ENDCHAR
STARTCHAR 03DF
ENCODING 991
SWIDTH 651 0
DWIDTH 19 0
BBX 13 22 3 0
BITMAP
0C00
1C00
1C00
1800
3800
3800
3000
7000
7000
6000
FFF8
FFF8
FFF8
0030
0070
0070
0060
00E0
00E0
00C0
01C0
01C0
ENDCHAR
STARTCHAR 03E0
ENCODING 992
SWIDTH 857 0
DWIDTH 25 0
BBX 21 27 2 -5
BITMAP
3FFC00
7FFF00
FC0F80
CC03C0
8C01E0
0C00E0
0C01F0
0C07F0
0C0E70
0C1C38
0C1C38
001C38
001C38
001C38
001C38
001C38
001C38
001C38
001C38
001C38
001C38
000070
000070
000070
0000E0
0001E0
0001C0
ENDCHAR
STARTCHAR 03E1
ENCODING 993
SWIDTH 617 0
DWIDTH 18 0
BBX 15 21 2 -5
BITMAP
F000
FC00
3E00
0700
0380
01C0
01C0
03E0
0360
0670
0E70
1CF8
39D8
339C
731C
E60C
000C
000C
000C
000E
000E
ENDCHAR
STARTCHAR 03E2
ENCODING 994
SWIDTH 925 0
DWIDTH 27 0
BBX 23 27 2 -6
BITMAP
1C0070
3C0078
380038
78001C
70001C
F0001E
E0000E
E0000E
E0000E
E0380E
E0380E
E0380E
E0380E
E0380E
E0380E
E0380E
F06C1E
78EE3E
7FE7FC
3FC7FC
0F01F8
0001F0
0003E0
000F80
003F00
01FC00
00E000
ENDCHAR
STARTCHAR 03E3
ENCODING 995
SWIDTH 822 0
DWIDTH 24 0
BBX 20 22 2 -6
BITMAP
3801E0
7000E0
7000E0
700070
E00070
E00070
E06070
E06070
E06070
E07070
E0F070
F0F070
71F8F0
7FFFE0
3F9FE0
1F0FC0
000380
000700
001E00
007C00
03F000
018000
ENDCHAR
STARTCHAR 03E4
ENCODING 996
SWIDTH 754 0
DWIDTH 22 0
BBX 17 27 2 -6
BITMAP
038380
0F8380
1F8380
3E0380
780380
700380
F00380
E00380
E00380
E00380
E00380
E00380
E00380
E00380
E00780
F00780
780F80
7C1F80
3FFB80
1FF380
07E380
000380
000380
000380
000380
000380
000380
ENDCHAR
STARTCHAR 03E5
ENCODING 997
SWIDTH 651 0
DWIDTH 19 0
BBX 14 22 2 -6
BITMAP
0E0C
1E0C
3E0C
780C
F00C
E00C
E00C
C00C
C00C
C00C
E01C
E01C
787C
7FFC
3FEC
0F8C
000C
000C
000C
000C
000C
000C
ENDCHAR
STARTCHAR 03E6
ENCODING 998
SWIDTH 788 0
DWIDTH 23 0
BBX 18 27 3 -6
BITMAP
E00000
E00000
E00000
E00000
E00000
E3F000
E7FC00
EFFF00
FC1F80
F80780
F003C0
E003C0
E001C0
E001C0
E001C0
E001C0
E001C0
E001C0
E003C0
E00380
E00780
001F00
003E00
00FC00
07F000
1FC000
0E0000
ENDCHAR
STARTCHAR 03E7
ENCODING 999
SWIDTH 617 0
DWIDTH 18 0
BBX 16 16 1 1
BITMAP
0FC7
1FF6
38FE
703C
703C
707C
7FEE
3FCE
0F0E
000E
000E
000E
000E
7C1C
FFF8
CFF0
ENDCHAR
STARTCHAR 03E8
ENCODING 1000
SWIDTH 685 0
DWIDTH 20 0
BBX 17 28 1 -6
BITMAP
00C000
0FFC00
1FFE00
3E1F00
3C0780
780780
700380
000380
000380
000380
000780
000700
000F00
001E00
003C00
007800
00F000
03E000
07C000
0F0000
3E0000
7C0000
F80000
780080
3C0380
1FFF80
07FE00
01F800
ENDCHAR
STARTCHAR 03E9
ENCODING 1001
SWIDTH 617 0
DWIDTH 18 0
BBX 14 22 2 -6
BITMAP
1FE0
3FF0
7878
F03C
E01C
001C
001C
001C
0038
0038
00F0
01E0
03C0
0F00
1E00
7C00
F000
E000
7004
3C3C
1FF8
07E0
ENDCHAR
STARTCHAR 03EA
ENCODING 1002
SWIDTH 754 0
DWIDTH 22 0
BBX 19 22 2 0
BITMAP
400000
F003E0
F807E0
3C0700
0E0E00
0E1C00
071C00
07B800
03F000
01F000
01E000
01E000
03F000
03F800
073800
0F1C00
0E1E00
1C0E00
380700
780780
FFFFE0
FFFFE0
ENDCHAR
STARTCHAR 03EB
ENCODING 1003
SWIDTH 617 0
DWIDTH 18 0
BBX 16 16 1 0
BITMAP
F00F
F81F
1C38
0E38
0F70
07E0
03C0
03C0
03E0
07E0
0E70
1E38
1C38
381C
FFFF
FFFF
ENDCHAR
STARTCHAR 03EC
ENCODING 1004
SWIDTH 685 0
DWIDTH 20 0
BBX 17 22 2 0
BITMAP
000180
07FF80
1FFF80
3E0000
700000
700000
E7F000
EFFC00
FC3E00
F00F00
E00700
E00700
E00780
C00380
C00380
E00780
E00700
E00700
700F00
781E00
3FFC00
0FF800
ENDCHAR
STARTCHAR 03ED
ENCODING 1005
SWIDTH 617 0
DWIDTH 18 0
BBX 14 22 2 0
BITMAP
0010
0FF0
3FF0
7800
6000
E000
EFC0
DFE0
F870
E038
E038
C01C
C01C
C01C
C01C
C01C
C01C
E038
E038
7070
3FF0
1FE0
ENDCHAR
STARTCHAR 03EE
ENCODING 1006
SWIDTH 617 0
DWIDTH 18 0
BBX 16 27 1 -6
BITMAP
0380
0380
0380
0380
0380
FFFF
FFFF
FFFF
E387
0380
0380
0380
0380
0380
0380
0380
0380
0380
0380
0380
0380
0380
0380
0380
0380
0380
0380
ENDCHAR
STARTCHAR 03EF
ENCODING 1007
SWIDTH 548 0
DWIDTH 16 0
BBX 14 27 1 -6
BITMAP
0700
0700
0700
0700
0700
FFFC
FFFC
FFFC
C71C
0700
0700
0700
0700
0700
0700
0700
0700
0700
0700
0700
0700
0700
0700
0700
0700
0700
0700
ENDCHAR
STARTCHAR 03F0
ENCODING 1008
SWIDTH 651 0
DWIDTH 19 0
BBX 15 16 2 0
BITMAP
F006
FC0E
FC1E
0E3E
063C
0678
0EF0
0FE0
0FE0
1EE0
3CC0
78C0
78E0
F0F2
E07E
C03E
ENDCHAR
STARTCHAR 03F1
ENCODING 1009
SWIDTH 617 0
DWIDTH 18 0
BBX 14 22 3 -6
BITMAP
0FC0
3FE0
7FF0
7878
E038
E01C
C01C
C01C
C01C
C01C
E01C
E038
F878
FFF0
DFE0
C7C0
E000
E000
7000
7FF8
3FF8
0FF8
ENDCHAR
STARTCHAR 03F2
ENCODING 1010
SWIDTH 548 0
DWIDTH 16 0
BBX 12 16 2 0
BITMAP
0FE0
3FF0
7FF0
7810
F000
E000
E000
C000
C000
E000
E000
F000
7810
7FF0
3FF0
0FE0
ENDCHAR
STARTCHAR 03F3
ENCODING 1011
SWIDTH 274 0
DWIDTH 8 0
BBX 6 28 -1 -6
BITMAP
0C
0C
0C
00
00
00
0C
0C
0C
0C
0C
0C
0C
0C
0C
0C
0C
0C
0C
0C
0C
0C
0C
0C
1C
FC
F8
F0
ENDCHAR
STARTCHAR 03F4
ENCODING 1012
SWIDTH 788 0
DWIDTH 23 0
BBX 19 21 2 0
BITMAP
03F800
0FFE00
1FFF00
3E0F80
7803C0
7001C0
F001E0
E000E0
E000E0
FFFFE0
FFFFE0
FFFFE0
E000E0
E000E0
E000E0
7001C0
7803C0
3C0F80
1FFF00
0FFE00
03F800
ENDCHAR
STARTCHAR 03F5
ENCODING 1013
SWIDTH 617 0
DWIDTH 18 0
BBX 12 16 2 0
BITMAP
0FF0
3FF0
7810
7000
E000
E000
C000
FFF0
FFF0
C000
E000
E000
7000
7800
3FF0
0FF0
ENDCHAR
STARTCHAR 03F6
ENCODING 1014
SWIDTH 617 0
DWIDTH 18 0
BBX 12 16 3 0
BITMAP
FF00
FF80
03C0
00E0
0070
0070
0070
FFF0
FFF0
0070
0070
0070
00E0
01C0
FFC0
FF00
ENDCHAR
STARTCHAR 03F7
ENCODING 1015
SWIDTH 617 0
DWIDTH 18 0
BBX 14 21 3 0
BITMAP
E000
E000
E000
E000
FFC0
FFF0
FFF0
E078
E038
E038
E03C
E038
E038
E078
FFF0
FFF0
FFC0
E000
E000
E000
E000
ENDCHAR
STARTCHAR 03F8
ENCODING 1016
SWIDTH 617 0
DWIDTH 18 0
BBX 14 28 3 -6
BITMAP
C000
C000
C000
C000
C000
C000
C7C0
DFE0
DFF0
F878
E038
E01C
C01C
C01C
C01C
C01C
E01C
E038
F878
DFF0
DFE0
C7C0
C000
C000
C000
C000
C000
C000
ENDCHAR
STARTCHAR 03F9
ENCODING 1017
SWIDTH 685 0
DWIDTH 20 0
BBX 17 21 2 0
BITMAP
03FC00
0FFF00
1FFF80
3E0380
780080
700000
E00000
E00000
E00000
E00000
E00000
E00000
E00000
E00000
E00000
700000
780080
3E0380
1FFF80
0FFF00
03F800
ENDCHAR
STARTCHAR 03FA
ENCODING 1018
SWIDTH 857 0
DWIDTH 25 0
BBX 19 21 3 0
BITMAP
F803E0
F803E0
FC07E0
FE0FE0
EF1EE0
E7BCE0
E3F8E0
E1F0E0
E0E0E0
E000E0
E000E0
E000E0
E000E0
E000E0
E000E0
E000E0
E000E0
E000E0
E000E0
E000E0
E000E0
ENDCHAR
STARTCHAR 03FB
ENCODING 1019
SWIDTH 651 0
DWIDTH 19 0
BBX 15 22 2 -6
BITMAP
F01E
F83E
DC7E
DC7E
CEEE
C7CE
C7CE
C38E
C00E
C00E
C00E
C00E
C00E
C00E
C00E
C00E
C000
C000
C000
C000
C000
C000
ENDCHAR
STARTCHAR 03FC
ENCODING 1020
SWIDTH 617 0
DWIDTH 18 0
BBX 16 22 1 -6
BITMAP
07F0
0FFC
1E1C
180E
380E
3807
3007
3007
3007
3007
3007
3806
380E
3C1C
37FC
33F8
3000
3000
FFE0
FFE0
3000
3000
ENDCHAR
STARTCHAR 03FD
ENCODING 1021
SWIDTH 685 0
DWIDTH 20 0
BBX 17 21 2 0
BITMAP
1FC000
FFF000
FFFC00
E07E00
801E00
000F00
000700
000700
000780
000380
000380
000380
000780
000700
000700
000F00
801E00
E07E00
FFFC00
FFF000
1FC000
ENDCHAR
STARTCHAR 03FE
ENCODING 1022
SWIDTH 685 0
DWIDTH 20 0
BBX 17 21 2 0
BITMAP
03FC00
0FFF00
1FFF80
3E0380
780080
700000
E00000
E00000
E00000
E07000
E07000
E07000
E07000
E00000
E00000
700000
780080
3E0380
1FFF80
0FFF00
03F800
ENDCHAR
STARTCHAR 03FF
ENCODING 1023
SWIDTH 685 0
DWIDTH 20 0
BBX 17 21 2 0
BITMAP
1FC000
FFF000
FFFC00
E07E00
801E00
000F00
000700
000700
000780
0E0380
0E0380
0E0380
0E0780
000700
000700
000F00
801E00
E07E00
FFFC00
FFF000
1FC000
ENDCHAR
STARTCHAR 0400
ENCODING 1024
SWIDTH 617 0
DWIDTH 18 0
BBX 13 27 3 0
BITMAP
0600
0700
0380
0180
0000
0000
FFF8
FFF8
FFF8
E000
E000
E000
E000
E000
E000
FFF8
FFF8
FFF8
E000
E000
E000
E000
E000
E000
FFF8
FFF8
FFF8
ENDCHAR
STARTCHAR 0401
ENCODING 1025
SWIDTH 617 0
DWIDTH 18 0
BBX 13 26 3 0
BITMAP
38E0
38E0
38E0
0000
0000
FFF8
FFF8
FFF8
E000
E000
E000
E000
E000
E000
FFF8
FFF8
FFF8
E000
E000
E000
E000
E000
E000
FFF8
FFF8
FFF8
ENDCHAR
STARTCHAR 0402
ENCODING 1026
SWIDTH 788 0
DWIDTH 23 0
BBX 21 27 0 -6
BITMAP
FFFF00
FFFF00
FFFF00
038000
038000
038000
038000
038000
038000
03FF80
03FFE0
03FFF0
0380F0
038070
038038
038038
038038
038038
038038
038038
038038
000030
000070
0000F0
0007F0
0007E0
000780
ENDCHAR
STARTCHAR 0403
ENCODING 1027
SWIDTH 617 0
DWIDTH 18 0
BBX 13 27 3 0
BITMAP
01C0
0380
0300
0600
0000
0000
FFF8
FFF8
FFF8
E000
E000
E000
E000
E000
E000
E000
E000
E000
E000
E000
E000
E000
E000
E000
E000
E000
E000
ENDCHAR
STARTCHAR 0404
ENCODING 1028
SWIDTH 685 0
DWIDTH 20 0
BBX 17 21 2 0
BITMAP
03FC00
0FFF00
1FFF80
3E0780
780080
700000
E00000
E00000
E00000
FFFC00
FFFC00
FFFC00
E00000
E00000
E00000
700000
780080
3E0380
1FFF80
0FFF00
03F800
ENDCHAR
STARTCHAR 0405
ENCODING 1029
SWIDTH 617 0
DWIDTH 18 0
BBX 15 21 2 0
BITMAP
0FF0
3FFC
7FFC
F80C
E000
E000
E000
E000
F800
7FC0
1FF0
03F8
003C
001E
000E
000E
001E
C03C
FFFC
FFF8
3FE0
ENDCHAR
STARTCHAR 0406
ENCODING 1030
SWIDTH 308 0
DWIDTH 9 0
BBX 3 21 3 0
BITMAP
E0
E0
E0
E0
E0
E0
E0
E0
E0
E0
E0
E0
E0
E0
E0
E0
E0
E0
E0
E0
E0
ENDCHAR
STARTCHAR 0407
ENCODING 1031
SWIDTH 308 0
DWIDTH 9 0
BBX 9 26 0 0
BITMAP
E380
E380
E380
0000
0000
1C00
1C00
1C00
1C00
1C00
1C00
1C00
1C00
1C00
1C00
1C00
1C00
1C00
1C00
1C00
1C00
1C00
1C00
1C00
1C00
1C00
ENDCHAR
STARTCHAR 0408
ENCODING 1032
SWIDTH 308 0
DWIDTH 9 0
BBX 8 27 -2 -6
BITMAP
07
07
07
07
07
07
07
07
07
07
07
07
07
07
07
07
07
07
07
07
07
07
0E
1E
FE
FC
F0
ENDCHAR
STARTCHAR 0409
ENCODING 1033
SWIDTH 1097 0
DWIDTH 32 0
BBX 29 21 1 0
BITMAP
07FFC000
07FFC000
07FFC000
0701C000
0701C000
0701C000
0701C000
0701C000
0701C000
0701FF80
0701FFE0
0701FFF0
0701C0F0
0701C078
0E01C038
0E01C038
1E01C078
3C01C0F0
FC01FFF0
F801FFE0
C001FF80
ENDCHAR
STARTCHAR 040A
ENCODING 1034
SWIDTH 1028 0
DWIDTH 30 0
BBX 25 21 3 0
BITMAP
E00E0000
E00E0000
E00E0000
E00E0000
E00E0000
E00E0000
E00E0000
E00E0000
E00E0000
FFFFF800
FFFFFE00
FFFFFF00
E00E0780
E00E0380
E00E0380
E00E0380
E00E0380
E00E0780
E00FFF00
E00FFE00
E00FFC00
ENDCHAR
STARTCHAR 040B
ENCODING 1035
SWIDTH 788 0
DWIDTH 23 0
BBX 21 21 0 0
BITMAP
FFFF00
FFFF00
FFFF00
038000
038000
038000
038000
038000
038000
03FF80
03FFE0
03FFF0
0380F0
038070
038038
038038
038038
038038
038038
038038
038038
ENDCHAR
STARTCHAR 040C
ENCODING 1036
SWIDTH 720 0
DWIDTH 21 0
BBX 17 27 3 0
BITMAP
00E000
01C000
018000
030000
000000
000000
E00F00
E01E00
E03C00
E07800
E0F000
E1E000
E1C000
E38000
E78000
EF8000
FDC000
F9E000
F0E000
E07000
E07800
E03800
E01C00
E00E00
E00E00
E00700
E00380
ENDCHAR
STARTCHAR 040D
ENCODING 1037
SWIDTH 754 0
DWIDTH 22 0
BBX 16 27 3 0
BITMAP
0E00
0700
0300
0180
0000
0000
E00F
E01F
E01F
E03F
E03F
E077
E067
E0E7
E1C7
E1C7
E387
E387
E707
E707
EE07
EE07
FC07
FC07
F807
F807
F007
ENDCHAR
STARTCHAR 040E
ENCODING 1038
SWIDTH 617 0
DWIDTH 18 0
BBX 16 27 1 0
BITMAP
1830
0C30
0FE0
07C0
0000
0000
E007
E00F
700E
700E
701C
381C
3838
1C38
1C78
0E70
0E70
06E0
07E0
07C0
03C0
03C0
0380
0780
3F00
3F00
3C00
ENDCHAR
STARTCHAR 040F
ENCODING 1039
SWIDTH 754 0
DWIDTH 22 0
BBX 16 26 3 -5
BITMAP
E007
E007
E007
E007
E007
E007
E007
E007
E007
E007
E007
E007
E007
E007
E007
E007
E007
E007
FFFF
FFFF
FFFF
0180
0180
0180
0180
0180
ENDCHAR
STARTCHAR 0410
ENCODING 1040
SWIDTH 685 0
DWIDTH 20 0
BBX 19 21 0 0
BITMAP
00F000
00F000
01F800
01F800
019800
039C00
039C00
070C00
070E00
060E00
0E0700
0E0700
1C0300
1FFF80
1FFF80
3FFF80
3801C0
3801C0
7000E0
7000E0
E000E0
ENDCHAR
STARTCHAR 0411
ENCODING 1041
SWIDTH 685 0
DWIDTH 20 0
BBX 15 21 3 0
BITMAP
FFF8
FFF8
FFF8
E000
E000
E000
E000
E000
E000
FFE0
FFF8
FFFC
E03C
E01E
E00E
E00E
E01E
E03C
FFFC
FFF8
FFE0
ENDCHAR
STARTCHAR 0412
ENCODING 1042
SWIDTH 685 0
DWIDTH 20 0
BBX 15 21 3 0
BITMAP
FFC0
FFF0
FFF8
E03C
E01C
E01C
E01C
E01C
E038
FFF0
FFE0
FFF8
E03C
E01E
E00E
E00E
E01E
E03C
FFFC
FFF8
FFE0
ENDCHAR
STARTCHAR 0413
ENCODING 1043
SWIDTH 617 0
DWIDTH 18 0
BBX 13 21 3 0
BITMAP
FFF8
FFF8
FFF8
E000
E000
E000
E000
E000
E000
E000
E000
E000
E000
E000
E000
E000
E000
E000
E000
E000
E000
ENDCHAR
STARTCHAR 0414
ENCODING 1044
SWIDTH 788 0
DWIDTH 23 0
BBX 20 26 1 -5
BITMAP
07FFC0
07FFC0
07FFC0
0701C0
0701C0
0701C0
0701C0
0701C0
0701C0
0701C0
0701C0
0701C0
0701C0
0E01C0
0E01C0
0E01C0
1E01C0
3C01C0
FFFFF0
FFFFF0
FFFFF0
E00030
E00030
E00030
E00030
E00030
ENDCHAR
STARTCHAR 0415
ENCODING 1045
SWIDTH 617 0
DWIDTH 18 0
BBX 13 21 3 0
BITMAP
FFF8
FFF8
FFF8
E000
E000
E000
E000
E000
E000
FFF8
FFF8
FFF8
E000
E000
E000
E000
E000
E000
FFF8
FFF8
FFF8
ENDCHAR
STARTCHAR 0416
ENCODING 1046
SWIDTH 1062 0
DWIDTH 31 0
BBX 29 21 1 0
BITMAP
70070078
780700F0
3C0701E0
1E0703C0
0F070780
07870700
03C70E00
01E71C00
00E73C00
01F77C00
03BFEE00
039FC700
070FC700
0E078380
0E070380
1C0701C0
380700E0
380700E0
70070070
70070038
E0070038
ENDCHAR
STARTCHAR 0417
ENCODING 1047
SWIDTH 651 0
DWIDTH 19 0
BBX 15 21 2 0
BITMAP
1FC0
7FF0
FFF8
E03C
801C
001C
001C
003C
0FF8
0FE0
0FF0
003C
001C
000E
000E
000E
801C
E03C
FFF8
7FF0
1FC0
ENDCHAR
STARTCHAR 0418
ENCODING 1048
SWIDTH 754 0
DWIDTH 22 0
BBX 16 21 3 0
BITMAP
E00F
E01F
E01F
E03F
E03F
E077
E067
E0E7
E1C7
E1C7
E387
E387
E707
E707
EE07
EE07
FC07
FC07
F807
F807
F007
ENDCHAR
STARTCHAR 0419
ENCODING 1049
SWIDTH 754 0
DWIDTH 22 0
BBX 16 27 3 0
BITMAP
1830
0C30
0FE0
07C0
0000
0000
E00F
E01F
E01F
E03F
E03F
E077
E067
E0E7
E1C7
E1C7
E387
E387
E707
E707
EE07
EE07
FC07
FC07
F807
F807
F007
ENDCHAR
STARTCHAR 041A
ENCODING 1050
SWIDTH 720 0
DWIDTH 21 0
BBX 17 21 3 0
BITMAP
E00F00
E01E00
E03C00
E07800
E0F000
E1E000
E1C000
E38000
E78000
EF8000
FDC000
F9E000
F0E000
E07000
E07800
E03800
E01C00
E00E00
E00E00
E00700
E00380
ENDCHAR
STARTCHAR 041B
ENCODING 1051
SWIDTH 754 0
DWIDTH 22 0
BBX 18 21 1 0
BITMAP
07FFC0
07FFC0
07FFC0
0701C0
0701C0
0701C0
0701C0
0701C0
0701C0
0701C0
0701C0
0701C0
0701C0
0701C0
0E01C0
0E01C0
1E01C0
3C01C0
FC01C0
F801C0
C001C0
ENDCHAR
STARTCHAR 041C
ENCODING 1052
SWIDTH 857 0
DWIDTH 25 0
BBX 19 21 3 0
BITMAP
F001E0
F803E0
F803E0
F803E0
FC07E0
EC06E0
EE0EE0
EE0EE0
E60CE0
E71CE0
E318E0
E318E0
E3B8E0
E1B0E0
E1F0E0
E0F0E0
E0E0E0
E000E0
E000E0
E000E0
E000E0
ENDCHAR
STARTCHAR 041D
ENCODING 1053
SWIDTH 754 0
DWIDTH 22 0
BBX 16 21 3 0
BITMAP
E007
E007
E007
E007
E007
E007
E007
E007
E007
FFFF
FFFF
FFFF
E007
E007
E007
E007
E007
E007
E007
E007
E007
ENDCHAR
STARTCHAR 041E
ENCODING 1054
SWIDTH 788 0
DWIDTH 23 0
BBX 19 21 2 0
BITMAP
03F800
0FFE00
1FFF00
3E0F80
7803C0
7001C0
F001E0
E000E0
E000E0
E000E0
E000E0
E000E0
E000E0
E000E0
E001E0
7001C0
7803C0
3E0F80
1FFF00
0FFE00
03F800
ENDCHAR
STARTCHAR 041F
ENCODING 1055
SWIDTH 754 0
DWIDTH 22 0
BBX 16 21 3 0
BITMAP
FFFF
FFFF
FFFF
E007
E007
E007
E007
E007
E007
E007
E007
E007
E007
E007
E007
E007
E007
E007
E007
E007
E007
ENDCHAR
STARTCHAR 0420
ENCODING 1056
SWIDTH 582 0
DWIDTH 17 0
BBX 14 21 3 0
BITMAP
FFC0
FFE0
FFF0
E078
E038
E038
E03C
E038
E038
E078
FFF0
FFF0
FFC0
E000
E000
E000
E000
E000
E000
E000
E000
ENDCHAR
STARTCHAR 0421
ENCODING 1057
SWIDTH 685 0
DWIDTH 20 0
BBX 17 21 2 0
BITMAP
03FC00
0FFF00
1FFF80
3E0380
780080
700000
E00000
E00000
E00000
E00000
E00000
E00000
E00000
E00000
E00000
700000
780080
3E0380
1FFF80
0FFF00
03F800
ENDCHAR
STARTCHAR 0422
ENCODING 1058
SWIDTH 617 0
DWIDTH 18 0
BBX 18 21 0 0
BITMAP
FFFFC0
FFFFC0
FFFFC0
01C000
01C000
01C000
01C000
01C000
01C000
01C000
01C000
01C000
01C000
01C000
01C000
01C000
01C000
01C000
01C000
01C000
01C000
ENDCHAR
STARTCHAR 0423
ENCODING 1059
SWIDTH 617 0
DWIDTH 18 0
BBX 16 21 1 0
BITMAP
E007
E00F
700E
700E
701C
381C
3838
1C38
1C78
0E70
0E70
06E0
07E0
07C0
03C0
03C0
0380
0780
3F00
3F00
3C00
ENDCHAR
STARTCHAR 0424
ENCODING 1060
SWIDTH 857 0
DWIDTH 25 0
BBX 21 21 2 0
BITMAP
007000
007000
03FE00
1FFFC0
3FFFE0
7C71F0
F07078
E07038
E07038
E07038
E07038
E07038
E07038
F07078
7C71F0
3FFFE0
1FFFC0
03FE00
007000
007000
007000
ENDCHAR
STARTCHAR 0425
ENCODING 1061
SWIDTH 685 0
DWIDTH 20 0
BBX 18 21 1 0
BITMAP
700380
380700
3C0700
1C0E00
0E1C00
0F1C00
073800
03F000
03F000
01E000
01E000
03F000
03F000
073800
0E1C00
0E1C00
1C0E00
380700
380700
700380
E001C0
ENDCHAR
STARTCHAR 0426
ENCODING 1062
SWIDTH 788 0
DWIDTH 23 0
BBX 18 26 3 -5
BITMAP
E00700
E00700
E00700
E00700
E00700
E00700
E00700
E00700
E00700
E00700
E00700
E00700
E00700
E00700
E00700
E00700
E00700
E00700
FFFFC0
FFFFC0
FFFFC0
0000C0
0000C0
0000C0
0000C0
0000C0
ENDCHAR
STARTCHAR 0427
ENCODING 1063
SWIDTH 685 0
DWIDTH 20 0
BBX 15 21 2 0
BITMAP
E00E
E00E
E00E
E00E
E00E
E00E
E00E
700E
700E
780E
7FFE
3FFE
0FFE
000E
000E
000E
000E
000E
000E
000E
000E
ENDCHAR
STARTCHAR 0428
ENCODING 1064
SWIDTH 1062 0
DWIDTH 31 0
BBX 25 21 3 0
BITMAP
E01C0380
E01C0380
E01C0380
E01C0380
E01C0380
E01C0380
E01C0380
E01C0380
E01C0380
E01C0380
E01C0380
E01C0380
E01C0380
E01C0380
E01C0380
E01C0380
E01C0380
E01C0380
FFFFFF80
FFFFFF80
FFFFFF80
ENDCHAR
STARTCHAR 0429
ENCODING 1065
SWIDTH 1097 0
DWIDTH 32 0
BBX 28 26 3 -5
BITMAP
E01C0380
E01C0380
E01C0380
E01C0380
E01C0380
E01C0380
E01C0380
E01C0380
E01C0380
E01C0380
E01C0380
E01C0380
E01C0380
E01C0380
E01C0380
E01C0380
E01C0380
E01C0380
FFFFFFF0
FFFFFFF0
FFFFFFF0
00000070
00000070
00000070
00000070
00000070
ENDCHAR
STARTCHAR 042A
ENCODING 1066
SWIDTH 822 0
DWIDTH 24 0
BBX 21 21 1 0
BITMAP
FF8000
FF8000
FF8000
038000
038000
038000
038000
038000
038000
03FF80
03FFE0
03FFF0
0380F8
038038
038038
038038
038038
0380F8
03FFF0
03FFE0
03FF80
ENDCHAR
STARTCHAR 042B
ENCODING 1067
SWIDTH 891 0
DWIDTH 26 0
BBX 20 21 3 0
BITMAP
E00070
E00070
E00070
E00070
E00070
E00070
E00070
E00070
E00070
FFE070
FFF870
FFFC70
E03C70
E01E70
E00E70
E00E70
E01E70
E03C70
FFFC70
FFF870
FFE070
ENDCHAR
STARTCHAR 042C
ENCODING 1068
SWIDTH 685 0
DWIDTH 20 0
BBX 15 21 3 0
BITMAP
E000
E000
E000
E000
E000
E000
E000
E000
E000
FFE0
FFF8
FFFC
E03C
E01E
E00E
E00E
E01E
E03C
FFFC
FFF8
FFE0
ENDCHAR
STARTCHAR 042D
ENCODING 1069
SWIDTH 685 0
DWIDTH 20 0
BBX 17 21 2 0
BITMAP
1FC000
FFF000
FFFC00
E03C00
801E00
000F00
000700
000700
000300
3FFF80
3FFF80
3FFF80
000300
000700
000700
000F00
801E00
E03C00
FFFC00
FFF000
1FC000
ENDCHAR
STARTCHAR 042E
ENCODING 1070
SWIDTH 1062 0
DWIDTH 31 0
BBX 27 21 3 0
BITMAP
E007F000
E01FFC00
E03FFF00
E07C0F80
E0F80780
E0F003C0
E0E001C0
E1E001C0
E1C001E0
FFC000E0
FFC000E0
FFC000E0
E1C001E0
E1E001C0
E0E001C0
E0F003C0
E0F00780
E07C0F80
E03FFF00
E01FFC00
E007F000
ENDCHAR
STARTCHAR 042F
ENCODING 1071
SWIDTH 685 0
DWIDTH 20 0
BBX 15 21 2 0
BITMAP
07FE
1FFE
3FFE
780E
700E
700E
700E
700E
700E
380E
1FFE
07FE
07FE
070E
0F0E
1E0E
1C0E
380E
780E
700E
E00E
ENDCHAR
STARTCHAR 0430
ENCODING 1072
SWIDTH 617 0
DWIDTH 18 0
BBX 13 16 2 0
BITMAP
1F80
7FE0
7FF0
4070
0038
0038
1FF8
7FF8
FFF8
F018
C038
C038
E0F8
FFD8
7F98
3F18
ENDCHAR
STARTCHAR 0431
ENCODING 1073
SWIDTH 617 0
DWIDTH 18 0
BBX 14 22 2 0
BITMAP
03F8
1FF8
3FF8
7C00
7000
E000
CFC0
FFF0
FFF8
F878
F03C
E01C
E01C
E00C
C01C
E01C
E01C
F03C
7878
7FF8
3FF0
0FC0
ENDCHAR
STARTCHAR 0432
ENCODING 1074
SWIDTH 582 0
DWIDTH 17 0
BBX 12 16 3 0
BITMAP
FF80
FFE0
FFE0
C0F0
C070
C060
C0E0
FF80
FFE0
FFF0
C070
C030
C070
FFF0
FFE0
FFC0
ENDCHAR
STARTCHAR 0433
ENCODING 1075
SWIDTH 514 0
DWIDTH 15 0
BBX 11 16 3 0
BITMAP
FFE0
FFE0
FFE0
C000
C000
C000
C000
C000
C000
C000
C000
C000
C000
C000
C000
C000
ENDCHAR
STARTCHAR 0434
ENCODING 1076
SWIDTH 685 0
DWIDTH 20 0
BBX 17 20 2 -4
BITMAP
0FFC00
0FFC00
0FFC00
0C0C00
0C0C00
0C0C00
0C0C00
1C0C00
1C0C00
1C0C00
1C0C00
380C00
780C00
FFFF80
FFFF80
FFFF80
C00380
C00380
C00380
C00380
ENDCHAR
STARTCHAR 0435
ENCODING 1077
SWIDTH 617 0
DWIDTH 18 0
BBX 14 16 2 0
BITMAP
0FC0
3FF0
7FF8
783C
E01C
E00C
FFFC
FFFC
FFFC
C000
E000
E000
780C
7FFC
1FFC
0FF0
ENDCHAR
STARTCHAR 0436
ENCODING 1078
SWIDTH 891 0
DWIDTH 26 0
BBX 24 16 1 0
BITMAP
70180E
38181C
1C1838
0E1870
0718E0
0399C0
03DBC0
03FFE0
077EE0
0E3E70
0C3C38
1C1838
38181C
30180C
70180E
E01807
ENDCHAR
STARTCHAR 0437
ENCODING 1079
SWIDTH 514 0
DWIDTH 15 0
BBX 12 16 2 0
BITMAP
3F00
FFC0
FFE0
C0E0
0060
00E0
1FC0
1F00
1FC0
00E0
0070
0070
80F0
FFE0
FFC0
7F00
ENDCHAR
STARTCHAR 0438
ENCODING 1080
SWIDTH 651 0
DWIDTH 19 0
BBX 13 16 3 0
BITMAP
C038
C078
C0F8
C0D8
C1D8
C198
C398
C718
C618
CE18
CC18
DC18
F818
F018
F018
E018
ENDCHAR
STARTCHAR 0439
ENCODING 1081
SWIDTH 651 0
DWIDTH 19 0
BBX 13 22 3 0
BITMAP
3060
38E0
1FC0
0F80
0000
0000
C038
C078
C0F8
C0D8
C1D8
C198
C398
C718
C618
CE18
CC18
DC18
F818
F018
F018
E018
ENDCHAR
STARTCHAR 043A
ENCODING 1082
SWIDTH 617 0
DWIDTH 18 0
BBX 13 16 3 0
BITMAP
C070
C0E0
C1C0
C380
C700
CE00
DE00
FF00
F700
E380
E1C0
C1C0
C0E0
C070
C038
C038
ENDCHAR
STARTCHAR 043B
ENCODING 1083
SWIDTH 651 0
DWIDTH 19 0
BBX 15 16 1 0
BITMAP
0FFE
0FFE
0FFE
0E06
0E06
0E06
0E06
0E06
0E06
0E06
0E06
1C06
3C06
F806
F006
C006
ENDCHAR
STARTCHAR 043C
ENCODING 1084
SWIDTH 754 0
DWIDTH 22 0
BBX 16 16 3 0
BITMAP
F00F
F00F
F01F
D81B
D81B
CC33
CC33
CE73
C663
C6E3
C3C3
C3C3
C383
C003
C003
C003
ENDCHAR
STARTCHAR 043D
ENCODING 1085
SWIDTH 651 0
DWIDTH 19 0
BBX 13 16 3 0
BITMAP
C018
C018
C018
C018
C018
C018
C018
FFF8
FFF8
FFF8
C018
C018
C018
C018
C018
C018
ENDCHAR
STARTCHAR 043E
ENCODING 1086
SWIDTH 617 0
DWIDTH 18 0
BBX 14 16 2 0
BITMAP
0FC0
3FF0
7FF8
7878
E03C
E01C
C01C
C01C
C01C
C01C
E01C
E03C
7878
7FF8
3FF0
0FC0
ENDCHAR
STARTCHAR 043F
ENCODING 1087
SWIDTH 651 0
DWIDTH 19 0
BBX 13 16 3 0
BITMAP
FFF8
FFF8
FFF8
C018
C018
C018
C018
C018
C018
C018
C018
C018
C018
C018
C018
C018
ENDCHAR
STARTCHAR 0440
ENCODING 1088
SWIDTH 617 0
DWIDTH 18 0
BBX 14 22 3 -6
BITMAP
C7C0
DFE0
DFF0
F878
E038
E01C
C01C
C01C
C01C
C01C
E01C
E038
F878
DFF0
DFE0
C7C0
C000
C000
C000
C000
C000
C000
ENDCHAR
STARTCHAR 0441
ENCODING 1089
SWIDTH 548 0
DWIDTH 16 0
BBX 12 16 2 0
BITMAP
0FE0
3FF0
7FF0
7810
F000
E000
E000
C000
C000
E000
E000
F000
7810
7FF0
3FF0
0FE0
ENDCHAR
STARTCHAR 0442
ENCODING 1090
SWIDTH 582 0
DWIDTH 17 0
BBX 15 16 1 0
BITMAP
FFFE
FFFE
FFFE
0380
0380
0380
0380
0380
0380
0380
0380
0380
0380
0380
0380
0380
ENDCHAR
STARTCHAR 0443
ENCODING 1091
SWIDTH 582 0
DWIDTH 17 0
BBX 15 22 1 -6
BITMAP
E00E
E00E
700C
701C
3018
3838
1838
1C30
1C70
0C60
0EE0
06E0
07C0
07C0
0380
0380
0300
0700
0700
7E00
7E00
7800
ENDCHAR
STARTCHAR 0444
ENCODING 1092
SWIDTH 857 0
DWIDTH 25 0
BBX 21 28 2 -6
BITMAP
007000
007000
007000
007000
007000
007000
1E73C0
3F7FE0
7FFFF0
F0F870
E07038
E07038
C07038
C07038
C07038
C07038
E07038
E07038
F0F870
7FFFF0
3F7FE0
1E77C0
007000
007000
007000
007000
007000
007000
ENDCHAR
STARTCHAR 0445
ENCODING 1093
SWIDTH 582 0
DWIDTH 17 0
BBX 15 16 1 0
BITMAP
701E
781C
3838
1C70
0E70
0FE0
07C0
0380
07C0
07C0
0EE0
1C70
3838
3838
701C
E00E
ENDCHAR
STARTCHAR 0446
ENCODING 1094
SWIDTH 685 0
DWIDTH 20 0
BBX 15 20 3 -4
BITMAP
C018
C018
C018
C018
C018
C018
C018
C018
C018
C018
C018
C018
C018
FFFE
FFFE
FFFE
0006
0006
0006
0006
ENDCHAR
STARTCHAR 0447
ENCODING 1095
SWIDTH 582 0
DWIDTH 17 0
BBX 13 16 2 0
BITMAP
E038
E038
E038
E038
E038
E038
F038
7FF8
7FF8
1FF8
0038
0038
0038
0038
0038
0038
ENDCHAR
STARTCHAR 0448
ENCODING 1096
SWIDTH 925 0
DWIDTH 27 0
BBX 21 16 3 0
BITMAP
C07038
C07038
C07038
C07038
C07038
C07038
C07038
C07038
C07038
C07038
C07038
C07038
C07038
FFFFF8
FFFFF8
FFFFF8
ENDCHAR
STARTCHAR 0449
ENCODING 1097
SWIDTH 925 0
DWIDTH 27 0
BBX 23 20 3 -4
BITMAP
C07038
C07038
C07038
C07038
C07038
C07038
C07038
C07038
C07038
C07038
C07038
C07038
C07038
FFFFFE
FFFFFE
FFFFFE
000006
000006
000006
000006
ENDCHAR
STARTCHAR 044A
ENCODING 1098
SWIDTH 685 0
DWIDTH 20 0
BBX 18 16 1 0
BITMAP
FF0000
FF0000
FF0000
070000
070000
070000
070000
07FE00
07FF80
07FF80
0703C0
0701C0
0703C0
07FF80
07FF80
07FE00
ENDCHAR
STARTCHAR 044B
ENCODING 1099
SWIDTH 788 0
DWIDTH 23 0
BBX 17 16 3 0
BITMAP
C00180
C00180
C00180
C00180
C00180
C00180
C00180
FF8180
FFE180
FFF180
C07180
C03180
C07180
FFF180
FFE180
FF8180
ENDCHAR
STARTCHAR 044C
ENCODING 1100
SWIDTH 582 0
DWIDTH 17 0
BBX 12 16 3 0
BITMAP
C000
C000
C000
C000
C000
C000
C000
FF80
FFE0
FFF0
C070
C030
C070
FFF0
FFE0
FF80
ENDCHAR
STARTCHAR 044D
ENCODING 1101
SWIDTH 548 0
DWIDTH 16 0
BBX 12 16 2 0
BITMAP
7E00
FF80
FFC0
81E0
00F0
0070
7FF0
7FF0
7FF0
0070
0070
00F0
81E0
FFC0
FF80
7F00
ENDCHAR
STARTCHAR 044E
ENCODING 1102
SWIDTH 822 0
DWIDTH 24 0
BBX 20 16 3 0
BITMAP
C07F00
C0FF80
C1FFC0
C3C1E0
C380E0
C70070
FF0070
FF0070
FF0070
C70070
C70070
C380E0
C3C1E0
C1FFC0
C0FF80
C07F00
ENDCHAR
STARTCHAR 044F
ENCODING 1103
SWIDTH 582 0
DWIDTH 17 0
BBX 13 16 2 0
BITMAP
1FF8
3FF8
7FF8
7038
6038
6038
7038
3FF8
1FF8
0FF8
1E38
1C38
3838
7038
7038
E038
ENDCHAR
STARTCHAR 0450
ENCODING 1104
SWIDTH 617 0
DWIDTH 18 0
BBX 14 23 2 0
BITMAP
3800
1C00
0C00
0600
0300
0000
0000
0FC0
3FF0
7FF8
783C
E01C
E00C
FFFC
FFFC
FFFC
C000
E000
E000
780C
7FFC
1FFC
0FF0
ENDCHAR
STARTCHAR 0451
ENCODING 1105
SWIDTH 617 0
DWIDTH 18 0
BBX 14 22 2 0
BITMAP
1C70
1C70
1C70
0000
0000
0000
0FC0
3FF0
7FF8
783C
E01C
E00C
FFFC
FFFC
FFFC
C000
E000
E000
780C
7FFC
1FFC
0FF0
ENDCHAR
STARTCHAR 0452
ENCODING 1106
SWIDTH 617 0
DWIDTH 18 0
BBX 16 28 1 -6
BITMAP
3800
3800
3800
3800
3800
3800
FFF0
FFF0
FFF0
3800
3800
39F0
3BFC
3FFE
3E1E
3C0E
3806
3807
3807
3806
3806
380E
001C
003C
0078
00F0
00E0
0080
ENDCHAR
STARTCHAR 0453
ENCODING 1107
SWIDTH 514 0
DWIDTH 15 0
BBX 11 23 3 0
BITMAP
00C0
01C0
0380
0700
0600
0000
0000
FFE0
FFE0
FFE0
C000
C000
C000
C000
C000
C000
C000
C000
C000
C000
C000
C000
C000
ENDCHAR
STARTCHAR 0454
ENCODING 1108
SWIDTH 548 0
DWIDTH 16 0
BBX 12 16 2 0
BITMAP
0FE0
3FF0
7FF0
7810
E000
E000
FFC0
FFC0
FFC0
C000
E000
E000
7810
7FF0
3FF0
0FE0
ENDCHAR
STARTCHAR 0455
ENCODING 1109
SWIDTH 514 0
DWIDTH 15 0
BBX 12 16 2 0
BITMAP
3FC0
7FE0
FFE0
E060
C000
C000
F800
3F80
03E0
00E0
0070
8070
C0F0
FFE0
FFC0
3F80
ENDCHAR
STARTCHAR 0456
ENCODING 1110
SWIDTH 274 0
DWIDTH 8 0
BBX 2 22 3 0
BITMAP
C0
C0
C0
00
00
00
C0
C0
C0
C0
C0
C0
C0
C0
C0
C0
C0
C0
C0
C0
C0
C0
ENDCHAR
STARTCHAR 0457
ENCODING 1111
SWIDTH 274 0
DWIDTH 8 0
BBX 8 22 0 0
BITMAP
E7
E7
E7
00
00
00
18
18
18
18
18
18
18
18
18
18
18
18
18
18
18
18
ENDCHAR
STARTCHAR 0458
ENCODING 1112
SWIDTH 274 0
DWIDTH 8 0
BBX 6 28 -1 -6
BITMAP
0C
0C
0C
00
00
00
0C
0C
0C
0C
0C
0C
0C
0C
0C
0C
0C
0C
0C
0C
0C
0C
0C
0C
1C
FC
F8
F0
ENDCHAR
STARTCHAR 0459
ENCODING 1113
SWIDTH 891 0
DWIDTH 26 0
BBX 23 16 1 0
BITMAP
0FFE00
0FFE00
0FFE00
0E0E00
0E0E00
0E0E00
0E0E00
0E0FF8
0E0FFC
0E0FFE
0E0E0E
1C0E06
3C0E0E
F80FFE
F00FFC
E00FF0
ENDCHAR
STARTCHAR 045A
ENCODING 1114
SWIDTH 891 0
DWIDTH 26 0
BBX 21 16 3 0
BITMAP
C03800
C03800
C03800
C03800
C03800
C03800
C03800
FFFFC0
FFFFF0
FFFFF8
C03838
C03818
C03838
C03FF8
C03FF0
C03FC0
ENDCHAR
STARTCHAR 045B
ENCODING 1115
SWIDTH 651 0
DWIDTH 19 0
BBX 15 22 1 0
BITMAP
3800
3800
3800
3800
3800
3800
FFF0
FFF0
FFF0
3800
3800
39F0
3BFC
3FFE
3E1E
3C0E
3806
3806
3806
3806
3806
3806
ENDCHAR
STARTCHAR 045C
ENCODING 1116
SWIDTH 617 0
DWIDTH 18 0
BBX 13 23 3 0
BITMAP
01C0
0180
0300
0600
0C00
0000
0000
C070
C0E0
C1C0
C380
C700
CE00
DE00
FF00
F700
E380
E1C0
C1C0
C0E0
C070
C038
C038
ENDCHAR
STARTCHAR 045D
ENCODING 1117
SWIDTH 651 0
DWIDTH 19 0
BBX 13 23 3 0
BITMAP
7000
3800
1C00
0C00
0600
0000
0000
C038
C078
C0F8
C0D8
C1D8
C198
C398
C718
C618
CE18
CC18
DC18
F818
F018
F018
E018
ENDCHAR
STARTCHAR 045E
ENCODING 1118
SWIDTH 582 0
DWIDTH 17 0
BBX 15 28 1 -6
BITMAP
1830
1C70
0FE0
07C0
0000
0000
E00E
E00E
700C
701C
3018
3838
1838
1C30
1C70
0C60
0EE0
06E0
07C0
07C0
0380
0380
0300
0700
0700
7E00
7E00
7800
ENDCHAR
STARTCHAR 045F
ENCODING 1119
SWIDTH 651 0
DWIDTH 19 0
BBX 13 20 3 -4
BITMAP
C018
C018
C018
C018
C018
C018
C018
C018
C018
C018
C018
C018
C018
FFF8
FFF8
FFF8
0700
0700
0700
0700
ENDCHAR
STARTCHAR 0460
ENCODING 1120
SWIDTH 925 0
DWIDTH 27 0
BBX 23 21 2 0
BITMAP
1C0070
3C0078
380038
78001C
70001C
F0001E
E0000E
E0000E
E0000E
E0380E
E0380E
E0380E
E0380E
E0380E
E0380E
E0380E
F06C1E
78EE3C
7FE7FC
3FC7F8
0F01E0
ENDCHAR
STARTCHAR 0461
ENCODING 1121
SWIDTH 822 0
DWIDTH 24 0
BBX 20 16 2 0
BITMAP
3800C0
7000E0
7000E0
700070
E00070
E00070
E06070
E06070
E06070
E07070
E0F070
F0F070
71F8F0
7FFFE0
3F9FC0
1F0F80
ENDCHAR
STARTCHAR 0462
ENCODING 1122
SWIDTH 754 0
DWIDTH 22 0
BBX 21 21 0 0
BITMAP
038000
038000
038000
FFFC00
FFFC00
FFFC00
038000
038000
038000
03FF80
03FFE0
03FFF0
0380F0
038070
038078
038038
038070
0380F0
03FFF0
03FFE0
03FF80
ENDCHAR
STARTCHAR 0463
ENCODING 1123
SWIDTH 651 0
DWIDTH 19 0
BBX 18 22 0 0
BITMAP
070000
070000
070000
070000
070000
070000
FFFC00
FFFC00
FFFC00
070000
070000
070000
070000
07FE00
07FF80
07FF80
0703C0
0701C0
0703C0
07FF80
07FF80
07FE00
ENDCHAR
STARTCHAR 0464
ENCODING 1124
SWIDTH 925 0
DWIDTH 27 0
BBX 23 21 3 1
BITMAP
E01FF8
E07FFE
E0F80E
E0E006
E1C000
E1C000
E38000
E38000
E38000
FFFFE0
FFFFE0
E38000
E38000
E38000
E38000
E1C000
E1C000
E0E006
E0F81E
E03FFE
E01FF8
ENDCHAR
STARTCHAR 0465
ENCODING 1125
SWIDTH 754 0
DWIDTH 22 0
BBX 17 16 3 0
BITMAP
C07F00
C1FF80
C3C180
C78000
C70000
C70000
CE0000
FFFC00
FFFC00
CE0000
C60000
C70000
C70000
C3C080
C1FF80
C0FF80
ENDCHAR
STARTCHAR 0466
ENCODING 1126
SWIDTH 891 0
DWIDTH 26 0
BBX 25 21 0 0
BITMAP
001E0000
003E0000
003F0000
00770000
00738000
00E38000
00E1C000
01C1C000
01C0E000
0380E000
03807000
07FFF000
07FFF800
0E1C3800
0E1C1C00
1C1C1C00
1C1C0E00
381C0E00
781C0700
701C0700
F01C0380
ENDCHAR
STARTCHAR 0467
ENCODING 1127
SWIDTH 788 0
DWIDTH 23 0
BBX 21 16 1 0
BITMAP
007000
00F800
00F800
01DC00
038C00
038E00
070600
060700
0FFF80
0FFF80
1C71C0
3870C0
3870E0
707070
607070
E07038
ENDCHAR
STARTCHAR 0468
ENCODING 1128
SWIDTH 1165 0
DWIDTH 34 0
BBX 30 21 3 0
BITMAP
E001E000
E001F000
E003F000
E003B800
E007B800
E0071C00
E00F1C00
E00E0E00
E01E0E00
FFFC0700
FFF80780
E03FFF80
E07FFFC0
E070E1C0
E0E0E1E0
E0E0E0E0
E1C0E0F0
E1C0E070
E380E078
E380E038
E700E03C
ENDCHAR
STARTCHAR 0469
ENCODING 1129
SWIDTH 994 0
DWIDTH 29 0
BBX 25 16 3 0
BITMAP
C0070000
C0078000
C00F8000
C01DC000
C01CE000
C038E000
C0307000
FFF03000
FFFFF800
C0FFFC00
C1C71C00
C1870E00
C3870600
C7070700
C7070300
CE070380
ENDCHAR
STARTCHAR 046A
ENCODING 1130
SWIDTH 788 0
DWIDTH 23 0
BBX 19 21 2 0
BITMAP
7FFFC0
7FFFC0
3FFF80
380380
1C0700
0E0E00
0E0E00
071C00
031C00
03B800
07FC00
1FFE00
3FFF00
3CEF80
78E3C0
70E1C0
F0E1E0
E0E0E0
E0E0E0
E0E0E0
E0E0E0
ENDCHAR
STARTCHAR 046B
ENCODING 1131
SWIDTH 617 0
DWIDTH 18 0
BBX 14 16 2 0
BITMAP
FFFC
FFF8
7FF8
3030
3860
1CE0
0CC0
1FE0
3FF0
7FF8
7B78
F33C
E31C
E31C
C31C
C31C
ENDCHAR
STARTCHAR 046C
ENCODING 1132
SWIDTH 1028 0
DWIDTH 30 0
BBX 25 21 3 0
BITMAP
E1FFFF00
E1FFFF00
E0E00E00
E0F01E00
E0701C00
E0383800
E0387800
E01C7000
E01EF000
FFFEE000
FFFFE000
E03FF800
E07FFC00
E0F39E00
E1E38F00
E1C38700
E3838700
E3838380
E3838380
E3838380
E3838380
ENDCHAR
STARTCHAR 046D
ENCODING 1133
SWIDTH 822 0
DWIDTH 24 0
BBX 19 16 3 0
BITMAP
C7FFE0
C7FFE0
C3FFC0
C1C380
C1C380
C0E700
C0E700
FFFE00
FFFF00
C1FF80
C3DBC0
C399C0
C718E0
C718E0
C718E0
C71860
ENDCHAR
STARTCHAR 046E
ENCODING 1134
SWIDTH 617 0
DWIDTH 18 0
BBX 14 33 2 -6
BITMAP
1070
18C0
08C0
0C80
0D80
0700
7FE0
7FF0
4078
0038
001C
001C
0018
0038
03F0
0FC0
0FF0
0078
001C
001C
001C
001C
001C
003C
00F8
7FF0
FFC0
C000
C000
C000
FFF0
7FF8
1FF8
ENDCHAR
STARTCHAR 046F
ENCODING 1135
SWIDTH 548 0
DWIDTH 16 0
BBX 13 27 1 -6
BITMAP
3060
18C0
18C0
0980
0D80
0700
7FC0
7FE0
60F0
0030
0030
0070
0FE0
0F80
0FE0
0070
0038
0038
0038
0070
7FE0
7FC0
E000
C000
E000
77E0
3FE0
ENDCHAR
STARTCHAR 0470
ENCODING 1136
SWIDTH 857 0
DWIDTH 25 0
BBX 23 21 1 0
BITMAP
007006
C0701E
E0703E
E07070
607070
707060
7070E0
3070E0
3871C0
1871C0
1C7180
1C7380
0C7380
0E7300
0FFF00
07FF00
07FE00
007000
007000
007000
007000
ENDCHAR
STARTCHAR 0471
ENCODING 1137
SWIDTH 857 0
DWIDTH 25 0
BBX 24 28 1 -6
BITMAP
007000
007000
007000
007000
007000
007000
E0701F
E0703F
607038
707070
707070
3070E0
3870E0
3870E0
1C71C0
1C71C0
0C7180
0E7380
0E7380
07FF00
07FF00
07FF00
007000
007000
007000
007000
007000
007000
ENDCHAR
STARTCHAR 0472
ENCODING 1138
SWIDTH 788 0
DWIDTH 23 0
BBX 19 21 2 0
BITMAP
03F800
0FFE00
1FFF00
3E0F80
7803C0
7001C0
F001E0
E000E0
E000E0
FFFFE0
FFFFE0
FFFFE0
E000E0
E000E0
E000E0
7001C0
7803C0
3C0F80
1FFF00
0FFE00
03F800
ENDCHAR
STARTCHAR 0473
ENCODING 1139
SWIDTH 617 0
DWIDTH 18 0
BBX 14 16 2 0
BITMAP
0FC0
3FF0
7FF8
7038
E01C
FFFC
FFFC
FFFC
C01C
E01C
E01C
F03C
7878
7FF8
3FF0
0FC0
ENDCHAR
STARTCHAR 0474
ENCODING 1140
SWIDTH 788 0
DWIDTH 23 0
BBX 22 22 0 0
BITMAP
000008
E0007C
7000FC
7000F0
3801E0
3801C0
3803C0
1C0380
1C0380
0C0700
0E0700
0E0700
070E00
070E00
071C00
039C00
039C00
01B800
01F800
01F800
00F000
00F000
ENDCHAR
STARTCHAR 0475
ENCODING 1141
SWIDTH 651 0
DWIDTH 19 0
BBX 18 16 1 0
BITMAP
E007C0
E00FC0
600E00
701C00
701C00
303800
383800
383000
1C7000
1C7000
0C6000
0EE000
0EE000
07C000
07C000
078000
ENDCHAR
STARTCHAR 0476
ENCODING 1142
SWIDTH 788 0
DWIDTH 23 0
BBX 22 27 0 0
BITMAP
0E7000
073800
039800
018C00
000000
000008
E0007C
7000FC
7000F0
3801E0
3801C0
3803C0
1C0380
1C0380
0C0700
0E0700
0E0700
070E00
070E00
071C00
039C00
039C00
01B800
01F800
01F800
00F000
00F000
ENDCHAR
STARTCHAR 0477
ENCODING 1143
SWIDTH 651 0
DWIDTH 19 0
BBX 18 23 1 0
BITMAP
1CE000
0C6000
067000
033000
031800
000000
000000
E007C0
E00FC0
600E00
701C00
701C00
303800
383800
383000
1C7000
1C7000
0C6000
0EE000
0EE000
07C000
07C000
078000
ENDCHAR
STARTCHAR 0478
ENCODING 1144
SWIDTH 994 0
DWIDTH 29 0
BBX 26 28 2 -6
BITMAP
02000000
1FC00000
3FE00000
70E00000
70700000
60300000
E03F01C0
E03B8180
E03B8380
E0398380
E039C700
E039C700
E038E600
E038EE00
E0386E00
E0387C00
E0387C00
60303800
70703800
78E03800
3FE07000
1F807000
00006000
0000E000
0000E000
0001C000
000F8000
000F0000
ENDCHAR
STARTCHAR 0479
ENCODING 1145
SWIDTH 891 0
DWIDTH 26 0
BBX 23 22 2 -6
BITMAP
1F1C0E
3F9C0E
71CC0C
E0CE1C
E0EE1C
E0E738
C06738
C06330
C063F0
C063F0
C0E1E0
E0E1E0
E0E0C0
71C1C0
3F81C0
1F0380
000380
000300
000700
000E00
007E00
007C00
ENDCHAR
STARTCHAR 047A
ENCODING 1146
SWIDTH 960 0
DWIDTH 28 0
BBX 24 21 2 1
BITMAP
003C00
0FFFE0
1FFFF8
3C183C
78001C
70000E
E0000E
E00007
E00007
E00007
E00007
E00007
E00007
E00007
E0000E
70000E
78001C
3C183C
1FFFF8
07FFE0
003C00
ENDCHAR
STARTCHAR 047B
ENCODING 1147
SWIDTH 754 0
DWIDTH 22 0
BBX 18 16 2 0
BITMAP
00C000
1FFE00
3EDF00
700380
E001C0
E001C0
C001C0
C000C0
C000C0
C000C0
E001C0
E001C0
700380
7CCF80
3FFF00
03F800
ENDCHAR
STARTCHAR 047C
ENCODING 1148
SWIDTH 1165 0
DWIDTH 34 0
BBX 31 27 2 0
BITMAP
0003C000
000FF000
003C3000
00301000
00038000
00038000
00018000
00018000
1C0300E0
38020070
38000070
70000038
70000038
7000001C
E000001C
E000001C
E000001C
E000000C
C000000E
C000000E
E00FC00E
E01FE01C
E03FF01C
F0F87C3C
7FE01FF8
3FC007F0
1F0003E0
ENDCHAR
STARTCHAR 047D
ENCODING 1149
SWIDTH 1028 0
DWIDTH 30 0
BBX 26 22 2 0
BITMAP
000F0000
003F8000
01F0C000
01C0C000
001E0000
001E0000
00060000
00060000
381C0700
70180300
70000380
70000380
E0000180
E0000180
E00001C0
E00001C0
E03F01C0
E07F81C0
F1FFE380
7FE1FF80
3F807F00
1E003E00
ENDCHAR
STARTCHAR 047E
ENCODING 1150
SWIDTH 925 0
DWIDTH 27 0
BBX 23 26 2 0
BITMAP
07FFC0
031180
020080
000000
000000
1C0070
3C0078
380038
78001C
70001C
F0001E
E0000E
E0000E
E0000E
E0380E
E0380E
E0380E
E0380E
E0380E
E0380E
E0380E
F06C1E
78EE3C
7FE7FC
3FC7F8
0F01E0
ENDCHAR
STARTCHAR 047F
ENCODING 1151
SWIDTH 822 0
DWIDTH 24 0
BBX 20 21 2 0
BITMAP
0FFF00
0C6300
040200
000000
000000
3800C0
7000E0
7000E0
700070
E00070
E00070
E06070
E06070
E06070
E07070
E0F070
F0F070
71F8F0
7FFFE0
3F9FC0
1F0F80
ENDCHAR
ENDFONT
